<svg width="25" height="26" viewBox="0 0 25 26" fill="none" xmlns="http://www.w3.org/2000/svg">
<path fill-rule="evenodd" clip-rule="evenodd" d="M12.4905 0C19.3888 0 24.9809 5.67106 24.9809 12.6667C24.9809 19.6623 19.3888 25.3333 12.4905 25.3333C5.59222 25.3333 6.67569e-05 19.6623 6.67569e-05 12.6667C6.67569e-05 5.67106 5.59222 0 12.4905 0ZM18.8917 13.6593C18.4894 13.4332 17.9826 13.5807 17.7597 13.9886C16.8046 15.7366 14.7737 16.8889 12.4905 16.8889C10.213 16.8889 8.18635 15.7425 7.22808 14.0011C7.00397 13.5938 6.49675 13.4479 6.09517 13.6752C5.69358 13.9025 5.54971 14.4168 5.77382 14.8241C7.03338 17.113 9.62289 18.5778 12.4905 18.5778C15.3655 18.5778 17.9606 17.1054 19.2164 14.8072C19.4393 14.3993 19.2939 13.8853 18.8917 13.6593ZM7.49432 9.28888C7.03443 9.28888 6.66162 9.66695 6.66162 10.1333C6.66162 10.5997 7.03443 10.9778 7.49432 10.9778C7.9542 10.9778 8.32701 10.5997 8.32701 10.1333C8.32701 9.66695 7.9542 9.28888 7.49432 9.28888ZM17.4867 9.28888C17.0268 9.28888 16.654 9.66695 16.654 10.1333C16.654 10.5997 17.0268 10.9778 17.4867 10.9778C17.9465 10.9778 18.3193 10.5997 18.3193 10.1333C18.3193 9.66695 17.9465 9.28888 17.4867 9.28888Z" fill="#8C939C"/>
</svg>
