<svg width="80" height="80" viewBox="0 0 80 80" fill="none" xmlns="http://www.w3.org/2000/svg">
<g clip-path="url(#clip0)">
<path d="M51.3567 4.31419L19.928 35.7429C17.5451 38.1258 17.5451 41.9894 19.928 44.3724L20.0141 44.4585C22.3971 46.8414 26.2606 46.8414 28.6436 44.4585L60.0723 13.0298C62.4553 10.6468 62.4553 6.78327 60.0723 4.40031L59.9862 4.31419C57.6032 1.93122 53.7397 1.93123 51.3567 4.31419Z" fill="#ffffff"/>
<path d="M20.0141 35.5396L19.928 35.6257C17.5451 38.0087 17.5451 41.8722 19.928 44.2552L51.3567 75.6839C53.7397 78.0668 57.6032 78.0668 59.9862 75.6839L60.0723 75.5977C62.4553 73.2148 62.4553 69.3512 60.0723 66.9683L28.6436 35.5396C26.2606 33.1566 22.3971 33.1566 20.0141 35.5396Z" fill="#ffffff"/>
</g>
<defs>
<clipPath id="clip0">
<rect width="80" height="80" fill="white"/>
</clipPath>
</defs>
</svg>
