<svg width="24" height="24" viewBox="0 0 24 24" fill="none" xmlns="http://www.w3.org/2000/svg">
<g clip-path="url(#clip0)">
<path d="M23.9982 9.69471L23.7811 1.82942C23.7569 0.949955 23.049 0.24208 22.1695 0.217738L14.3041 0.000664645C13.8446 -0.0121841 13.4099 0.161681 13.086 0.485611L0.484838 13.0868C-0.161613 13.7333 -0.161613 14.7851 0.484838 15.4315L8.56726 23.5139C9.21518 24.1619 10.264 24.1621 10.912 23.514L23.5133 10.9128C23.8339 10.5921 24.0107 10.148 23.9982 9.69471ZM20.3969 7.58886C19.2951 8.69061 17.5119 8.69071 16.41 7.58886C15.3108 6.48967 15.3108 4.70114 16.41 3.60201C17.5118 2.50021 19.295 2.50016 20.3969 3.60201C21.496 4.70114 21.496 6.48967 20.3969 7.58886Z" fill="#064045"/>
</g>
<defs>
<clipPath id="clip0">
<rect width="24" height="24" fill="white"/>
</clipPath>
</defs>
</svg>
