<svg width="102" height="102" viewBox="0 0 102 102" fill="none" xmlns="http://www.w3.org/2000/svg">
<g filter="url(#filter0_d)">
<circle cx="51" cy="47" r="47" fill="#12BFCE"/>
<g clip-path="url(#clip0)">
<path d="M53.8096 49.9772C57.3716 42.172 56.4279 44.2396 57.7122 41.4253V38.4526L58.3915 39.939L60.274 35.8145C60.3154 35.7215 60.3749 35.6434 60.4236 35.5551L57.8903 30.0067C57.5587 29.2739 56.8085 28.9609 56.0495 28.9609C55.1035 28.9609 49.5405 28.9609 48.977 28.9609C48.215 28.9609 47.465 29.2739 47.1332 30.0067L46.4965 31.4029C46.3321 32.4784 45.8727 33.4458 45.2001 34.2401C45.1873 34.256 45.1744 34.2727 45.1616 34.2886C45.1676 34.2896 45.1716 34.2896 45.1774 34.2906C46.2697 34.5134 47.158 35.2957 47.5372 36.1247L51.1517 44.0456C51.224 44.1286 53.6758 49.5267 53.8096 49.9772Z" fill="#F2F7F2"/>
<path d="M40.7976 34.8209C43.1674 34.8209 45.0884 32.8998 45.0884 30.531C45.0884 28.1593 43.1674 26.2402 40.7976 26.2402C38.428 26.2402 36.5059 28.1593 36.5059 30.531C36.5057 32.8997 38.4279 34.8209 40.7976 34.8209Z" fill="#F2F7F2"/>
<path d="M57.3507 56.9592L57.5578 55.9788C56.7606 56.2066 55.8664 56.1482 55.089 55.7917C54.2591 55.4134 53.6562 54.748 53.3145 53.9727V61.2986C53.3145 62.5146 54.3007 63.5 55.5167 63.5C56.7327 63.5 57.7181 62.5146 57.7181 61.2986V58.9594C57.3458 58.3644 57.2013 57.6564 57.3507 56.9592Z" fill="#F2F7F2"/>
<path d="M47.5951 52.2929L47.499 52.082L47.5011 52.2097L47.499 61.3438C47.499 62.7155 48.6091 63.4997 49.5062 63.4997C50.7233 63.4997 51.7085 62.5143 51.7085 61.2983V54.0416C50.1448 54.5706 48.2901 53.817 47.5951 52.2929Z" fill="#F2F7F2"/>
<path d="M52.5114 28.0825C54.882 28.0825 56.8031 26.1614 56.8031 23.7926C56.8031 21.421 54.882 19.502 52.5114 19.502C50.1426 19.502 48.2207 21.421 48.2207 23.7926C48.2206 26.1614 50.1425 28.0825 52.5114 28.0825Z" fill="#F2F7F2"/>
<path d="M67.7466 34.2509C70.2441 34.2509 72.6227 32.1893 72.6227 29.375C72.6227 26.6815 70.4391 24.5 67.7466 24.5C65.0532 24.5 62.8706 26.6815 62.8706 29.375C62.8706 32.1834 65.2422 34.2509 67.7466 34.2509Z" fill="#F2F7F2"/>
<path d="M80.8109 51.6676L73.8584 36.4346C73.5146 35.6799 72.7739 35.2472 71.9986 35.2324H63.4942C62.7189 35.2472 61.9782 35.681 61.6344 36.4346L54.681 51.6676C54.2028 52.7153 54.6642 53.9523 55.7128 54.4304C56.7526 54.9068 57.9953 54.4523 58.4745 53.3986L60.6443 48.6454L58.8133 57.2684C58.6508 58.0271 59.2302 58.7489 60.0113 58.7489H61.8285V71.9936C61.8285 73.376 62.9496 74.496 64.3308 74.496C65.7133 74.496 66.8343 73.376 66.8343 71.9936V58.7489H68.6584V71.9936C68.6584 73.376 69.7784 74.496 71.1608 74.496C72.5424 74.496 73.6631 73.376 73.6631 71.9936V58.7489H75.4803C76.2625 58.7489 76.8408 58.0271 76.6794 57.2684L74.8474 48.6454L77.017 53.3986C77.4974 54.4524 78.7401 54.9069 79.7799 54.4304C80.8277 53.9521 81.2892 52.7153 80.8109 51.6676Z" fill="#F2F7F2"/>
<path d="M27.9399 49.5278L30.2669 44.4281L34.0577 36.1228C34.4746 35.2046 35.2986 34.5561 36.2611 34.3116V34.0778C35.5659 33.1935 35.1313 32.0517 35.0498 30.8615H28.3528C27.6457 30.8537 26.9874 31.1457 26.6862 31.8072L21.1495 43.9369C20.7693 44.7716 21.1367 45.756 21.9706 46.1363C22.8131 46.5214 23.7928 46.1431 24.1709 45.3153L26.8476 39.451C26.8476 39.9281 26.8418 47.1858 26.8418 60.1227C26.8418 61.2228 27.7339 62.1151 28.8342 62.1151C29.9354 62.1151 30.8265 61.2228 30.8265 60.1227V54.2208C30.4037 54.2098 29.9818 54.1208 29.5838 53.9384C27.927 53.183 27.1685 51.2133 27.9399 49.5278Z" fill="#F2F7F2"/>
<path d="M32.2803 53.9299V60.124C32.2803 61.1608 33.0824 61.9855 34.0953 62.0796V52.084L33.9983 52.2939C33.6549 53.0505 33.0201 53.6119 32.2803 53.9299Z" fill="#F2F7F2"/>
<path d="M31.5547 30.0664C33.6985 30.0664 35.4375 28.3284 35.4375 26.1846C35.4375 24.0397 33.6985 22.3027 31.5547 22.3027C29.4087 22.3027 27.6709 24.0397 27.6709 26.1846C27.6709 28.3284 29.4087 30.0664 31.5547 30.0664Z" fill="#F2F7F2"/>
<path d="M46.1764 36.7448C45.8435 36.0131 45.0944 35.6992 44.3355 35.6992C43.7091 35.6992 38.1371 35.6992 37.261 35.6992C36.4997 35.6992 35.7517 36.0111 35.4192 36.7448L29.3003 50.1489C28.8805 51.0699 29.2865 52.1591 30.2083 52.579C31.1234 52.9991 32.2167 52.5999 32.6386 51.6721L35.5976 45.1909L35.5915 68.0359C35.5915 69.2519 36.5769 70.2373 37.7929 70.2373C39.0099 70.2373 39.9952 69.2519 39.9952 68.0359V54.9121H41.6013V68.0359C41.6013 69.2519 42.5876 70.2373 43.8038 70.2373C45.0198 70.2373 46.005 69.2519 46.005 68.0359L45.9991 45.1937L48.9571 51.6721C49.3799 52.5999 50.4721 52.9991 51.387 52.579C52.3101 52.1591 52.716 51.0699 52.2952 50.1489L46.1764 36.7448Z" fill="#F2F7F2"/>
</g>
</g>
<defs>
<filter id="filter0_d" x="0" y="0" width="102" height="102" filterUnits="userSpaceOnUse" color-interpolation-filters="sRGB">
<feFlood flood-opacity="0" result="BackgroundImageFix"/>
<feColorMatrix in="SourceAlpha" type="matrix" values="0 0 0 0 0 0 0 0 0 0 0 0 0 0 0 0 0 0 127 0"/>
<feOffset dy="4"/>
<feGaussianBlur stdDeviation="2"/>
<feColorMatrix type="matrix" values="0 0 0 0 0 0 0 0 0 0 0 0 0 0 0 0 0 0 0.25 0"/>
<feBlend mode="normal" in2="BackgroundImageFix" result="effect1_dropShadow"/>
<feBlend mode="normal" in="SourceGraphic" in2="effect1_dropShadow" result="shape"/>
</filter>
<clipPath id="clip0">
<rect width="60" height="60" fill="white" transform="translate(21 17)"/>
</clipPath>
</defs>
</svg>
