<svg width="102" height="102" viewBox="0 0 102 102" fill="none" xmlns="http://www.w3.org/2000/svg">
<g filter="url(#filter0_d)">
<circle cx="51" cy="47" r="47" fill="#12BFCE"/>
<g clip-path="url(#clip0)">
<path d="M69.2696 58.3268L64.4777 51.5467V38.3005C64.4777 31.5398 59.4738 25.9264 52.9753 24.9677V21.9756C52.9753 20.8846 52.0907 20 50.9997 20C49.9087 20 49.0241 20.8846 49.0241 21.9756V24.9676C42.5255 25.9263 37.5216 31.5397 37.5216 38.3004V51.5467L32.7298 58.3268C31.8074 59.6318 32.7415 61.4426 34.343 61.4426H67.6564C69.2545 61.4427 70.1941 59.6345 69.2696 58.3268Z" fill="#F2F7F2"/>
<path d="M50.9996 62.8535C47.9264 62.8535 45.4263 65.3535 45.4263 68.4267C45.4263 71.4998 47.9265 74.0002 50.9996 74.0002C54.0727 74.0002 56.5727 71.4999 56.5727 68.4269C56.5727 65.3538 54.0726 62.8535 50.9996 62.8535Z" fill="#F2F7F2"/>
</g>
</g>
<defs>
<filter id="filter0_d" x="0" y="0" width="102" height="102" filterUnits="userSpaceOnUse" color-interpolation-filters="sRGB">
<feFlood flood-opacity="0" result="BackgroundImageFix"/>
<feColorMatrix in="SourceAlpha" type="matrix" values="0 0 0 0 0 0 0 0 0 0 0 0 0 0 0 0 0 0 127 0"/>
<feOffset dy="4"/>
<feGaussianBlur stdDeviation="2"/>
<feColorMatrix type="matrix" values="0 0 0 0 0 0 0 0 0 0 0 0 0 0 0 0 0 0 0.25 0"/>
<feBlend mode="normal" in2="BackgroundImageFix" result="effect1_dropShadow"/>
<feBlend mode="normal" in="SourceGraphic" in2="effect1_dropShadow" result="shape"/>
</filter>
<clipPath id="clip0">
<rect width="54" height="54" fill="white" transform="translate(24 20)"/>
</clipPath>
</defs>
</svg>
