<svg width="455" height="455" viewBox="0 0 455 455" fill="none" xmlns="http://www.w3.org/2000/svg">
<path d="M227.495 150L133.746 200L45.4668 150L84.2668 330H370.733L409.533 150L321.247 200L227.495 150Z" fill="#075459"/>
<path d="M367.5 360H87.5V415H367.5V360Z" fill="#075459"/>
<path d="M40 120C62.0914 120 80 102.091 80 80C80 57.9086 62.0914 40 40 40C17.9086 40 0 57.9086 0 80C0 102.091 17.9086 120 40 120Z" fill="#075459"/>
<path d="M415 120C437.091 120 455 102.091 455 80C455 57.9086 437.091 40 415 40C392.909 40 375 57.9086 375 80C375 102.091 392.909 120 415 120Z" fill="#075459"/>
<path d="M227.5 120C249.591 120 267.5 102.091 267.5 80C267.5 57.9086 249.591 40 227.5 40C205.409 40 187.5 57.9086 187.5 80C187.5 102.091 205.409 120 227.5 120Z" fill="#075459"/>
</svg>
