<svg width="116" height="124" viewBox="0 0 116 124" fill="none" xmlns="http://www.w3.org/2000/svg">
<g clip-path="url(#clip0)">
<path fill-rule="evenodd" clip-rule="evenodd" d="M93.13 79.5C105.18 79.5 114.95 89.27 114.95 101.32C114.95 113.37 105.18 123.14 93.13 123.14C81.08 123.14 71.31 113.37 71.31 101.32C71.31 89.27 81.08 79.5 93.13 79.5ZM8.08 0.25H103.36C105.53 0.25 107.47 1.14 108.89 2.55C110.31 3.97 111.19 5.94 111.19 8.08V78.09C108.73 76.18 105.95 74.65 102.94 73.61V9.98C102.94 9.55 102.78 9.19 102.48 8.93C102.22 8.67 101.82 8.47 101.43 8.47H9.94C9.51 8.47 9.15 8.63 8.89 8.93C8.63 9.19 8.43 9.58 8.43 9.98V80H8.46L40.43 49.39C41.71 48.21 43.72 48.34 44.87 49.62C44.9 49.65 44.9 49.69 44.94 49.69L71.82 81.49C67.09 86.67 64.2 93.57 64.2 101.14C64.2 104.43 64.75 107.59 65.75 110.54H8.08C5.91 110.54 3.97 109.65 2.55 108.24C1.13 106.83 0.25 104.85 0.25 102.71V8.08C0.25 5.91 1.14 3.97 2.55 2.55C3.96 1.13 5.94 0.25 8.08 0.25ZM73.98 79.35L77.69 56.56C77.99 54.85 79.6 53.66 81.31 53.96C81.97 54.06 82.56 54.39 83.02 54.82L100.12 72.79C97.94 72.27 95.68 72 93.34 72C85.91 71.99 79.13 74.77 73.98 79.35ZM81.98 18.19C85.11 18.19 87.97 19.47 90.01 21.51C92.08 23.58 93.33 26.41 93.33 29.54C93.33 32.67 92.05 35.53 90.01 37.57C87.94 39.64 85.11 40.89 81.98 40.89C78.85 40.89 75.99 39.61 73.95 37.57C71.88 35.5 70.63 32.67 70.63 29.54C70.63 26.41 71.91 23.55 73.95 21.51C76.02 19.44 78.86 18.19 81.98 18.19ZM85.82 88.05L105.78 109.65C107.36 107.26 108.28 104.4 108.28 101.32C108.28 92.96 101.5 86.18 93.14 86.18C90.48 86.17 87.99 86.85 85.82 88.05ZM100.44 114.58L80.48 92.98C78.9 95.37 77.98 98.23 77.98 101.31C77.98 109.67 84.76 116.45 93.12 116.45C95.78 116.46 98.27 115.78 100.44 114.58Z" fill="#E0E5E0" stroke="#E0E5E0" stroke-width="0.5" stroke-miterlimit="2.6131"/>
</g>
<defs>
<clipPath id="clip0">
<rect width="115.19" height="123.38" fill="white"/>
</clipPath>
</defs>
</svg>
