<svg width="59" height="59" viewBox="0 0 59 59" fill="none" xmlns="http://www.w3.org/2000/svg">
<path d="M18.4375 18.4375C20.4741 18.4375 22.125 16.7866 22.125 14.75C22.125 12.7134 20.4741 11.0625 18.4375 11.0625C16.4009 11.0625 14.75 12.7134 14.75 14.75C14.75 16.7866 16.4009 18.4375 18.4375 18.4375Z" fill="#075459"/>
<path d="M43.94 35.8527C43.2558 34.8264 41.5561 34.8264 40.8719 35.8527L37.1844 41.384C36.8081 41.9493 36.7721 42.6768 37.0926 43.2763C37.413 43.8759 38.0379 44.2504 38.7184 44.2504H40.5622V47.9379C40.5622 48.9561 41.3868 49.7817 42.4059 49.7817C43.4251 49.7817 44.2497 48.9561 44.2497 47.9379V44.2504H46.0934C46.774 44.2504 47.3988 43.8759 47.7193 43.2763C48.0397 42.6768 48.0038 41.9493 47.6274 41.384L43.94 35.8527Z" fill="#075459"/>
<path d="M55.3125 0H3.6875C1.65108 0 0 1.65108 0 3.6875V40.5625C0 42.5989 1.65108 44.25 3.6875 44.25H25.9214C26.8424 52.5339 33.8797 59 42.4062 59C51.5565 59 59 51.5556 59 42.4062V40.5625V3.6875C59 1.65108 57.3489 0 55.3125 0ZM23.3241 24.4126C22.6741 23.8554 21.7253 23.8194 21.0338 24.3253L7.375 34.3421V7.375H51.625V27.6562C51.625 27.6562 44.3112 19.9655 42.0029 17.2861C41.6434 16.8687 41.1405 16.6018 40.5895 16.5938C40.0601 16.582 39.5127 16.8233 39.158 17.2438L28.9598 29.2416L23.3241 24.4126ZM55.1658 44.25C54.2692 50.5024 48.9071 55.3125 42.4062 55.3125C35.9054 55.3125 30.5434 50.5024 29.6467 44.25C29.5603 43.6464 29.5 43.0337 29.5 42.4062C29.5 35.2784 35.278 29.5 42.4062 29.5C49.5345 29.5 55.3125 35.2784 55.3125 42.4062C55.3125 43.0337 55.2522 43.6464 55.1658 44.25Z" fill="#075459"/>
</svg>
