<svg width="31" height="31" viewBox="0 0 31 31" fill="none" xmlns="http://www.w3.org/2000/svg">
<g clip-path="url(#clip0)">
<path d="M20.194 3.45975C15.581 -1.15325 8.07298 -1.15325 3.45998 3.45975C-1.15202 8.07375 -1.15202 15.5807 3.45998 20.1947C7.56798 24.3017 13.966 24.7418 18.576 21.5347C18.673 21.9937 18.895 22.4317 19.252 22.7887L25.97 29.5068C26.949 30.4838 28.531 30.4838 29.505 29.5068C30.483 28.5288 30.483 26.9468 29.505 25.9718L22.787 19.2518C22.432 18.8978 21.993 18.6747 21.534 18.5777C24.743 13.9667 24.303 7.56975 20.194 3.45975ZM18.073 18.0737C14.629 21.5177 9.02398 21.5177 5.58098 18.0737C2.13898 14.6297 2.13898 9.02575 5.58098 5.58175C9.02398 2.13875 14.629 2.13875 18.073 5.58175C21.517 9.02575 21.517 14.6297 18.073 18.0737Z" fill="#F2F7F2"/>
</g>
<defs>
<clipPath id="clip0">
<rect width="30.239" height="30.239" fill="white"/>
</clipPath>
</defs>
</svg>
