<svg width="201" height="200" viewBox="0 0 201 200" fill="none" xmlns="http://www.w3.org/2000/svg">
<g clip-path="url(#clip0)">
<path d="M102.203 129.236C84.1703 129.236 69.498 143.885 69.498 161.889C69.498 164.147 71.3254 165.971 73.5862 165.971C75.8469 165.971 77.6743 164.147 77.6743 161.889C77.6743 148.383 88.6754 137.4 102.203 137.4C115.731 137.4 126.732 148.383 126.732 161.889C126.732 164.147 128.559 165.971 130.82 165.971C133.081 165.971 134.908 164.147 134.908 161.889C134.908 143.881 120.236 129.236 102.203 129.236Z" fill="#5B5B5B"/>
<path d="M73.5864 116.988C78.102 116.988 81.7626 113.333 81.7626 108.824C81.7626 104.316 78.102 100.661 73.5864 100.661C69.0708 100.661 65.4102 104.316 65.4102 108.824C65.4102 113.333 69.0708 116.988 73.5864 116.988Z" fill="#5B5B5B"/>
<path d="M130.82 116.988C135.335 116.988 138.996 113.333 138.996 108.824C138.996 104.316 135.335 100.661 130.82 100.661C126.304 100.661 122.644 104.316 122.644 108.824C122.644 113.333 126.304 116.988 130.82 116.988Z" fill="#5B5B5B"/>
<path d="M187.6 81.534C187.367 80.3667 187.032 79.2442 186.754 78.0932C186.504 77.0605 186.275 76.0156 185.993 74.9952C185.507 73.2483 184.934 71.5463 184.35 69.8483C184.1 69.1258 183.88 68.3871 183.61 67.6728C182.87 65.6932 182.044 63.7748 181.173 61.8769C180.981 61.4605 180.818 61.032 180.621 60.6197C179.669 58.6197 178.63 56.685 177.539 54.7789C177.347 54.4442 177.179 54.0973 176.987 53.7667C176.03 52.1503 175 50.5952 173.95 49.0524C173.508 48.3993 173.099 47.7299 172.641 47.0891C172.073 46.3054 171.46 45.5626 170.867 44.7993C154.327 23.1911 128.359 9.53809 99.5131 9.53809C65.6266 9.53809 35.7057 29.0075 20.8412 58.3136C20.5673 58.8483 20.273 59.3667 20.0073 59.9095C19.3573 61.2605 18.7767 62.6483 18.1921 64.0401C17.7302 65.1258 17.2519 66.1993 16.8349 67.3095C16.4056 68.4524 16.0377 69.6238 15.6534 70.7871C15.2037 72.1422 14.7459 73.485 14.3575 74.8728C14.0386 76.0075 13.7851 77.1667 13.5112 78.3177C13.2537 79.3952 12.9389 80.4401 12.7222 81.534C5.33909 85.5299 0 94.2197 0 102.705C0 111.493 5.18783 119.395 13.1147 123.028C23.3186 162.84 58.8117 190.461 100.159 190.461C141.51 190.461 177.003 162.84 187.203 123.028C195.134 119.395 200.318 111.497 200.318 102.705C200.318 94.2197 194.979 85.5299 187.6 81.534ZM21.6098 79.5095C21.8837 78.4075 22.1781 77.3177 22.4969 76.236C22.8608 74.9871 23.2491 73.7544 23.6702 72.5381C23.9891 71.6034 24.3284 70.6769 24.68 69.7626C25.2319 68.334 25.8124 66.9258 26.4379 65.5422C26.6995 64.9585 26.9653 64.3789 27.2432 63.8034C40.3416 36.6524 67.8751 19.032 100.159 19.032C125.211 19.032 147.422 29.636 162.237 47.0728C162.241 47.0809 162.249 47.085 162.253 47.0932C163.545 48.6156 164.755 50.2075 165.929 51.832C166.436 52.5422 166.922 53.2646 167.409 53.9911C168.104 55.0197 168.782 56.0646 169.428 57.1299C170.09 58.2279 170.716 59.3463 171.329 60.4769C171.779 61.3095 172.229 62.1422 172.654 62.9952C173.275 64.2483 173.856 65.5299 174.416 66.8197C174.788 67.6769 175.152 68.534 175.495 69.4116C175.99 70.6687 176.439 71.9462 176.868 73.232C177.204 74.236 177.535 75.2483 177.833 76.2728C178.181 77.4646 178.496 78.6728 178.79 79.885C178.941 80.5136 179.072 81.1503 179.211 81.783C162.503 87.1789 150.059 75.1911 142.385 63.7911C140.995 61.7299 138.792 60.3299 136.339 59.9544C133.833 59.5871 131.253 60.2605 129.25 61.8605C91.1978 92.2116 36.1594 84.1422 21.2255 81.2197C21.3563 80.6483 21.4708 80.0728 21.6098 79.5095ZM182.416 116.15C181.075 116.603 180.065 117.722 179.747 119.097C171.129 156.305 138.399 182.297 100.159 182.297C61.9187 182.297 29.1933 156.31 20.5714 119.101C20.2526 117.726 19.2428 116.616 17.906 116.158C12.0845 114.179 8.17624 108.771 8.17624 102.705C8.17624 97.1789 11.9864 91.1544 16.839 88.6483C21.5403 89.7258 36.3638 92.7381 55.2959 92.7381C79.2319 92.7381 109.688 87.9095 134.356 68.232C134.65 67.9911 134.941 67.9911 135.1 68.0156C135.419 68.0646 135.558 68.2728 135.603 68.3381C149.094 88.4075 166.141 95.5952 183.765 88.7911C188.479 91.3871 192.142 97.285 192.142 102.705C192.142 108.775 188.233 114.175 182.416 116.15Z" fill="#5B5B5B"/>
</g>
<defs>
<clipPath id="clip0">
<rect width="200.318" height="200" fill="white"/>
</clipPath>
</defs>
</svg>
