<svg width="50" height="50" viewBox="0 0 50 50" fill="none" xmlns="http://www.w3.org/2000/svg">
<g clip-path="url(#clip0)">
<path d="M13.2785 14.4934C13.9071 16.891 15.9326 19.0988 18.4982 19.0988C21.1049 19.0988 23.1626 16.9006 23.8064 14.5088C24.0511 14.482 24.2539 14.295 24.276 14.0398L24.3569 13.0958C24.3779 12.8497 24.2227 12.6374 24.0002 12.5611C23.9951 12.5055 23.994 12.4473 23.9871 12.3917C23.9384 10.2263 23.5623 8.47673 21.8585 7.75418C20.0596 6.99126 18.4737 6.98033 17.3104 7.43407C17.2338 7.46396 17.0362 7.7263 16.9586 7.77493C16.8821 7.82245 16.4738 7.68815 16.3186 7.72385C13.7652 8.08813 12.9231 10.4951 13.1089 12.3694C13.1033 12.4232 13.0998 12.4754 13.0958 12.5285C12.8488 12.5896 12.6715 12.8152 12.6947 13.0757L12.7756 14.0216C12.7984 14.2884 13.0186 14.482 13.2785 14.4934ZM13.8223 12.6226C14.9411 12.2131 17.0915 11.3567 17.3255 10.9069C18.3037 11.9219 21.757 12.4935 23.2728 12.6849C23.279 12.7824 23.288 12.8785 23.288 12.9771C23.288 15.4704 21.1968 18.368 18.4985 18.368C15.8122 18.368 13.8054 15.5213 13.8054 12.9771C13.8054 12.8582 13.8143 12.7397 13.8223 12.6226ZM22.6138 18.2402C22.4795 18.2192 22.347 18.2498 22.2627 18.2843L20.112 21.1935L18.4809 19.8925L18.4717 19.9014V19.9095L18.4695 19.907L16.8383 21.2087L14.6879 18.2997C14.6022 18.2658 14.4697 18.2346 14.3367 18.2556C10.2745 18.8287 10.0157 28.0047 10.0157 28.0047L18.4797 28.0117V27.9958L26.9371 27.9911C26.9348 27.9911 26.6765 18.8133 22.6138 18.2402ZM37.3519 18.4755C37.3519 8.28734 29.0632 0 18.8779 0C8.69086 0 0.400391 8.28734 0.400391 18.4755C0.400391 28.6639 8.68952 36.9513 18.8768 36.9513C29.0632 36.9515 37.3519 28.6639 37.3519 18.4755ZM18.8779 32.3137C11.2476 32.3137 5.04041 26.1061 5.04041 18.4755C5.04041 10.8451 11.2476 4.63801 18.8779 4.63801C26.5079 4.63801 32.7143 10.8451 32.7143 18.4755C32.7143 26.1061 26.5065 32.3137 18.8779 32.3137ZM31.3221 35.8073L35.4058 31.7214L49.5995 45.9163L45.5148 50.0002L31.3221 35.8073Z" fill="black"/>
</g>
<defs>
<clipPath id="clip0">
<rect width="50" height="50" fill="white"/>
</clipPath>
</defs>
</svg>
