<?xml version="1.0" encoding="iso-8859-1"?>
<!-- Generator: Adobe Illustrator 19.0.0, SVG Export Plug-In . SVG Version: 6.00 Build 0)  -->
<svg version="1.1" id="Layer_1" xmlns="http://www.w3.org/2000/svg" xmlns:xlink="http://www.w3.org/1999/xlink" x="0px" y="0px"
	 viewBox="0 0 512 512" style="enable-background:new 0 0 512 512;" xml:space="preserve">
<g>
	<g>
		<g>
			<path d="M477.792,0H79.063c-12.426,0-22.5,10.074-22.5,22.5v50.523H34.018c-29.732,0-29.763,45,0,45h22.545v61.985H34.018
				c-29.732,0-29.763,45,0,45h22.545v61.984H34.018c-29.732,0-29.763,45,0,45h22.545v61.985H34.018c-29.732,0-29.763,45,0,45h22.545
				V489.5c0,12.426,10.074,22.5,22.5,22.5h398.729c12.426,0,22.5-10.074,22.5-22.5v-467C500.292,10.074,490.218,0,477.792,0z
				 M455.292,467H101.563V45h353.729V467z"/>
			<path d="M152.085,370.706c10.06,0,245.954,0,252.684,0c12.41,0,22.5-10.083,22.5-22.5V95.523c0-12.426-10.074-22.5-22.5-22.5
				c-24.582,0-224.111,0-252.684,0c-12.426,0-22.5,10.074-22.5,22.5c0,9.047,0,241.905,0,252.684
				C129.585,360.632,139.659,370.706,152.085,370.706z M221.439,325.706l25.785-44.655c26.247,45.455-0.479-0.816,25.784,44.655
				H221.439z M324.974,325.707v-0.001l-19.392-33.584l20.414-35.355l39.803,68.94H324.974z M174.585,118.023h47.808
				c24.286,31.375-16.421,72.104-47.808,47.808V118.023z M174.585,215.151c58.716,16.013,113.285-37.886,97.128-97.128h110.556
				v146.213l-36.788-63.719c-8.656-14.993-30.328-14.967-38.971-0.002l-26.91,46.608l-12.89-22.323
				c-8.655-14.996-30.312-14.999-38.972-0.002l-53.154,92.057V215.151z"/>
			<path d="M306.837,174.543h27.927c12.426,0,22.5-10.074,22.5-22.5s-10.074-22.5-22.5-22.5h-27.927
				c-12.426,0-22.5,10.074-22.5,22.5S294.411,174.543,306.837,174.543z"/>
			<path d="M152.085,445.248h252.684c12.426,0,22.5-10.074,22.5-22.5s-10.074-22.5-22.5-22.5H152.085
				c-12.426,0-22.5,10.074-22.5,22.5S139.659,445.248,152.085,445.248z"/>
		</g>
	</g>
</g>
<g>
</g>
<g>
</g>
<g>
</g>
<g>
</g>
<g>
</g>
<g>
</g>
<g>
</g>
<g>
</g>
<g>
</g>
<g>
</g>
<g>
</g>
<g>
</g>
<g>
</g>
<g>
</g>
<g>
</g>
</svg>
