<svg width="200" height="200" viewBox="0 0 200 200" fill="none" xmlns="http://www.w3.org/2000/svg">
<path d="M72.4289 14.4073C72.4289 14.4073 62.7922 16.6522 58.4617 20.4842C43.3891 33.8237 38.4398 46.9108 37.4672 61.7069L20.2914 80.0752C57.8777 73.0807 101.413 71.5127 153.331 71.9065C145.127 66.3815 137.171 61.8467 130.158 57.526C124.505 43.6604 116.994 27.6053 104.403 20.2709C98.8773 17.0522 93.0184 14.7928 87.2301 13.6967C83.0363 5.7643 73.402 9.07992 72.4293 14.4077L72.4289 14.4073ZM41.0066 83.9065C48.9473 99.7737 63.1297 114.99 76.0695 124.146C83.2008 129.079 90.4219 132.604 96.0051 133.577C100.671 134.453 105.169 133.024 107.265 129.408L107.266 129.406V129.406C110.431 123.82 113.013 118.185 115.218 112.532C121.381 113.21 128.268 113.524 130.078 112.072C132.933 109.778 126.659 90.1623 123.806 84.9456C125 82.5159 125 79.9475 125 78.0784C109.595 77.2213 66.157 80.5873 41.0066 83.9065V83.9065ZM174.656 86.2776C169.447 86.3955 164.93 90.128 161.598 95.1323C157.921 100.655 155.294 108.156 154.255 116.638C153.216 125.12 153.954 133.033 156.189 139.28C157.864 143.964 160.538 147.998 164.257 150.028L160.05 192.48L167.047 193.173L171.194 151.325C175.887 150.703 179.961 147.177 183.029 142.568C186.706 137.046 189.332 129.545 190.372 121.063C191.411 112.581 190.673 104.667 188.438 98.4205C186.203 92.1741 182.194 87.0823 176.294 86.3592C175.751 86.2925 175.203 86.2652 174.656 86.2776V86.2776ZM175.439 93.3385C177.585 93.6014 180.066 95.8936 181.818 100.79C183.57 105.685 184.316 112.673 183.393 120.208C182.47 127.743 180.058 134.343 177.176 138.671C174.294 142.999 171.334 144.625 169.188 144.362C167.042 144.099 164.561 141.807 162.81 136.911C161.058 132.015 160.311 125.028 161.234 117.493C162.157 109.958 164.569 103.358 167.451 99.0295C169.408 96.6217 172.408 93.1045 175.439 93.3385ZM38.7391 94.7385C36.3004 98.0756 33.2801 101.485 29.7113 104.795C24.9809 109.182 19.2957 113.321 12.8371 116.596C27.3297 119.535 43.116 125.731 57.841 133.234C74.3746 141.66 89.3941 151.664 99.55 161.025L100.454 151.382C96.0055 146.447 91.2641 142.074 86.4426 138.003C81.6957 136.049 76.85 133.236 72.0688 129.928C57.8613 120.098 44.382 106.132 38.7391 94.7385V94.7385ZM173.341 99.1432C173.355 107.543 174.519 116.93 177.158 124.39C179.787 116.677 179.9 102.81 173.341 99.1432V99.1432ZM119.592 120.405C118.64 122.589 117.632 124.748 116.569 126.879C119.432 128.997 121.075 131.017 122 132.936C123.218 135.463 123.363 138.044 122.85 141.254C121.975 146.724 118.861 153.548 117.256 161.656C113.721 166.606 116.645 183.548 124.391 185.46C141.843 189.769 151.621 171.515 147.678 167.212C143.843 163.027 132.991 159.503 125.053 159.418C126.634 153.663 128.877 148.096 129.793 142.365C130.444 138.298 130.311 133.984 128.334 129.883C126.672 126.435 123.812 123.298 119.592 120.405V120.405ZM13.0004 123.846C11.1445 126.696 9.11875 129.895 7.03125 133.383V192.969H106.7C105.559 187.453 104.509 181.758 103.277 176.317C103.023 174.101 101.219 172.765 99.7383 171.116C91.1613 161.562 73.8289 149.272 54.6477 139.498C40.9133 132.499 26.1555 126.754 13.0004 123.846V123.846Z" fill="#5B5B5B"/>
</svg>
