<?xml version="1.0" encoding="utf-8"?>
<!-- Uploaded to SVGRepo https://www.svgrepo.com -->
<svg version="1.2" baseProfile="tiny" id="Layer_1" xmlns="http://www.w3.org/2000/svg" xmlns:xlink="http://www.w3.org/1999/xlink"
	 x="0px" y="0px" viewBox="-355 153 248 256" xml:space="preserve">
<path id="Man" d="M-267.6,206.2c14.4,0,24.7,11.8,26.7,18.3l17.6,57.8c3.6,12.4-12.4,17.6-16.2,5.4l-16-53.1h-8.8l26.5,94.3H-263
	v70.6c0,12.6-18.9,12.6-18.9,0v-71.2h-9.6v71c0,12.8-18.9,12.8-18.9,0v-70.2h-25.4l26.3-94.3h-8.8L-334,288
	c-3.8,11.6-19.7,6.8-16.2-5.6l17.6-57.8c1.8-6.6,10.2-18.3,24.7-18.3C-307.9,206.2-267.6,206.2-267.6,206.2z M-286.7,201.9
	c11.4,0,20.5-9.2,20.5-20.5c0-11.3-9.1-20.6-20.5-20.6c-11.4,0-20.3,9.2-20.3,20.5S-298.1,201.9-286.7,201.9 M-165.3,156.5
	c11.5,0,20.8,9.3,20.8,20.8c0,11.5-9.3,20.8-20.8,20.8s-20.8-9.3-20.8-20.8C-186.1,165.8-176.8,156.5-165.3,156.5z M-139,203.5h-52
	c-14.4,0-26,11.6-26,26v63.7c0,5,4,9.2,9.2,9.2s9.2-4,9.2-9.2v-58.4c0-1.4,1.2-2.6,2.6-2.6s2.6,1.2,2.6,2.6v157.9
	c0,7.8,5.8,14.2,13,14.2s13-6.4,13-14.2v-90.1c0-1.4,1.2-2.6,2.6-2.6s2.6,1.2,2.6,2.6v90.1c0,7.8,5.8,14.2,13,14.2s13-6.4,13-14.2
	V234.8c0-1.4,1.2-2.6,2.6-2.6s2.6,1.2,2.6,2.6v58.7c0,5,4,9.2,9.2,9.2s9.2-4,9.2-9.2v-63.9C-113,215.2-124.8,203.5-139,203.5z"/>
</svg>
