<svg width="50" height="50" viewBox="0 0 50 50" fill="none" xmlns="http://www.w3.org/2000/svg">
<g clip-path="url(#clip0)">
<path d="M49.0153 49.015C47.7018 50.3274 45.5727 50.3274 44.2592 49.015L33.8629 38.6188C32.8586 37.6144 32.6226 36.1333 33.1536 34.9047C33.3165 34.5259 33.5537 34.1706 33.8629 33.8614C34.1721 33.5522 34.5274 33.3162 34.9062 33.1521C35.3311 32.968 35.7855 32.876 36.241 32.876C37.1014 32.876 37.9617 33.2052 38.6191 33.8614L49.0153 44.2577C50.3289 45.5712 50.3289 47.7015 49.0153 49.015Z" fill="black"/>
<path d="M17.0849 26.8373L25.3934 17.0488L32.4934 25.63C29.884 30.7272 24.579 34.2146 18.461 34.2146C16.1572 34.2146 13.9692 33.7201 11.9971 32.8315L17.0849 26.8373Z" fill="black"/>
<path d="M11.3244 19.877L17.0849 26.8377L11.9971 32.8318C9.26612 31.6033 6.94942 29.6182 5.3125 27.1434H5.31368L11.3244 19.877Z" fill="black"/>
<path d="M13.524 8.64648C14.8694 8.64648 15.9611 9.73698 15.9611 11.0836C15.9611 12.429 14.8694 13.5207 13.524 13.5207C12.1774 13.5207 11.0869 12.429 11.0869 11.0836C11.0869 9.73698 12.1774 8.64648 13.524 8.64648Z" fill="black"/>
<path d="M31.5198 5.40037C25.5504 -0.569009 16.476 -1.58987 9.44562 2.33897C7.99517 3.14976 6.63206 4.16944 5.40112 5.40037C-1.80037 12.6019 -1.80037 24.3188 5.40112 31.5202C12.3076 38.4267 23.3683 38.7088 30.6146 32.3676C30.9238 32.0974 31.226 31.8141 31.5198 31.5202C31.8149 31.2252 32.0969 30.9231 32.3672 30.6139C33.0411 29.8432 33.6406 29.0301 34.1646 28.1839C38.575 21.0638 37.6922 11.5727 31.5198 5.40037ZM32.4935 25.6299C31.986 26.6213 31.377 27.5513 30.6783 28.4069C27.7904 31.9522 23.3895 34.2146 18.4611 34.2146C16.1573 34.2146 13.9693 33.7201 11.9972 32.8314C9.26623 31.6029 6.94953 29.6178 5.31261 27.1429C3.66507 24.6539 2.70558 21.6692 2.70558 18.4603C2.70558 13.2793 5.20639 8.68247 9.06678 5.81226C11.6903 3.86023 14.9406 2.70601 18.4611 2.70601C27.1614 2.70601 34.2154 9.7588 34.2154 18.4603C34.2154 21.0426 33.5946 23.4796 32.4935 25.6299Z" fill="black"/>
</g>
<defs>
<clipPath id="clip0">
<rect width="50" height="50" fill="white"/>
</clipPath>
</defs>
</svg>
