<svg width="292" height="124" viewBox="0 0 292 124" fill="none" xmlns="http://www.w3.org/2000/svg">
<path d="M58.0075 118.24C57.3355 118.24 56.6635 118.192 55.9915 118.096C55.3195 118 54.7915 117.888 54.4075 117.76V116.68H57.5275C58.8715 116.68 59.8235 116.44 60.3835 115.96C60.9595 115.48 61.2475 114.72 61.2475 113.68C61.2475 113.088 61.1195 112.6 60.8635 112.216C60.6075 111.816 60.2875 111.496 59.9035 111.256C59.5195 111.016 58.9835 110.736 58.2955 110.416C57.4635 110.048 56.7835 109.688 56.2555 109.336C55.7435 108.984 55.3035 108.48 54.9355 107.824C54.5835 107.168 54.4075 106.32 54.4075 105.28C54.4075 103.824 54.7755 102.744 55.5115 102.04C56.2635 101.32 57.4155 100.96 58.9675 100.96C59.6395 100.96 60.3115 101.008 60.9835 101.104C61.6555 101.2 62.1835 101.312 62.5675 101.44V102.52H59.4475C58.4875 102.52 57.7675 102.752 57.2875 103.216C56.8075 103.68 56.5675 104.368 56.5675 105.28C56.5675 105.92 56.7035 106.456 56.9755 106.888C57.2475 107.304 57.5835 107.64 57.9835 107.896C58.3995 108.152 58.9515 108.44 59.6395 108.76C60.4715 109.16 61.1275 109.528 61.6075 109.864C62.1035 110.2 62.5275 110.68 62.8795 111.304C63.2315 111.912 63.4075 112.704 63.4075 113.68C63.4075 115.264 62.9915 116.424 62.1595 117.16C61.3435 117.88 59.9595 118.24 58.0075 118.24ZM68.935 118.24C67.751 118.24 66.855 117.968 66.247 117.424C65.639 116.864 65.335 115.856 65.335 114.4C65.335 112.992 65.639 112.024 66.247 111.496C66.855 110.952 67.751 110.68 68.935 110.68C69.575 110.68 70.375 110.76 71.335 110.92V109.84C71.335 108.816 71.119 108.12 70.687 107.752C70.271 107.384 69.607 107.2 68.695 107.2H66.295V106.24C66.679 106.112 67.143 106 67.687 105.904C68.231 105.808 68.727 105.76 69.175 105.76C70.199 105.76 71.015 105.872 71.623 106.096C72.247 106.32 72.711 106.728 73.015 107.32C73.335 107.896 73.495 108.736 73.495 109.84V118H71.695L71.575 117.28H71.455C71.151 117.584 70.775 117.824 70.327 118C69.879 118.16 69.415 118.24 68.935 118.24ZM69.655 116.8C69.943 116.8 70.247 116.752 70.567 116.656C70.887 116.56 71.143 116.448 71.335 116.32V112.12H69.655C68.983 112.12 68.455 112.296 68.071 112.648C67.687 112.984 67.495 113.568 67.495 114.4C67.495 115.296 67.687 115.92 68.071 116.272C68.455 116.624 68.983 116.8 69.655 116.8ZM78.6597 118L75.4197 106H77.4597L80.1717 115.96H80.2677L82.9797 106H85.0197L81.7797 118H78.6597ZM91.2578 118.24C90.0258 118.24 89.0418 118.056 88.3058 117.688C87.5858 117.304 87.0578 116.664 86.7218 115.768C86.3858 114.856 86.2178 113.6 86.2178 112C86.2178 110.432 86.3698 109.192 86.6738 108.28C86.9938 107.368 87.4578 106.72 88.0658 106.336C88.6738 105.952 89.4578 105.76 90.4178 105.76C91.3778 105.76 92.1618 105.952 92.7698 106.336C93.3778 106.72 93.8338 107.368 94.1378 108.28C94.4578 109.192 94.6178 110.432 94.6178 112V112.72H88.3778C88.3778 113.76 88.4898 114.576 88.7138 115.168C88.9378 115.76 89.2898 116.184 89.7698 116.44C90.2658 116.68 90.9218 116.8 91.7378 116.8H94.1378V117.76C93.7538 117.888 93.2898 118 92.7458 118.096C92.2018 118.192 91.7058 118.24 91.2578 118.24ZM92.4578 111.28C92.4578 109.776 92.2658 108.704 91.8818 108.064C91.5138 107.408 91.0258 107.08 90.4178 107.08C89.8098 107.08 89.3138 107.408 88.9298 108.064C88.5618 108.704 88.3778 109.776 88.3778 111.28H92.4578ZM106.028 118V112.72L101.948 101.2H104.108L107.108 109.72L110.108 101.2H112.268L108.188 112.72V118H106.028ZM117.072 118.24C115.568 118.24 114.448 117.768 113.712 116.824C112.992 115.864 112.632 114.256 112.632 112C112.632 109.744 112.992 108.144 113.712 107.2C114.448 106.24 115.568 105.76 117.072 105.76C118.576 105.76 119.688 106.24 120.408 107.2C121.144 108.144 121.512 109.744 121.512 112C121.512 114.256 121.144 115.864 120.408 116.824C119.688 117.768 118.576 118.24 117.072 118.24ZM117.072 116.92C117.744 116.92 118.288 116.544 118.704 115.792C119.136 115.04 119.352 113.776 119.352 112C119.352 110.224 119.136 108.96 118.704 108.208C118.288 107.456 117.744 107.08 117.072 107.08C116.4 107.08 115.848 107.456 115.416 108.208C115 108.96 114.792 110.224 114.792 112C114.792 113.776 115 115.04 115.416 115.792C115.848 116.544 116.4 116.92 117.072 116.92ZM127.871 118.24C126.639 118.24 125.711 117.984 125.087 117.472C124.463 116.944 124.151 116 124.151 114.64V106H126.311V114.64C126.311 115.424 126.511 115.984 126.911 116.32C127.311 116.64 127.871 116.8 128.591 116.8C128.879 116.8 129.183 116.752 129.503 116.656C129.823 116.56 130.079 116.448 130.271 116.32V106H132.431V118H130.631L130.511 117.28H130.391C130.087 117.584 129.711 117.824 129.263 118C128.815 118.16 128.351 118.24 127.871 118.24ZM135.542 106H137.366L137.486 106.96H137.606C138.374 106.32 139.366 106 140.582 106H141.782V107.8H139.382C138.694 107.8 138.134 107.96 137.702 108.28V118H135.542V106ZM149.341 118L150.301 101.2H152.941L156.853 112.72H156.949L160.861 101.2H163.501L164.461 118H162.301L161.581 105.52H161.461L157.981 115.84H155.821L152.341 105.52H152.221L151.501 118H149.341ZM171.906 118.24C170.674 118.24 169.69 118.056 168.954 117.688C168.234 117.304 167.706 116.664 167.37 115.768C167.034 114.856 166.866 113.6 166.866 112C166.866 110.432 167.018 109.192 167.322 108.28C167.642 107.368 168.106 106.72 168.714 106.336C169.322 105.952 170.106 105.76 171.066 105.76C172.026 105.76 172.81 105.952 173.418 106.336C174.026 106.72 174.482 107.368 174.786 108.28C175.106 109.192 175.266 110.432 175.266 112V112.72H169.026C169.026 113.76 169.138 114.576 169.362 115.168C169.586 115.76 169.938 116.184 170.418 116.44C170.914 116.68 171.57 116.8 172.386 116.8H174.786V117.76C174.402 117.888 173.938 118 173.394 118.096C172.85 118.192 172.354 118.24 171.906 118.24ZM173.106 111.28C173.106 109.776 172.914 108.704 172.53 108.064C172.162 107.408 171.674 107.08 171.066 107.08C170.458 107.08 169.962 107.408 169.578 108.064C169.21 108.704 169.026 109.776 169.026 111.28H173.106ZM177.917 106H179.717L179.837 106.72H179.957C180.277 106.4 180.629 106.16 181.013 106C181.397 105.84 181.845 105.76 182.357 105.76C183.589 105.76 184.485 106.112 185.045 106.816C185.413 106.496 185.877 106.24 186.437 106.048C187.013 105.856 187.533 105.76 187.997 105.76C189.069 105.76 189.893 106.024 190.469 106.552C191.061 107.08 191.357 108.016 191.357 109.36V118H189.197V109.36C189.197 108.592 189.013 108.04 188.645 107.704C188.293 107.368 187.837 107.2 187.277 107.2C186.941 107.2 186.605 107.248 186.269 107.344C185.933 107.44 185.669 107.552 185.477 107.68C185.637 108.16 185.717 108.72 185.717 109.36V118H183.557V109.36C183.557 108.592 183.373 108.04 183.005 107.704C182.653 107.368 182.197 107.2 181.637 107.2C181.365 107.2 181.085 107.248 180.797 107.344C180.509 107.44 180.269 107.552 180.077 107.68V118H177.917V106ZM198.447 118.24C196.943 118.24 195.823 117.768 195.087 116.824C194.367 115.864 194.007 114.256 194.007 112C194.007 109.744 194.367 108.144 195.087 107.2C195.823 106.24 196.943 105.76 198.447 105.76C199.951 105.76 201.063 106.24 201.783 107.2C202.519 108.144 202.887 109.744 202.887 112C202.887 114.256 202.519 115.864 201.783 116.824C201.063 117.768 199.951 118.24 198.447 118.24ZM198.447 116.92C199.119 116.92 199.663 116.544 200.079 115.792C200.511 115.04 200.727 113.776 200.727 112C200.727 110.224 200.511 108.96 200.079 108.208C199.663 107.456 199.119 107.08 198.447 107.08C197.775 107.08 197.223 107.456 196.791 108.208C196.375 108.96 196.167 110.224 196.167 112C196.167 113.776 196.375 115.04 196.791 115.792C197.223 116.544 197.775 116.92 198.447 116.92ZM205.526 106H207.35L207.47 106.96H207.59C208.358 106.32 209.35 106 210.566 106H211.766V107.8H209.366C208.678 107.8 208.118 107.96 207.686 108.28V118H205.526V106ZM213.685 104.32V101.68H215.845V104.32H213.685ZM213.685 118V106H215.845V118H213.685ZM223.656 118.24C222.424 118.24 221.44 118.056 220.704 117.688C219.984 117.304 219.456 116.664 219.12 115.768C218.784 114.856 218.616 113.6 218.616 112C218.616 110.432 218.768 109.192 219.072 108.28C219.392 107.368 219.856 106.72 220.464 106.336C221.072 105.952 221.856 105.76 222.816 105.76C223.776 105.76 224.56 105.952 225.168 106.336C225.776 106.72 226.232 107.368 226.536 108.28C226.856 109.192 227.016 110.432 227.016 112V112.72H220.776C220.776 113.76 220.888 114.576 221.112 115.168C221.336 115.76 221.688 116.184 222.168 116.44C222.664 116.68 223.32 116.8 224.136 116.8H226.536V117.76C226.152 117.888 225.688 118 225.144 118.096C224.6 118.192 224.104 118.24 223.656 118.24ZM224.856 111.28C224.856 109.776 224.664 108.704 224.28 108.064C223.912 107.408 223.424 107.08 222.816 107.08C222.208 107.08 221.712 107.408 221.328 108.064C220.96 108.704 220.776 109.776 220.776 111.28H224.856ZM231.947 118.24C231.499 118.24 231.003 118.192 230.459 118.096C229.915 118 229.451 117.888 229.067 117.76V116.8H231.467C232.571 116.8 233.363 116.656 233.843 116.368C234.339 116.08 234.587 115.584 234.587 114.88C234.587 114.304 234.387 113.864 233.987 113.56C233.603 113.24 233.003 112.92 232.187 112.6C231.483 112.296 230.915 112.024 230.483 111.784C230.067 111.528 229.707 111.168 229.403 110.704C229.099 110.224 228.947 109.616 228.947 108.88C228.947 107.712 229.291 106.904 229.979 106.456C230.667 105.992 231.763 105.76 233.267 105.76C233.715 105.76 234.211 105.808 234.755 105.904C235.299 106 235.763 106.112 236.147 106.24V107.2H233.747C232.883 107.2 232.227 107.336 231.779 107.608C231.331 107.864 231.107 108.288 231.107 108.88C231.107 109.456 231.299 109.904 231.683 110.224C232.083 110.528 232.691 110.84 233.507 111.16C234.211 111.464 234.771 111.744 235.187 112C235.619 112.24 235.987 112.6 236.291 113.08C236.595 113.544 236.747 114.144 236.747 114.88C236.747 115.76 236.579 116.44 236.243 116.92C235.923 117.4 235.419 117.744 234.731 117.952C234.043 118.144 233.115 118.24 231.947 118.24Z" fill="#5B5B5B"/>
<path d="M57.4321 64.568C55.0855 64.568 53.4641 64.0987 52.5681 63.16C51.6721 62.264 51.2028 61.0907 51.1601 59.64C51.1601 58.4027 51.3948 56.9307 51.8641 55.224C52.3761 53.4747 52.8881 51.8107 53.4001 50.232C54.7655 46.1787 56.1948 42.232 57.6881 38.392C59.2241 34.552 60.7175 30.9253 62.1681 27.512C63.6615 24.056 64.9841 20.92 66.1361 18.104C63.2348 18.1467 60.7175 18.232 58.5841 18.36C56.4935 18.488 54.5735 18.6587 52.8241 18.872C51.0748 19.0427 49.2615 19.2987 47.3841 19.64C47.5975 17.848 48.4295 16.4827 49.8801 15.544C51.3735 14.5627 53.3575 13.88 55.8321 13.496C58.3068 13.112 61.1441 12.92 64.3441 12.92C66.8615 12.92 69.1441 13.0053 71.1921 13.176C73.2828 13.304 75.2881 13.4747 77.2081 13.688C79.8961 13.944 82.0295 14.1147 83.6081 14.2C85.2295 14.2853 86.3815 14.328 87.0641 14.328C85.7841 15.5227 84.1628 16.3973 82.2001 16.952C80.2801 17.464 78.2535 17.784 76.1201 17.912C73.9868 18.04 71.9601 18.104 70.0401 18.104C67.9921 23.1387 66.1148 28.3653 64.4081 33.784C62.7015 39.2027 61.1228 44.5573 59.6721 49.848C59.1175 51.896 58.6481 53.6453 58.2641 55.096C57.9228 56.504 57.6668 57.8053 57.4961 59C57.3255 60.152 57.2401 61.3893 57.2401 62.712C57.2401 62.9253 57.2401 63.16 57.2401 63.416C57.2828 63.7147 57.3468 64.0987 57.4321 64.568ZM82.7351 60.664C81.1565 60.664 79.8765 60.2373 78.8951 59.384C77.9138 58.5733 77.4231 57.464 77.4231 56.056C77.4231 54.8613 77.7218 53.5813 78.3191 52.216C78.9165 50.8507 79.5138 49.5067 80.1111 48.184C80.7511 46.8613 81.0711 45.688 81.0711 44.664C81.0711 43.6827 80.7511 42.872 80.1111 42.232C79.4711 41.5493 78.7245 40.9947 77.8711 40.568C76.9325 42.9147 75.8658 45.1973 74.6711 47.416C73.5191 49.592 72.5805 51.2987 71.8551 52.536L70.8951 50.68C71.4925 49.5707 72.2818 47.992 73.2631 45.944C74.2445 43.896 75.1831 41.6133 76.0791 39.096C75.6525 38.6693 75.4391 38.0933 75.4391 37.368C75.4391 36.2587 75.7805 35.2133 76.4631 34.232C77.1458 33.2507 77.8071 32.76 78.4471 32.76C78.9591 32.76 79.3218 33.0587 79.5351 33.656C79.7911 34.2107 79.9191 34.5947 79.9191 34.808C79.9191 35.0213 79.8125 35.4053 79.5991 35.96C79.4285 36.5147 79.3005 36.92 79.2151 37.176C79.2578 37.6453 79.6205 38.1147 80.3031 38.584C81.0285 39.0107 81.8391 39.5227 82.7351 40.12C83.6311 40.7173 84.4205 41.464 85.1031 42.36C85.7858 43.256 86.1271 44.3867 86.1271 45.752C86.1271 46.9893 85.8498 48.248 85.2951 49.528C84.7405 50.808 84.1858 52.0027 83.6311 53.112C83.0765 54.2213 82.7991 55.1813 82.7991 55.992C82.7991 56.5893 82.9485 56.9947 83.2471 57.208C83.5885 57.3787 83.9725 57.464 84.3991 57.464C85.4231 57.464 86.4898 57.1653 87.5991 56.568C88.7085 55.928 89.7965 55.1173 90.8631 54.136C91.9298 53.1547 92.8685 52.1307 93.6791 51.064C94.4898 49.9547 95.1085 48.952 95.5351 48.056L97.0711 49.208C96.2605 51.0427 95.0871 52.856 93.5511 54.648C92.0151 56.3973 90.3085 57.848 88.4311 59C86.5538 60.1093 84.6551 60.664 82.7351 60.664ZM97.7291 62.008C96.3211 62.008 95.1051 61.5387 94.0811 60.6C93.0145 59.6613 92.4811 58.2533 92.4811 56.376C92.4811 54.8827 92.8225 53.2613 93.5051 51.512C94.1878 49.7627 95.1265 48.0347 96.3211 46.328C97.5158 44.6213 98.8811 43.0853 100.417 41.72C101.953 40.312 103.596 39.1813 105.345 38.328C107.094 37.4747 108.844 37.048 110.593 37.048C112.428 37.048 113.985 37.5173 115.265 38.456C116.545 39.3947 117.185 40.632 117.185 42.168C117.185 43.32 116.78 44.152 115.969 44.664C115.158 45.176 114.198 45.3253 113.089 45.112C113.174 44.728 113.238 44.344 113.281 43.96C113.366 43.576 113.409 43.1707 113.409 42.744C113.409 41.8907 113.238 41.1227 112.897 40.44C112.556 39.7573 111.83 39.416 110.721 39.416C109.526 39.416 108.31 39.8213 107.073 40.632C105.836 41.4427 104.641 42.5093 103.489 43.832C102.38 45.112 101.377 46.5413 100.481 48.12C99.5851 49.656 98.8811 51.1707 98.3691 52.664C97.8571 54.1573 97.6011 55.5013 97.6011 56.696C97.6011 58.0613 98.0918 58.744 99.0731 58.744C100.054 58.744 101.142 58.2747 102.337 57.336C103.532 56.3547 104.726 55.1387 105.921 53.688C107.158 52.2373 108.332 50.7653 109.441 49.272C110.55 47.736 111.51 46.4347 112.321 45.368C112.449 45.1547 112.62 45.048 112.833 45.048C113.004 45.0907 113.324 45.1973 113.793 45.368C114.305 45.496 114.774 45.7093 115.201 46.008C115.628 46.3067 115.841 46.6907 115.841 47.16C115.841 47.7147 115.542 48.4827 114.945 49.464C114.348 50.4027 113.729 51.4267 113.089 52.536C112.492 53.6453 112.193 54.6693 112.193 55.608C112.193 56.1627 112.342 56.696 112.641 57.208C112.94 57.6773 113.43 57.912 114.113 57.912C115.137 57.912 116.566 57.1653 118.401 55.672C120.278 54.136 122.177 51.5547 124.097 47.928L125.313 49.144C123.734 52.6427 121.772 55.48 119.425 57.656C117.078 59.832 114.71 60.92 112.321 60.92C110.572 60.92 109.27 60.3653 108.417 59.256C107.564 58.1467 107.094 56.952 107.009 55.672V55.352C105.302 57.4 103.724 59.0213 102.273 60.216C100.865 61.4107 99.3505 62.008 97.7291 62.008ZM127.319 61.496C125.74 61.496 124.631 60.7707 123.991 59.32C123.393 57.912 123.095 56.0773 123.095 53.816C123.095 53.3467 123.116 52.5147 123.159 51.32C123.201 50.0827 123.265 48.376 123.351 46.2C123.393 44.92 123.521 44.0453 123.735 43.576C123.991 43.1067 124.673 42.872 125.783 42.872C126.807 42.872 127.404 43.0853 127.575 43.512C127.788 43.896 127.895 44.7067 127.895 45.944C127.895 47.224 127.831 48.5893 127.703 50.04C127.617 51.4907 127.575 52.8987 127.575 54.264C127.575 55.5867 127.639 56.568 127.767 57.208C127.895 57.8053 128.215 58.104 128.727 58.104C129.495 58.104 130.327 57.6987 131.223 56.888C132.119 56.0347 133.015 54.968 133.911 53.688C134.849 52.3653 135.724 50.9573 136.535 49.464C137.388 47.928 138.135 46.456 138.775 45.048C138.86 42.1467 139.201 40.2053 139.799 39.224C140.396 38.2427 141.164 37.752 142.103 37.752C143.169 37.752 143.895 38.0933 144.279 38.776C144.663 39.4587 144.855 40.056 144.855 40.568C144.855 41.208 144.684 41.784 144.343 42.296C144.001 42.808 143.66 43.512 143.319 44.408C142.977 45.304 142.807 46.6693 142.807 48.504C142.807 49.1013 142.849 49.7627 142.935 50.488C143.063 51.1707 143.319 51.768 143.703 52.28C144.129 52.7493 144.748 52.984 145.559 52.984C146.412 52.984 147.223 52.6427 147.991 51.96C148.801 51.2347 149.655 49.9973 150.551 48.248L151.255 48.824C150.273 51.1707 149.164 52.8133 147.927 53.752C146.732 54.6907 145.58 55.16 144.471 55.16C143.063 55.16 141.911 54.6053 141.015 53.496C140.161 52.344 139.5 50.9147 139.031 49.208C138.007 51.128 136.833 53.0267 135.511 54.904C134.231 56.7813 132.887 58.3387 131.479 59.576C130.071 60.856 128.684 61.496 127.319 61.496ZM156.257 61.816C153.526 61.816 151.414 61.0693 149.921 59.576C148.47 58.1253 147.745 56.2907 147.745 54.072C147.745 52.1947 148.214 50.2107 149.153 48.12C150.134 45.9867 151.435 44.0027 153.057 42.168C154.678 40.2907 156.47 38.776 158.433 37.624C160.395 36.472 162.358 35.896 164.321 35.896C165.43 35.896 166.475 36.1947 167.457 36.792C168.481 37.3467 168.993 38.4773 168.993 40.184C168.993 41.8053 168.523 43.32 167.585 44.728C166.646 46.136 165.387 47.3947 163.809 48.504C162.23 49.6133 160.481 50.5307 158.561 51.256C156.683 51.9387 154.785 52.3867 152.865 52.6C152.822 52.7707 152.779 52.9627 152.737 53.176C152.737 53.3467 152.737 53.6453 152.737 54.072C152.737 54.2853 152.758 54.6693 152.801 55.224C152.886 55.736 153.078 56.2907 153.377 56.888C153.675 57.4853 154.166 57.9973 154.849 58.424C155.531 58.8507 156.47 59.064 157.665 59.064C159.457 59.064 161.249 58.5733 163.041 57.592C164.875 56.568 166.582 55.224 168.161 53.56C169.782 51.896 171.126 50.04 172.193 47.992L173.473 49.016C172.321 51.576 170.827 53.816 168.993 55.736C167.201 57.656 165.195 59.1493 162.977 60.216C160.801 61.2827 158.561 61.816 156.257 61.816ZM153.569 50.232C154.678 50.104 155.915 49.72 157.281 49.08C158.646 48.44 159.947 47.6293 161.185 46.648C162.465 45.6667 163.51 44.6 164.321 43.448C165.131 42.2533 165.537 41.0587 165.537 39.864C165.537 39.3947 165.451 39.0747 165.281 38.904C165.11 38.7333 164.833 38.648 164.449 38.648C163.467 38.648 162.443 39.0107 161.377 39.736C160.31 40.4187 159.265 41.336 158.241 42.488C157.217 43.5973 156.299 44.8347 155.489 46.2C154.678 47.5653 154.038 48.9093 153.569 50.232ZM176.149 60.92C174.144 60.92 172.736 60.2587 171.925 58.936C171.157 57.5707 170.773 55.9707 170.773 54.136C170.773 52.0453 171.157 49.592 171.925 46.776C172.693 43.96 173.696 41.016 174.933 37.944C176.213 34.8293 177.6 31.8 179.093 28.856C180.629 25.8693 182.165 23.1813 183.701 20.792C185.237 18.4027 186.645 16.504 187.925 15.096C189.248 13.6453 190.314 12.92 191.125 12.92C191.68 12.92 192.149 13.2187 192.533 13.816C192.917 14.3707 193.216 15.0533 193.429 15.864C193.685 16.632 193.813 17.3573 193.813 18.04C193.813 19.192 193.514 20.7067 192.917 22.584C192.362 24.4187 191.552 26.4453 190.485 28.664C189.461 30.8827 188.224 33.1653 186.773 35.512C185.365 37.816 183.786 40.0133 182.037 42.104C180.33 44.1947 178.496 46.008 176.533 47.544C176.362 48.6107 176.192 49.6773 176.021 50.744C175.893 51.768 175.829 52.7067 175.829 53.56C175.829 55.096 176.085 56.2267 176.597 56.952C177.109 57.6347 177.77 57.976 178.581 57.976C179.648 57.976 180.736 57.4853 181.845 56.504C182.997 55.48 184.085 54.2 185.109 52.664C186.176 51.0853 187.093 49.464 187.861 47.8L189.397 48.632C187.562 52.4293 185.514 55.4373 183.253 57.656C180.992 59.832 178.624 60.92 176.149 60.92ZM177.685 43.576C179.477 41.6133 181.162 39.4373 182.741 37.048C184.32 34.6587 185.706 32.2907 186.901 29.944C188.138 27.5547 189.098 25.4 189.781 23.48C190.464 21.5173 190.826 20.0027 190.869 18.936V18.744C190.528 18.744 189.973 19.2347 189.205 20.216C188.48 21.1547 187.605 22.456 186.581 24.12C185.557 25.784 184.49 27.6827 183.381 29.816C182.314 31.9493 181.269 34.2107 180.245 36.6C179.264 38.9467 178.41 41.272 177.685 43.576ZM199.005 32.056C198.194 32.056 197.447 31.864 196.765 31.48C196.125 31.0533 195.805 30.4133 195.805 29.56C195.805 28.536 196.359 27.6613 197.469 26.936C198.578 26.2107 199.73 25.848 200.925 25.848C201.693 25.848 202.333 26.0187 202.845 26.36C203.399 26.7013 203.677 27.32 203.677 28.216C203.677 29.112 203.186 29.9867 202.205 30.84C201.223 31.6507 200.157 32.056 199.005 32.056ZM191.453 60.92C189.575 60.92 188.167 60.3653 187.229 59.256C186.29 58.1467 185.821 56.8027 185.821 55.224C185.821 54.2427 185.991 53.0053 186.333 51.512C186.674 50.0187 187.143 48.4613 187.741 46.84C188.381 45.176 189.106 43.6187 189.917 42.168C190.727 40.7173 191.602 39.544 192.541 38.648C193.479 37.7093 194.418 37.24 195.357 37.24C195.869 37.24 196.317 37.4107 196.701 37.752C197.085 38.0507 197.277 38.4987 197.277 39.096C197.277 39.6507 196.935 40.4827 196.253 41.592C195.613 42.7013 194.845 43.9813 193.949 45.432C193.095 46.8827 192.327 48.3973 191.645 49.976C191.005 51.512 190.685 52.984 190.685 54.392C190.685 55.7573 190.919 56.6747 191.389 57.144C191.901 57.5707 192.626 57.784 193.565 57.784C195.015 57.784 196.594 57.0587 198.301 55.608C200.007 54.1573 201.778 51.6187 203.613 47.992L204.573 49.016C203.079 52.7707 201.181 55.6933 198.877 57.784C196.573 59.8747 194.098 60.92 191.453 60.92ZM201.894 76.92C201.424 76.92 200.87 76.7707 200.23 76.472C199.547 76.1733 198.971 75.576 198.502 74.68C197.99 73.8267 197.734 72.5253 197.734 70.776C197.734 68.9413 198.054 66.5307 198.694 63.544C199.291 60.6 200.144 57.336 201.254 53.752C202.32 50.1253 203.579 46.4133 205.03 42.616C206.523 38.8187 208.102 35.1707 209.766 31.672C211.472 28.1307 213.222 24.952 215.014 22.136C216.848 19.32 218.662 17.08 220.454 15.416C222.246 13.752 223.974 12.92 225.638 12.92C226.747 12.92 227.472 13.2613 227.814 13.944C228.155 14.584 228.326 15.3307 228.326 16.184C228.326 18.0187 227.814 20.024 226.79 22.2C225.808 24.376 224.486 26.5733 222.822 28.792C221.158 30.968 219.28 33.0373 217.19 35C215.142 36.9627 213.03 38.648 210.854 40.056C210.683 40.4827 210.512 40.9093 210.342 41.336C210.171 41.7627 210 42.1893 209.83 42.616C210.299 42.7867 210.662 43.0853 210.918 43.512C211.216 43.9387 211.387 44.3867 211.43 44.856C211.771 46.6907 212.112 48.3333 212.454 49.784C212.795 51.192 213.307 52.3013 213.99 53.112C214.715 53.9227 215.739 54.328 217.062 54.328C218.555 54.328 219.878 53.7733 221.03 52.664C222.182 51.5547 223.355 49.9973 224.55 47.992L225.958 49.016C224.592 51.7467 223.056 53.752 221.35 55.032C219.643 56.2693 218.107 56.888 216.742 56.888C215.291 56.888 213.776 56.312 212.198 55.16C212.155 57.8053 211.835 60.408 211.238 62.968C210.683 65.5707 209.915 67.9173 208.934 70.008C207.952 72.0987 206.843 73.7627 205.606 75C204.411 76.28 203.174 76.92 201.894 76.92ZM212.71 35.576C215.312 33.144 217.531 30.776 219.366 28.472C221.2 26.168 222.587 24.1413 223.526 22.392C224.507 20.6 224.998 19.3413 224.998 18.616C224.998 18.2747 224.827 18.104 224.486 18.104C223.462 18.104 222.288 18.8933 220.966 20.472C219.643 22.008 218.278 24.0987 216.87 26.744C215.462 29.3893 214.075 32.3333 212.71 35.576ZM203.686 72.952C204.283 72.952 204.923 72.3333 205.606 71.096C206.288 69.8587 206.928 68.3013 207.526 66.424C208.123 64.5467 208.614 62.584 208.998 60.536C209.382 58.5307 209.574 56.7387 209.574 55.16C209.574 53.9227 209.424 52.8347 209.126 51.896C208.87 50.9147 208.4 49.8267 207.718 48.632C206.224 53.0693 205.008 57.208 204.07 61.048C203.131 64.888 202.662 67.9387 202.662 70.2C202.662 72.0347 203.003 72.952 203.686 72.952ZM226.155 76.92C225.088 76.92 224.085 76.5787 223.147 75.896C222.251 75.256 221.803 74.2107 221.803 72.76C221.803 71.3947 222.208 70.1573 223.019 69.048C223.829 67.9813 224.875 66.9787 226.155 66.04C227.435 65.144 228.8 64.312 230.251 63.544C231.744 62.8187 233.173 62.136 234.539 61.496C235.008 60.2587 235.52 58.7013 236.075 56.824C236.672 54.904 237.184 53.1333 237.611 51.512C236.288 53.3467 234.88 54.968 233.387 56.376C231.893 57.784 230.229 58.488 228.395 58.488C227.627 58.488 226.816 58.3387 225.963 58.04C225.109 57.6987 224.384 57.144 223.787 56.376C223.232 55.5653 222.955 54.4987 222.955 53.176C222.955 52.0667 223.147 50.7227 223.531 49.144C223.957 47.5653 224.469 46.0293 225.067 44.536C225.707 43 226.368 41.7413 227.051 40.76C227.733 39.736 228.331 39.224 228.843 39.224C229.099 39.224 229.461 39.3307 229.931 39.544C230.443 39.7147 230.933 39.9707 231.403 40.312C231.872 40.6107 232.171 40.952 232.299 41.336C231.915 41.848 231.488 42.5947 231.019 43.576C230.549 44.5147 230.101 45.5813 229.675 46.776C229.248 47.928 228.885 49.0587 228.587 50.168C228.331 51.2773 228.203 52.2373 228.203 53.048C228.203 53.688 228.331 54.2427 228.587 54.712C228.843 55.1813 229.333 55.416 230.059 55.416C230.997 55.416 231.957 55.032 232.939 54.264C233.963 53.496 234.944 52.5147 235.883 51.32C236.864 50.1253 237.739 48.9093 238.507 47.672C238.592 47.3733 238.677 46.904 238.763 46.264C238.848 45.624 238.997 44.9627 239.211 44.28C239.424 43.5547 239.787 42.8933 240.299 42.296C240.853 41.6987 241.621 41.4 242.603 41.4C242.944 41.4 243.264 41.4213 243.563 41.464C243.861 41.5067 244.224 41.5707 244.651 41.656C244.651 42.296 244.416 43.5547 243.947 45.432C243.52 47.2667 242.944 49.4 242.219 51.832C241.493 54.264 240.683 56.696 239.787 59.128C241.579 58.4027 243.435 57.208 245.355 55.544C247.317 53.8373 248.896 51.4267 250.091 48.312L251.179 49.208C250.539 51.3413 249.557 53.1973 248.235 54.776C246.955 56.3547 245.504 57.6987 243.883 58.808C242.261 59.9173 240.619 60.8347 238.955 61.56C237.803 64.3333 236.544 66.8933 235.179 69.24C233.856 71.5867 232.448 73.4427 230.955 74.808C229.461 76.216 227.861 76.92 226.155 76.92ZM225.515 74.552C226.325 74.552 227.456 73.6987 228.907 71.992C230.357 70.2853 231.829 67.7253 233.323 64.312C231.957 64.9947 230.571 65.784 229.163 66.68C227.797 67.6187 226.645 68.6 225.707 69.624C224.768 70.648 224.299 71.6933 224.299 72.76C224.299 73.1867 224.384 73.592 224.555 73.976C224.768 74.36 225.088 74.552 225.515 74.552Z" fill="black"/>
<path d="M0 83H291" stroke="#0FA3B1" stroke-width="0.5"/>
</svg>
