<svg width="80" height="80" viewBox="0 0 80 80" fill="none" xmlns="http://www.w3.org/2000/svg">
<g clip-path="url(#clip0)">
<path d="M47.0751 40.0001L78.5341 8.54114C80.4886 6.58829 80.4886 3.41971 78.5341 1.46686C76.5796 -0.487652 73.4144 -0.487652 71.4598 1.46686L40.0008 32.9259L8.54016 1.46686C6.58564 -0.487652 3.4204 -0.487652 1.46589 1.46686C-0.488629 3.41971 -0.488629 6.58829 1.46589 8.54114L32.9266 40.0001L1.46589 71.4591C-0.488629 73.412 -0.488629 76.5806 1.46589 78.5334C2.44314 79.509 3.72392 79.9976 5.00302 79.9976C6.28213 79.9976 7.5629 79.509 8.54016 78.5317L40.0008 47.0727L71.4598 78.5317C72.4371 79.509 73.7179 79.9976 74.997 79.9976C76.2761 79.9976 77.5569 79.509 78.5341 78.5317C80.4886 76.5789 80.4886 73.4103 78.5341 71.4575L47.0751 40.0001Z" fill="#F2F7F2"/>
</g>
<defs>
<clipPath id="clip0">
<rect width="80" height="80" fill="white"/>
</clipPath>
</defs>
</svg>
