<svg width="56" height="58" viewBox="0 0 56 58" fill="none" xmlns="http://www.w3.org/2000/svg">
<ellipse cx="27.9091" cy="28.7812" rx="27.9091" ry="28.7812" fill="#075459"/>
<g clip-path="url(#clip0)">
<path d="M27.9087 10.3203C17.7745 10.3203 8.72119 17.0775 8.72119 26.3211C8.72119 29.599 9.90282 32.8177 11.9943 35.3152C12.0822 38.2413 10.3585 42.4402 8.80754 45.4974C12.968 44.7459 18.8826 43.0862 21.564 41.4424C36.332 45.0353 47.0962 35.998 47.0962 26.3211C47.0962 17.0279 37.9805 10.3203 27.9087 10.3203ZM19.9139 28.7083C18.5884 28.7083 17.5155 27.6354 17.5155 26.3099C17.5155 24.9844 18.5884 23.9115 19.9139 23.9115C21.2394 23.9115 22.3123 24.9844 22.3123 26.3099C22.3123 27.6354 21.2394 28.7083 19.9139 28.7083ZM27.9087 28.7083C26.5832 28.7083 25.5103 27.6354 25.5103 26.3099C25.5103 24.9844 26.5832 23.9115 27.9087 23.9115C29.2342 23.9115 30.3071 24.9844 30.3071 26.3099C30.3071 27.6354 29.2342 28.7083 27.9087 28.7083ZM35.9035 28.7083C34.5795 28.7083 33.505 27.6354 33.505 26.3099C33.505 24.9844 34.5795 23.9115 35.9035 23.9115C37.229 23.9115 38.3019 24.9844 38.3019 26.3099C38.3019 27.6354 37.229 28.7083 35.9035 28.7083Z" fill="#F2F7F2"/>
<path d="M41.3051 22.327C45.0044 22.327 48.0033 19.3282 48.0033 15.6288C48.0033 11.9295 45.0044 8.93066 41.3051 8.93066C37.6059 8.93066 34.6069 11.9295 34.6069 15.6288C34.6069 19.3282 37.6059 22.327 41.3051 22.327Z" fill="#D92A2A" stroke="#F2F7F2" stroke-width="0.5"/>
<path d="M39.0723 14.2339L41.305 12.2803V20.0948" stroke="#F2F7F2" stroke-width="0.5" stroke-linecap="round" stroke-linejoin="round"/>
</g>
<defs>
<clipPath id="clip0">
<rect width="41.8636" height="41.8636" fill="white" transform="translate(6.97705 8.72168)"/>
</clipPath>
</defs>
</svg>
