<svg width="56" height="58" viewBox="0 0 56 58" fill="none" xmlns="http://www.w3.org/2000/svg">
<ellipse cx="27.91" cy="28.78" rx="27.91" ry="28.78" fill="#075459"/>
<g clip-path="url(#clip0)">
<path d="M27.9098 10.4658C17.7753 10.4658 8.72168 17.2238 8.72168 26.4685C8.72168 29.7468 9.90335 32.9659 11.9949 35.4638C12.0828 38.3902 10.3591 42.5896 8.80803 45.6472C12.9687 44.8956 18.8834 43.2357 21.5649 41.5917C36.3334 45.185 47.0979 36.1466 47.0979 26.4685C47.0979 17.1743 37.982 10.4658 27.9098 10.4658ZM19.9148 28.8561C18.5892 28.8561 17.5162 27.7831 17.5162 26.4574C17.5162 25.1317 18.5892 24.0586 19.9148 24.0586C21.2403 24.0586 22.3133 25.1317 22.3133 26.4574C22.3133 27.7831 21.2403 28.8561 19.9148 28.8561ZM27.9098 28.8561C26.5842 28.8561 25.5113 27.7831 25.5113 26.4574C25.5113 25.1317 26.5842 24.0586 27.9098 24.0586C29.2354 24.0586 30.3083 25.1317 30.3083 26.4574C30.3083 27.7831 29.2354 28.8561 27.9098 28.8561ZM35.9049 28.8561C34.5809 28.8561 33.5063 27.7831 33.5063 26.4574C33.5063 25.1317 34.5809 24.0586 35.9049 24.0586C37.2304 24.0586 38.3034 25.1317 38.3034 26.4574C38.3034 27.7831 37.2304 28.8561 35.9049 28.8561Z" fill="#F2F7F2"/>
</g>
<defs>
<clipPath id="clip0">
<rect width="38.3763" height="35.1814" fill="white" transform="translate(8.72168 10.4658)"/>
</clipPath>
</defs>
</svg>
