<svg width="59" height="60" viewBox="0 0 59 60" fill="none" xmlns="http://www.w3.org/2000/svg">
<g filter="url(#filter0_d)">
<ellipse cx="29.09" cy="25.875" rx="25.09" ry="25.875" fill="#12BFCE"/>
</g>
<g clip-path="url(#clip0)">
<path d="M44.4543 27.5452C43.6008 27.5452 42.9089 28.2372 42.9089 29.0907C42.9089 29.9429 42.2156 30.6362 41.3634 30.6362C40.5111 30.6362 39.8179 29.9429 39.8179 29.0907C39.8179 28.2386 40.5111 27.5452 41.3634 27.5452C42.2169 27.5452 42.9089 26.8534 42.9089 25.9997V16.7271C42.9089 15.8737 42.2169 15.1816 41.3634 15.1816C40.5099 15.1816 39.8179 15.8737 39.8179 16.7271V24.7201C38.0191 25.3581 36.7271 27.0759 36.7271 29.0906C36.7271 31.6471 38.8068 33.727 41.3634 33.727C43.9198 33.727 45.9998 31.6471 45.9998 29.0906C45.9998 28.2372 45.3079 27.5452 44.4543 27.5452Z" fill="#5B5B5B"/>
<path d="M44.997 15.2802L28.5122 9.09841C28.3387 9.0334 28.1549 9 27.9696 9H17.6666C17.1499 9 16.6674 9.25832 16.3808 9.68823L12.2596 15.87C12.0904 16.1239 12 16.4222 12 16.7273V23.9393C12 24.7929 12.692 25.4848 13.5455 25.4848C14.399 25.4848 15.0909 24.793 15.0909 23.9393V18.2727H18.1818V39.9089H17.6666C16.8131 39.9089 16.1211 40.6007 16.1211 41.4544C16.1211 42.3078 16.8131 42.9999 17.6666 42.9999H19.7272H25.9089H27.9695C28.823 42.9999 29.515 42.3078 29.515 41.4544C29.515 40.6008 28.823 39.9089 27.9695 39.9089H27.4543V18.2727H44.4542C45.2014 18.2727 45.8416 17.7382 45.9749 17.0031C46.1084 16.2678 45.6966 15.5426 44.997 15.2802ZM18.4937 12.0909H21.2727V15.1818H19.7272H16.4331L18.4937 12.0909ZM25.909 15.1818H24.3635V12.0909H27.6893L35.9317 15.1818H25.909Z" fill="#F2F7F2"/>
<path d="M44.9968 15.2802L28.512 9.09841C28.3385 9.0334 28.1547 9 27.9693 9H22.8179V42.9998H25.9087H27.9693C28.8229 42.9998 29.5148 42.3078 29.5148 41.4543C29.5148 40.6007 28.8229 39.9089 27.9693 39.9089H27.4542V18.2727H44.454C45.2012 18.2727 45.8414 17.7382 45.9747 17.0031C46.1081 16.2678 45.6963 15.5426 44.9968 15.2802ZM25.9087 15.1818H24.3633V12.0909H27.6891L35.9314 15.1818H25.9087Z" fill="#F2F7F2"/>
</g>
<defs>
<filter id="filter0_d" x="0" y="0" width="58.18" height="59.75" filterUnits="userSpaceOnUse" color-interpolation-filters="sRGB">
<feFlood flood-opacity="0" result="BackgroundImageFix"/>
<feColorMatrix in="SourceAlpha" type="matrix" values="0 0 0 0 0 0 0 0 0 0 0 0 0 0 0 0 0 0 127 0" result="hardAlpha"/>
<feOffset dy="4"/>
<feGaussianBlur stdDeviation="2"/>
<feColorMatrix type="matrix" values="0 0 0 0 0 0 0 0 0 0 0 0 0 0 0 0 0 0 0.25 0"/>
<feBlend mode="normal" in2="BackgroundImageFix" result="effect1_dropShadow"/>
<feBlend mode="normal" in="SourceGraphic" in2="effect1_dropShadow" result="shape"/>
</filter>
<clipPath id="clip0">
<rect width="34" height="34" fill="white" transform="translate(12 9)"/>
</clipPath>
</defs>
</svg>
