<svg width="599" height="200" viewBox="0 0 599 200" fill="none" xmlns="http://www.w3.org/2000/svg">
<g clip-path="url(#clip0)">
<path d="M102.203 129.236C84.1703 129.236 69.498 143.885 69.498 161.889C69.498 164.147 71.3254 165.971 73.5862 165.971C75.8469 165.971 77.6743 164.147 77.6743 161.889C77.6743 148.383 88.6754 137.4 102.203 137.4C115.731 137.4 126.732 148.383 126.732 161.889C126.732 164.147 128.559 165.971 130.82 165.971C133.081 165.971 134.908 164.147 134.908 161.889C134.908 143.881 120.236 129.236 102.203 129.236Z" fill="#5B5B5B"/>
<path d="M73.5864 116.988C78.102 116.988 81.7626 113.333 81.7626 108.824C81.7626 104.316 78.102 100.661 73.5864 100.661C69.0708 100.661 65.4102 104.316 65.4102 108.824C65.4102 113.333 69.0708 116.988 73.5864 116.988Z" fill="#5B5B5B"/>
<path d="M130.82 116.988C135.335 116.988 138.996 113.333 138.996 108.824C138.996 104.316 135.335 100.661 130.82 100.661C126.304 100.661 122.644 104.316 122.644 108.824C122.644 113.333 126.304 116.988 130.82 116.988Z" fill="#5B5B5B"/>
<path d="M187.6 81.534C187.367 80.3667 187.032 79.2442 186.754 78.0932C186.504 77.0605 186.275 76.0156 185.993 74.9952C185.507 73.2483 184.934 71.5463 184.35 69.8483C184.1 69.1258 183.88 68.3871 183.61 67.6728C182.87 65.6932 182.044 63.7748 181.173 61.8769C180.981 61.4605 180.818 61.032 180.621 60.6197C179.669 58.6197 178.63 56.685 177.539 54.7789C177.347 54.4442 177.179 54.0973 176.987 53.7667C176.03 52.1503 175 50.5952 173.95 49.0524C173.508 48.3993 173.099 47.7299 172.641 47.0891C172.073 46.3054 171.46 45.5626 170.867 44.7993C154.327 23.1911 128.359 9.53809 99.5131 9.53809C65.6266 9.53809 35.7057 29.0075 20.8412 58.3136C20.5673 58.8483 20.273 59.3667 20.0073 59.9095C19.3573 61.2605 18.7767 62.6483 18.1921 64.0401C17.7302 65.1258 17.2519 66.1993 16.8349 67.3095C16.4056 68.4524 16.0377 69.6238 15.6534 70.7871C15.2037 72.1422 14.7459 73.485 14.3575 74.8728C14.0386 76.0075 13.7851 77.1667 13.5112 78.3177C13.2537 79.3952 12.9389 80.4401 12.7222 81.534C5.33909 85.5299 0 94.2197 0 102.705C0 111.493 5.18783 119.395 13.1147 123.028C23.3186 162.84 58.8117 190.461 100.159 190.461C141.51 190.461 177.003 162.84 187.203 123.028C195.134 119.395 200.318 111.497 200.318 102.705C200.318 94.2197 194.979 85.5299 187.6 81.534ZM21.6098 79.5095C21.8837 78.4075 22.1781 77.3177 22.4969 76.236C22.8608 74.9871 23.2491 73.7544 23.6702 72.5381C23.9891 71.6034 24.3284 70.6769 24.68 69.7626C25.2319 68.334 25.8124 66.9258 26.4379 65.5422C26.6995 64.9585 26.9653 64.3789 27.2432 63.8034C40.3416 36.6524 67.8751 19.032 100.159 19.032C125.211 19.032 147.422 29.636 162.237 47.0728C162.241 47.0809 162.249 47.085 162.253 47.0932C163.545 48.6156 164.755 50.2075 165.929 51.832C166.436 52.5422 166.922 53.2646 167.409 53.9911C168.104 55.0197 168.782 56.0646 169.428 57.1299C170.09 58.2279 170.716 59.3463 171.329 60.4769C171.779 61.3095 172.229 62.1422 172.654 62.9952C173.275 64.2483 173.856 65.5299 174.416 66.8197C174.788 67.6769 175.152 68.534 175.495 69.4116C175.99 70.6687 176.439 71.9462 176.868 73.232C177.204 74.236 177.535 75.2483 177.833 76.2728C178.181 77.4646 178.496 78.6728 178.79 79.885C178.941 80.5136 179.072 81.1503 179.211 81.783C162.503 87.1789 150.059 75.1911 142.385 63.7911C140.995 61.7299 138.792 60.3299 136.339 59.9544C133.833 59.5871 131.253 60.2605 129.25 61.8605C91.1978 92.2116 36.1594 84.1422 21.2255 81.2197C21.3563 80.6483 21.4708 80.0728 21.6098 79.5095ZM182.416 116.15C181.075 116.603 180.065 117.722 179.747 119.097C171.129 156.305 138.399 182.297 100.159 182.297C61.9187 182.297 29.1933 156.31 20.5714 119.101C20.2526 117.726 19.2428 116.616 17.906 116.158C12.0845 114.179 8.17624 108.771 8.17624 102.705C8.17624 97.1789 11.9864 91.1544 16.839 88.6483C21.5403 89.7258 36.3638 92.7381 55.2959 92.7381C79.2319 92.7381 109.688 87.9095 134.356 68.232C134.65 67.9911 134.941 67.9911 135.1 68.0156C135.419 68.0646 135.558 68.2728 135.603 68.3381C149.094 88.4075 166.141 95.5952 183.765 88.7911C188.479 91.3871 192.142 97.285 192.142 102.705C192.142 108.775 188.233 114.175 182.416 116.15Z" fill="#5B5B5B"/>
</g>
<path d="M234.925 121.65C232.455 121.65 230.332 121.542 228.555 121.325C226.822 121.152 225.153 120.827 223.55 120.35V76.15C225.153 75.6733 226.822 75.3483 228.555 75.175C230.332 74.9583 232.455 74.85 234.925 74.85C239.692 74.85 243.267 75.9117 245.65 78.035C248.033 80.115 249.225 83.0617 249.225 86.875C249.225 88.8683 248.662 90.7533 247.535 92.53C246.452 94.2633 244.957 95.585 243.05 96.495V96.755C245.65 97.665 247.643 99.16 249.03 101.24C250.46 103.277 251.175 105.747 251.175 108.65C251.175 112.983 249.897 116.233 247.34 118.4C244.783 120.567 240.645 121.65 234.925 121.65ZM234.275 94.675C236.398 94.675 238.067 94.0467 239.28 92.79C240.493 91.49 241.1 89.6267 241.1 87.2C241.1 84.7733 240.493 82.9317 239.28 81.675C238.067 80.375 236.398 79.725 234.275 79.725H231.35V94.675H234.275ZM234.925 116.775C237.698 116.775 239.735 116.103 241.035 114.76C242.378 113.373 243.05 111.228 243.05 108.325C243.05 105.248 242.378 103.017 241.035 101.63C239.735 100.243 237.698 99.55 234.925 99.55H231.35V116.775H234.925ZM257.693 88.5H263.218L264.193 91.1H264.518C266.338 89.3667 268.829 88.5 271.993 88.5H276.218V94.025H269.068C268.331 94.025 267.638 94.155 266.988 94.415C266.338 94.675 265.839 94.9783 265.493 95.325V121H257.693V88.5ZM288.931 121.65C285.811 121.65 283.341 120.892 281.521 119.375C279.744 117.858 278.856 115.15 278.856 111.25C278.856 107.307 279.788 104.598 281.651 103.125C283.514 101.608 286.158 100.85 289.581 100.85C291.098 100.85 292.939 101.067 295.106 101.5V98.9C295.106 96.43 294.543 94.74 293.416 93.83C292.289 92.8767 290.578 92.4 288.281 92.4H281.781V89.15C282.821 88.8033 284.078 88.5 285.551 88.24C287.024 87.98 288.368 87.85 289.581 87.85C292.701 87.85 295.214 88.1533 297.121 88.76C299.028 89.3667 300.458 90.4717 301.411 92.075C302.408 93.6783 302.906 95.9533 302.906 98.9V121H297.381L296.406 119.05H296.081C294.261 120.783 291.878 121.65 288.931 121.65ZM291.531 117.1C292.311 117.1 293.004 116.97 293.611 116.71C294.261 116.45 294.759 116.147 295.106 115.8V105.4H291.531C290.188 105.4 289.039 105.855 288.086 106.765C287.133 107.675 286.656 109.17 286.656 111.25C286.656 113.33 287.133 114.825 288.086 115.735C289.039 116.645 290.188 117.1 291.531 117.1ZM311.655 121V75.5H319.455V102.475L327.255 88.5H335.705L326.93 103.775L336.355 121H327.905L319.455 105.075V121H311.655ZM360.728 121L354.228 88.5H362.028L365.993 111.25H366.253L371.453 95H377.303L382.503 111.25H382.763L386.728 88.5H394.528L388.028 121H379.578L374.508 105.075H374.248L369.178 121H360.728ZM410.153 134.65C408.637 134.65 407.12 134.52 405.603 134.26C404.087 134 402.787 133.697 401.703 133.35V130.1H408.853C411.41 130.1 413.295 129.298 414.508 127.695C415.722 126.135 416.328 123.47 416.328 119.7C414.725 121 412.558 121.65 409.828 121.65C406.708 121.65 404.238 120.892 402.418 119.375C400.642 117.858 399.753 115.15 399.753 111.25V88.5H407.553V111.25C407.553 113.33 408.03 114.825 408.983 115.735C409.98 116.645 411.237 117.1 412.753 117.1C413.533 117.1 414.227 116.97 414.833 116.71C415.483 116.45 415.982 116.147 416.328 115.8V88.5H424.128V118.4C424.128 124.163 423.002 128.302 420.748 130.815C418.495 133.372 414.963 134.65 410.153 134.65ZM432.571 88.5H438.096L439.071 90.45H439.396C441.216 88.7167 443.707 87.85 446.871 87.85C449.991 87.85 452.439 88.6083 454.216 90.125C456.036 91.6417 456.946 94.35 456.946 98.25V121H449.146V98.25C449.146 96.17 448.647 94.675 447.651 93.765C446.697 92.855 445.462 92.4 443.946 92.4C443.209 92.4 442.516 92.53 441.866 92.79C441.216 93.05 440.717 93.3533 440.371 93.7V121H432.571V88.5ZM465.713 84.6V76.8H473.513V84.6H465.713ZM465.713 121V88.5H473.513V121H465.713ZM482.598 121V75.5H490.398V102.475L498.198 88.5H506.648L497.873 103.775L507.298 121H498.848L490.398 105.075V121H482.598ZM519.351 84.6L521.626 76.15H529.101L524.226 84.6H519.351ZM522.276 121.65C517.899 121.65 514.627 120.35 512.461 117.75C510.337 115.107 509.276 110.773 509.276 104.75C509.276 98.7267 510.337 94.415 512.461 91.815C514.627 89.1717 517.899 87.85 522.276 87.85C526.652 87.85 529.902 89.1717 532.026 91.815C534.192 94.415 535.276 98.7267 535.276 104.75C535.276 110.773 534.192 115.107 532.026 117.75C529.902 120.35 526.652 121.65 522.276 121.65ZM522.276 117.425C523.922 117.425 525.201 116.493 526.111 114.63C527.021 112.723 527.476 109.43 527.476 104.75C527.476 100.07 527.021 96.7983 526.111 94.935C525.201 93.0283 523.922 92.075 522.276 92.075C520.629 92.075 519.351 93.0283 518.441 94.935C517.531 96.7983 517.076 100.07 517.076 104.75C517.076 109.43 517.531 112.723 518.441 114.63C519.351 116.493 520.629 117.425 522.276 117.425ZM545.381 121L538.881 88.5H546.681L550.646 111.25H550.906L556.106 95H561.956L567.156 111.25H567.416L571.381 88.5H579.181L572.681 121H564.231L559.161 105.075H558.901L553.831 121H545.381ZM585.382 108.975L584.082 75.5H593.182L591.882 108.975H585.382ZM584.732 121.65V113.85H592.532V121.65H584.732Z" fill="#5B5B5B"/>
<defs>
<clipPath id="clip0">
<rect width="200.318" height="200" fill="white"/>
</clipPath>
</defs>
</svg>
