<svg width="36" height="36" viewBox="0 0 36 36" fill="none" xmlns="http://www.w3.org/2000/svg">
<path d="M4.125 25.5H22.875C23.4963 25.5 24 26.0037 24 26.625C24 27.1945 23.5768 27.6652 23.0277 27.7397L22.875 27.75H4.125C3.50368 27.75 3 27.2463 3 26.625C3 26.0555 3.42323 25.5848 3.97234 25.5103L4.125 25.5H22.875H4.125ZM4.125 19.5H31.875C32.4963 19.5 33 20.0037 33 20.625C33 21.1945 32.5768 21.6652 32.0277 21.7397L31.875 21.75H4.125C3.50368 21.75 3 21.2463 3 20.625C3 20.0555 3.42323 19.5848 3.97234 19.5103L4.125 19.5H31.875H4.125ZM4.125 13.5H31.875C32.4963 13.5 33 14.0037 33 14.625C33 15.1945 32.5768 15.6652 32.0277 15.7397L31.875 15.75H4.125C3.50368 15.75 3 15.2463 3 14.625C3 14.0555 3.42323 13.5848 3.97234 13.5103L4.125 13.5H31.875H4.125ZM4.125 7.5H31.875C32.4963 7.5 33 8.00368 33 8.625C33 9.19454 32.5768 9.66524 32.0277 9.73973L31.875 9.75H4.125C3.50368 9.75 3 9.24632 3 8.625C3 8.05546 3.42323 7.58476 3.97234 7.51027L4.125 7.5H31.875H4.125Z" fill="#075459"/>
</svg>
