<svg width="36" height="36" viewBox="0 0 36 36" fill="none" xmlns="http://www.w3.org/2000/svg">
<path d="M31.2849 24.4476C30.9759 24.1999 30.5245 24.2496 30.2768 24.5588C29.9491 24.9679 29.5946 25.3666 29.2234 25.7441C28.9457 26.0265 28.9495 26.4807 29.2318 26.7583C29.3715 26.8956 29.5531 26.9641 29.7346 26.9641C29.9203 26.9641 30.1057 26.8925 30.246 26.7499C30.6511 26.3379 31.0381 25.9025 31.3961 25.4557C31.6438 25.1465 31.594 24.6953 31.2849 24.4476Z" fill="#075459"/>
<path d="M28.4674 27.4285C28.2282 27.1129 27.7782 27.0509 27.4626 27.2903C24.7507 29.3459 21.4643 30.5373 17.9589 30.7356C17.5634 30.758 17.261 31.0967 17.2834 31.4921C17.305 31.8738 17.6212 32.1688 17.9987 32.1688C18.0124 32.1688 18.0261 32.1684 18.0399 32.1676C21.831 31.9531 25.3889 30.6618 28.3291 28.4333C28.6447 28.194 28.7066 27.7442 28.4674 27.4285Z" fill="#075459"/>
<path d="M35.4906 14.0586C35.4906 14.0586 35.4906 14.0586 35.4905 14.0585C35.0815 12.5023 34.4313 11.0114 33.5576 9.62719C32.3154 7.65914 30.6793 5.97326 28.6949 4.6163C25.5814 2.48752 21.8832 1.3623 18 1.3623C16.9138 1.3623 15.8232 1.45308 14.7584 1.63209C11.7404 2.13947 8.89144 3.36804 6.52001 5.18506C3.03419 7.85588 0.778359 11.5995 0.168047 15.7262C0.0565313 16.4801 0 17.2449 0 17.9998C0 20.9618 0.85282 23.8702 2.46621 26.4104C4.02637 28.8668 6.25697 30.9261 8.91689 32.3657C8.9171 32.3658 8.91731 32.366 8.91752 32.366C10.4267 33.1828 12.0523 33.7894 13.749 34.1692C15.1365 34.4798 16.5667 34.6372 18 34.6372C21.4811 34.6372 24.8588 33.7171 27.7681 31.9764C30.6101 30.2761 32.8703 27.8828 34.3046 25.0558C35.4296 22.8381 36 20.4641 36 17.9998C36 16.6707 35.8286 15.3448 35.4906 14.0586ZM28.9794 6.61563C29.8784 7.34498 30.6833 8.15674 31.3881 9.04458L29.9705 8.71903C29.5159 8.61462 29.0487 8.72515 28.6889 9.02194C28.329 9.3188 28.1319 9.75656 28.1481 10.2229C28.1488 10.2421 28.1392 10.2608 28.1229 10.2713L27.0816 10.9515C27.0641 10.9628 27.0418 10.9635 27.0236 10.9531L25.5568 10.1178C25.4263 10.0434 25.359 9.88931 25.3933 9.74299L25.7233 8.33414C25.7587 8.18325 25.8916 8.07497 26.0465 8.07068L27.2892 8.03609C28.1228 8.01288 28.8166 7.40419 28.9794 6.61563ZM8.90965 29.1175L8.69998 30.5805C4.19344 27.765 1.43423 23.0304 1.43423 17.9998C1.43423 17.5547 1.45589 17.1058 1.49885 16.658L2.45862 16.8131C2.70028 16.8522 2.94722 16.872 3.1924 16.872H3.67854C4.35241 16.872 5.02172 17.0931 5.56306 17.4945L6.29965 18.0405C6.36265 18.0872 6.40371 18.1588 6.41208 18.2368L6.51192 19.1605C6.52802 19.3099 6.42445 19.4456 6.27602 19.4694C5.43853 19.6033 4.81739 20.3439 4.8311 21.1918L4.88355 24.4434C4.88953 24.8128 5.0111 25.1633 5.23526 25.4569L6.40406 26.9883C6.95552 27.711 7.70126 28.2495 8.56062 28.5459C8.79855 28.6279 8.94537 28.8683 8.90965 29.1175ZM13.5297 32.6418C12.3166 32.3305 11.1468 31.8923 10.0407 31.3349L10.3293 29.3212C10.4626 28.3922 9.91526 27.4959 9.02812 27.19C8.4368 26.9861 7.92366 26.6154 7.54418 26.1181L6.37544 24.5868C6.3386 24.5386 6.31863 24.4809 6.31765 24.4202L6.2652 21.1688C6.26295 21.0293 6.36511 20.9076 6.50271 20.8856C7.4058 20.7411 8.03623 19.9157 7.93793 19.0063L7.83809 18.0825C7.78683 17.6079 7.53743 17.1726 7.15388 16.8883L6.41728 16.3422C5.63048 15.759 4.65785 15.4377 3.67854 15.4377H3.1924C3.02365 15.4377 2.85384 15.4241 2.68748 15.3972L1.70789 15.2389C2.40321 11.759 4.40248 8.61427 7.39223 6.32348C9.49957 4.70883 12.0183 3.59782 14.6943 3.09994C15.1002 3.43765 15.4143 3.87077 15.6104 4.36634L15.6511 4.4692C15.7529 4.72648 15.8207 4.99634 15.8524 5.27126L15.8885 5.58415C15.9527 6.14067 15.8676 6.70598 15.6424 7.21891L15.2525 8.10731C14.9972 8.68866 14.5783 9.17487 14.0411 9.51307L13.5552 9.819C13.0629 10.1289 12.7751 10.6824 12.8041 11.2634L12.8698 12.5759C12.8731 12.6429 12.8419 12.6874 12.8152 12.713C12.7885 12.7385 12.7427 12.7674 12.6758 12.7613C12.6167 12.7557 12.5646 12.7211 12.5364 12.6688L11.9396 11.5606C11.733 11.1767 11.3737 10.8894 10.9538 10.7722L8.84468 10.1836C8.29041 10.0289 7.69655 10.0749 7.17272 10.3129L6.67048 10.5413C5.61382 11.0216 5.03634 12.1911 5.29734 13.3219C5.40063 13.7697 5.62711 14.1783 5.95202 14.5032L7.32234 15.8736C7.39962 15.9507 7.47366 16.0331 7.54263 16.1182L8.48208 17.2768C8.89692 17.7885 9.51195 18.0816 10.1705 18.0816C10.1727 18.0816 10.1749 18.0816 10.1772 18.0816L12.7366 18.0738C12.7374 18.0738 12.7381 18.0738 12.7389 18.0738C13.0009 18.0738 13.2455 18.2142 13.3776 18.4406C13.6849 18.9675 14.2032 19.343 14.7997 19.4709L15.7587 19.6763C15.9696 19.7215 16.1497 19.856 16.2529 20.0453L16.7161 20.8944C16.9018 21.2349 17.1827 21.5077 17.5284 21.6834L19.7051 22.7895C19.8841 22.8805 19.9875 23.0754 19.9627 23.2746C19.9483 23.3901 19.8924 23.4961 19.8052 23.5732L18.9784 24.3046C18.7453 24.5107 18.5643 24.7738 18.455 25.0652L18.2747 25.5459C18.2199 25.6923 18.1055 25.8107 17.961 25.8706L17.0803 26.2357C16.3302 26.5467 15.8454 27.2725 15.8454 28.0846C15.8454 28.1758 15.823 28.267 15.7806 28.3479L13.5297 32.6418ZM18 33.203C16.9884 33.203 15.9787 33.1184 14.987 32.951L17.0509 29.0138C17.2005 28.7283 17.2797 28.4069 17.2797 28.0845C17.2797 27.8544 17.4171 27.6486 17.6297 27.5605L18.5104 27.1953C19.0204 26.9838 19.424 26.566 19.6178 26.0493L19.798 25.5689C19.8253 25.4961 19.8705 25.4303 19.9287 25.3788L20.7555 24.6474C21.1043 24.3389 21.3281 23.9145 21.3859 23.4526C21.4857 22.6553 21.0714 21.875 20.355 21.5108L18.1782 20.4048C18.0919 20.3609 18.0217 20.2927 17.9753 20.2076L17.5122 19.3585C17.2087 18.802 16.6791 18.4068 16.0593 18.2739L15.1004 18.0684C14.8975 18.025 14.7211 17.8971 14.6166 17.718C14.2282 17.0523 13.5092 16.6395 12.7389 16.6395C12.7367 16.6395 12.7345 16.6395 12.7323 16.6395L10.1729 16.6473C10.1721 16.6473 10.1714 16.6473 10.1706 16.6473C9.94655 16.6473 9.7373 16.5476 9.59618 16.3736L8.65666 15.2149C8.5564 15.0912 8.44861 14.9716 8.33639 14.8594L6.96614 13.4892C6.83149 13.3546 6.7377 13.1853 6.69488 12.9997C6.58673 12.5309 6.82608 12.0461 7.26398 11.8471L7.76623 11.6188C7.98342 11.5201 8.22952 11.501 8.4593 11.5651L10.5684 12.1538C10.6146 12.1667 10.6541 12.1983 10.6769 12.2406L11.2737 13.3488C11.5295 13.8239 12.0028 14.1379 12.54 14.1891C13.0061 14.2336 13.4679 14.0734 13.8065 13.7497C14.1451 13.4261 14.3258 12.9721 14.3025 12.5042L14.2368 11.1917C14.2336 11.1277 14.2653 11.0668 14.3195 11.0327L14.8054 10.7268C15.5862 10.2352 16.1949 9.52875 16.5659 8.68388L16.9559 7.79548C17.2831 7.05002 17.4068 6.22856 17.3135 5.41969L17.2773 5.1068C17.2313 4.70742 17.1328 4.31529 16.9848 3.94137L16.9441 3.83843C16.8067 3.49123 16.6287 3.16547 16.4157 2.86573H16.4166C16.9428 2.81974 17.472 2.79661 18.0001 2.79661C21.4651 2.79661 24.7676 3.76256 27.5761 5.59378L27.5815 6.25816C27.583 6.4428 27.434 6.59721 27.2494 6.60241L26.0068 6.63701C25.2014 6.65937 24.5107 7.22285 24.327 8.00719L23.997 9.4159C23.8188 10.1764 24.1684 10.9776 24.847 11.3641L26.3138 12.1995C26.544 12.3306 26.7981 12.3958 27.0515 12.3958C27.335 12.3958 27.6178 12.3142 27.8658 12.1523L28.9072 11.4722C29.3411 11.1888 29.5995 10.691 29.5815 10.1732C29.5812 10.1657 29.5805 10.1457 29.6016 10.1283C29.623 10.1108 29.6423 10.1154 29.6494 10.117L31.2578 10.4863C31.2977 10.4955 31.3386 10.5031 31.3796 10.509L32.5166 10.6722C33.011 11.4952 33.4199 12.3569 33.7389 13.2475L32.628 12.979C32.5837 12.9683 32.5384 12.9591 32.4934 12.9518L31.2803 12.7562C29.9632 12.5438 28.6237 12.9911 27.6986 13.9534L27.516 14.1432C26.9749 14.706 26.6088 15.4083 26.4572 16.1741L25.9947 18.5117C25.8334 19.3265 25.923 20.16 26.2536 20.922C26.831 22.2524 28.0846 23.181 29.5253 23.3454L29.7501 23.3711C30.3661 23.4416 31.0005 23.3681 31.5842 23.159L32.3491 22.885C32.4854 22.8361 32.6384 22.8789 32.7299 22.9918L32.8303 23.1158C32.8772 23.1737 32.9041 23.2466 32.9064 23.3209L32.9427 24.5675C30.1961 29.8192 24.3522 33.203 18 33.203ZM33.9285 22.1927L33.8449 22.0893C33.5012 21.6648 32.9891 21.4309 32.4631 21.4309C32.2631 21.4309 32.0611 21.4647 31.8656 21.5347L31.1007 21.8087C30.7226 21.9442 30.3116 21.9917 29.9129 21.9461L29.6883 21.9204C28.7552 21.8139 27.9433 21.2125 27.5695 20.351C27.3552 19.8576 27.2972 19.3178 27.4016 18.7901L27.8641 16.4526C27.9623 15.9566 28.1994 15.5018 28.5499 15.1374L28.7324 14.9475C29.3316 14.3245 30.1989 14.0347 31.052 14.1723L32.2649 14.3679C32.2735 14.3693 32.2822 14.371 32.2908 14.3731L34.2051 14.8357C34.4445 15.8728 34.5657 16.9352 34.5657 17.9997C34.5658 19.4361 34.3521 20.839 33.9285 22.1927Z" fill="#075459"/>
</svg>
