<svg width="36" height="36" viewBox="0 0 36 36" fill="none" xmlns="http://www.w3.org/2000/svg">
<path d="M17.9996 36C24.9171 36 30.545 30.3721 30.545 23.4545C30.545 20.2068 29.3043 17.2433 27.2723 15.0132V9.27273C27.2723 4.15975 23.1125 0 17.9996 0C12.8866 0 8.72694 4.15975 8.72694 9.27273V15.013C6.69479 17.2433 5.4541 20.2068 5.4541 23.4545C5.4541 30.3721 11.082 36 17.9996 36ZM19.6359 23.9985V26.1818C19.6359 27.0855 18.9033 27.8182 17.9996 27.8182C17.0958 27.8182 16.3632 27.0855 16.3632 26.1818V23.9985C15.7012 23.5005 15.2723 22.7086 15.2723 21.8182C15.2723 20.3144 16.4957 19.0909 17.9996 19.0909C19.5034 19.0909 20.7268 20.3144 20.7268 21.8182C20.7268 22.7086 20.2979 23.5005 19.6359 23.9985ZM11.9997 9.27273C11.9997 5.96433 14.6913 3.27273 17.9996 3.27273C21.308 3.27273 23.9996 5.96433 23.9996 9.27273V12.4395C22.2161 11.4641 20.1716 10.9091 17.9996 10.9091C15.8277 10.9091 13.7831 11.4641 11.9997 12.4394V9.27273Z" fill="#075459"/>
</svg>
