<svg width="36" height="36" viewBox="0 0 36 36" fill="none" xmlns="http://www.w3.org/2000/svg">
<path d="M5.76582 7.46758C7.04551 7.46758 8.10019 8.5082 8.10019 9.80195C8.10019 11.0957 7.05957 12.1223 5.76582 12.1223C4.47207 12.1223 3.43145 11.0816 3.43145 9.78789C3.43145 8.49414 4.48613 7.46758 5.76582 7.46758ZM11.9111 7.46758C13.1908 7.46758 14.2455 8.5082 14.2455 9.80195C14.2455 11.0957 13.2049 12.1363 11.9111 12.1363C10.6174 12.1363 9.57676 11.0957 9.57676 9.80195C9.57676 8.5082 10.6314 7.46758 11.9111 7.46758ZM8.74707 1.67383C10.0268 1.67383 11.0814 2.71445 11.0814 4.0082C11.0814 5.30195 10.0408 6.32852 8.74707 6.32852C7.45332 6.32852 6.41269 5.28789 6.41269 3.99414C6.41269 2.70039 7.46738 1.67383 8.74707 1.67383ZM15.033 1.67383C16.3127 1.67383 17.3674 2.71445 17.3674 4.0082C17.3674 5.30195 16.3268 6.32852 15.033 6.32852C13.7393 6.32852 12.6986 5.28789 12.6986 3.99414C12.6986 2.70039 13.7533 1.67383 15.033 1.67383ZM20.9955 1.67383C22.2752 1.67383 23.3299 2.71445 23.3299 4.0082C23.3299 5.30195 22.2893 6.32852 20.9955 6.32852C19.7018 6.32852 18.6611 5.28789 18.6611 3.99414C18.6611 2.70039 19.7158 1.67383 20.9955 1.67383ZM26.9299 1.67383C28.2096 1.67383 29.2643 2.71445 29.2643 4.0082C29.2643 5.30195 28.2236 6.32852 26.9299 6.32852C25.6361 6.32852 24.6096 5.28789 24.6096 4.0082C24.6096 2.72852 25.6502 1.67383 26.9299 1.67383ZM24.0611 7.46758C25.3408 7.46758 26.3955 8.5082 26.3955 9.80195C26.3955 11.0957 25.3549 12.1363 24.0611 12.1363C22.7814 12.1363 21.7268 11.0957 21.7268 9.80195C21.7268 8.5082 22.7674 7.46758 24.0611 7.46758ZM17.733 7.46758C19.0127 7.46758 20.0674 8.5082 20.0674 9.80195C20.0674 11.0816 19.0268 12.1363 17.733 12.1363C16.4393 12.1363 15.3986 11.0957 15.3986 9.80195C15.3986 8.5082 16.4393 7.46758 17.733 7.46758ZM30.1783 7.46758C31.458 7.46758 32.5127 8.5082 32.5127 9.80195C32.5127 11.0816 31.4721 12.1363 30.1783 12.1363C28.8846 12.1363 27.8439 11.0957 27.8439 9.80195C27.858 8.5082 28.8986 7.46758 30.1783 7.46758ZM5.77988 7.52383C7.04551 7.52383 8.07207 8.55039 8.07207 9.81602C8.07207 11.0816 7.04551 12.1082 5.77988 12.1082C4.51426 12.1082 3.4877 11.0816 3.4877 9.81602C3.4877 8.55039 4.51426 7.52383 5.77988 7.52383ZM8.36738 12.5582H5.75176H3.12207C1.53301 12.5582 0.520508 13.866 0.520508 15.5254V23.0629C0.520508 24.427 2.30645 24.427 2.30645 23.0629V16.0035C2.30645 15.8348 2.44707 15.7223 2.5877 15.7223C2.75645 15.7223 2.86895 15.8348 2.86895 16.0035V33.1316C2.86895 33.8348 3.43145 34.4113 4.14863 34.4113C4.85176 34.4113 5.42832 33.8488 5.42832 33.1316V24.6098C5.42832 24.441 5.56894 24.3285 5.70957 24.3285H5.76582C5.93457 24.3285 6.04707 24.4691 6.04707 24.6098V33.1316C6.04707 33.8348 6.60957 34.4113 7.32676 34.4113C8.02988 34.4113 8.60645 33.8488 8.60645 33.1316V15.9895C8.60645 15.8207 8.74707 15.7082 8.8877 15.7082C9.05645 15.7082 9.16894 15.8488 9.16894 15.9895V23.077C9.16894 24.441 10.9549 24.441 10.9549 23.077V15.5395C10.9971 13.866 9.99863 12.5582 8.36738 12.5582ZM20.3486 12.5582H17.7189H15.0893C13.5002 12.5582 12.4877 13.866 12.4877 15.5254V23.0629C12.4877 24.427 14.2736 24.427 14.2736 23.0629V16.0035C14.2736 15.8348 14.4143 15.7223 14.5549 15.7223C14.7236 15.7223 14.8361 15.8348 14.8361 16.0035V33.1316C14.8361 33.8348 15.3986 34.4113 16.1158 34.4113C16.8189 34.4113 17.3955 33.8488 17.3955 33.1316V24.6098C17.3955 24.441 17.5361 24.3285 17.6768 24.3285H17.733C17.9018 24.3285 18.0143 24.4691 18.0143 24.6098V33.1316C18.0143 33.8348 18.5768 34.4113 19.2939 34.4113C19.9971 34.4113 20.5736 33.8488 20.5736 33.1316V15.9895C20.5736 15.8207 20.7143 15.7082 20.8549 15.7082C21.0236 15.7082 21.1361 15.8488 21.1361 15.9895V23.077C21.1361 24.441 22.9221 24.441 22.9221 23.077V15.5395C22.9783 13.866 21.9799 12.5582 20.3486 12.5582ZM32.8643 12.5582H30.2346H27.6049C26.0158 12.5582 25.0033 13.866 25.0033 15.5254V23.0629C25.0033 24.427 26.7893 24.427 26.7893 23.0629V16.0035C26.7893 15.8348 26.9299 15.7223 27.0705 15.7223C27.2393 15.7223 27.3518 15.8348 27.3518 16.0035V33.1316C27.3518 33.8348 27.9143 34.4113 28.6314 34.4113C29.3346 34.4113 29.9111 33.8488 29.9111 33.1316V24.6098C29.9111 24.441 30.0518 24.3285 30.1924 24.3285H30.2486C30.4174 24.3285 30.5299 24.4691 30.5299 24.6098V33.1316C30.5299 33.8348 31.0924 34.4113 31.8096 34.4113C32.5127 34.4113 33.0893 33.8488 33.0893 33.1316V15.9895C33.0893 15.8207 33.2299 15.7082 33.3705 15.7082C33.5393 15.7082 33.6518 15.8488 33.6518 15.9895V23.077C33.6518 24.441 35.4377 24.441 35.4377 23.077V15.5395C35.4939 13.866 34.4955 12.5582 32.8643 12.5582Z" fill="#075459"/>
</svg>
