<svg width="50" height="50" viewBox="0 0 50 50" fill="none" xmlns="http://www.w3.org/2000/svg">
<path d="M8.00781 10.3711C9.78516 10.3711 11.25 11.8164 11.25 13.6133C11.25 15.4102 9.80469 16.8359 8.00781 16.8359C6.21094 16.8359 4.76562 15.3906 4.76562 13.5937C4.76562 11.7969 6.23047 10.3711 8.00781 10.3711ZM16.543 10.3711C18.3203 10.3711 19.7852 11.8164 19.7852 13.6133C19.7852 15.4102 18.3398 16.8555 16.543 16.8555C14.7461 16.8555 13.3008 15.4102 13.3008 13.6133C13.3008 11.8164 14.7656 10.3711 16.543 10.3711ZM12.1484 2.32422C13.9258 2.32422 15.3906 3.76953 15.3906 5.56641C15.3906 7.36328 13.9453 8.78906 12.1484 8.78906C10.3516 8.78906 8.90625 7.34375 8.90625 5.54687C8.90625 3.75 10.3711 2.32422 12.1484 2.32422ZM20.8789 2.32422C22.6563 2.32422 24.1211 3.76953 24.1211 5.56641C24.1211 7.36328 22.6758 8.78906 20.8789 8.78906C19.082 8.78906 17.6367 7.34375 17.6367 5.54687C17.6367 3.75 19.1016 2.32422 20.8789 2.32422ZM29.1602 2.32422C30.9375 2.32422 32.4023 3.76953 32.4023 5.56641C32.4023 7.36328 30.957 8.78906 29.1602 8.78906C27.3633 8.78906 25.918 7.34375 25.918 5.54687C25.918 3.75 27.3828 2.32422 29.1602 2.32422ZM37.4023 2.32422C39.1797 2.32422 40.6445 3.76953 40.6445 5.56641C40.6445 7.36328 39.1992 8.78906 37.4023 8.78906C35.6055 8.78906 34.1797 7.34375 34.1797 5.56641C34.1797 3.78906 35.625 2.32422 37.4023 2.32422ZM33.418 10.3711C35.1953 10.3711 36.6602 11.8164 36.6602 13.6133C36.6602 15.4102 35.2148 16.8555 33.418 16.8555C31.6406 16.8555 30.1758 15.4102 30.1758 13.6133C30.1758 11.8164 31.6211 10.3711 33.418 10.3711ZM24.6289 10.3711C26.4062 10.3711 27.8711 11.8164 27.8711 13.6133C27.8711 15.3906 26.4258 16.8555 24.6289 16.8555C22.832 16.8555 21.3867 15.4102 21.3867 13.6133C21.3867 11.8164 22.832 10.3711 24.6289 10.3711ZM41.9141 10.3711C43.6914 10.3711 45.1562 11.8164 45.1562 13.6133C45.1562 15.3906 43.7109 16.8555 41.9141 16.8555C40.1172 16.8555 38.6719 15.4102 38.6719 13.6133C38.6914 11.8164 40.1367 10.3711 41.9141 10.3711ZM8.02734 10.4492C9.78516 10.4492 11.2109 11.875 11.2109 13.6328C11.2109 15.3906 9.78516 16.8164 8.02734 16.8164C6.26953 16.8164 4.84375 15.3906 4.84375 13.6328C4.84375 11.875 6.26953 10.4492 8.02734 10.4492ZM11.6211 17.4414H7.98828H4.33594C2.12891 17.4414 0.722656 19.2578 0.722656 21.5625V32.0312C0.722656 33.9258 3.20312 33.9258 3.20312 32.0312V22.2266C3.20312 21.9922 3.39844 21.8359 3.59375 21.8359C3.82812 21.8359 3.98437 21.9922 3.98437 22.2266V46.0156C3.98437 46.9922 4.76562 47.793 5.76172 47.793C6.73828 47.793 7.53906 47.0117 7.53906 46.0156V34.1797C7.53906 33.9453 7.73437 33.7891 7.92969 33.7891H8.00781C8.24219 33.7891 8.39844 33.9844 8.39844 34.1797V46.0156C8.39844 46.9922 9.17969 47.793 10.1758 47.793C11.1523 47.793 11.9531 47.0117 11.9531 46.0156V22.207C11.9531 21.9727 12.1484 21.8164 12.3438 21.8164C12.5781 21.8164 12.7344 22.0117 12.7344 22.207V32.0508C12.7344 33.9453 15.2148 33.9453 15.2148 32.0508V21.582C15.2734 19.2578 13.8867 17.4414 11.6211 17.4414ZM28.2617 17.4414H24.6094H20.957C18.75 17.4414 17.3438 19.2578 17.3438 21.5625V32.0312C17.3438 33.9258 19.8242 33.9258 19.8242 32.0312V22.2266C19.8242 21.9922 20.0195 21.8359 20.2148 21.8359C20.4492 21.8359 20.6055 21.9922 20.6055 22.2266V46.0156C20.6055 46.9922 21.3867 47.793 22.3828 47.793C23.3594 47.793 24.1602 47.0117 24.1602 46.0156V34.1797C24.1602 33.9453 24.3555 33.7891 24.5508 33.7891H24.6289C24.8633 33.7891 25.0195 33.9844 25.0195 34.1797V46.0156C25.0195 46.9922 25.8008 47.793 26.7969 47.793C27.7734 47.793 28.5742 47.0117 28.5742 46.0156V22.207C28.5742 21.9727 28.7695 21.8164 28.9648 21.8164C29.1992 21.8164 29.3555 22.0117 29.3555 22.207V32.0508C29.3555 33.9453 31.8359 33.9453 31.8359 32.0508V21.582C31.9141 19.2578 30.5273 17.4414 28.2617 17.4414ZM45.6445 17.4414H41.9922H38.3398C36.1328 17.4414 34.7266 19.2578 34.7266 21.5625V32.0312C34.7266 33.9258 37.207 33.9258 37.207 32.0312V22.2266C37.207 21.9922 37.4023 21.8359 37.5977 21.8359C37.832 21.8359 37.9883 21.9922 37.9883 22.2266V46.0156C37.9883 46.9922 38.7695 47.793 39.7656 47.793C40.7422 47.793 41.543 47.0117 41.543 46.0156V34.1797C41.543 33.9453 41.7383 33.7891 41.9336 33.7891H42.0117C42.2461 33.7891 42.4023 33.9844 42.4023 34.1797V46.0156C42.4023 46.9922 43.1836 47.793 44.1797 47.793C45.1562 47.793 45.957 47.0117 45.957 46.0156V22.207C45.957 21.9727 46.1523 21.8164 46.3477 21.8164C46.582 21.8164 46.7383 22.0117 46.7383 22.207V32.0508C46.7383 33.9453 49.2188 33.9453 49.2188 32.0508V21.582C49.2969 19.2578 47.9102 17.4414 45.6445 17.4414Z" fill="black"/>
</svg>
