<svg width="50" height="50" viewBox="0 0 50 50" fill="none" xmlns="http://www.w3.org/2000/svg">
<path d="M37.0227 34.2905C35.473 34.2905 34.0294 34.7411 32.8122 35.5158L20.5274 26.9391C20.7246 26.2506 20.8324 25.5244 20.8324 24.7727C20.8324 24.0209 20.7246 23.2947 20.5274 22.6063L32.4805 14.261C33.7631 15.172 35.3296 15.7095 37.0226 15.7095C41.3606 15.7095 44.8773 12.1928 44.8773 7.8548C44.8773 3.51682 41.3607 0 37.0227 0C32.6847 0 29.168 3.51671 29.168 7.85469C29.168 8.4276 29.231 8.98557 29.3475 9.5236L17.0908 18.0808C15.8944 17.3439 14.4861 16.918 12.9777 16.918C8.63976 16.918 5.12305 20.4347 5.12305 24.7727C5.12305 29.1107 8.63965 32.6274 12.9777 32.6274C14.4859 32.6274 15.8944 32.2014 17.0908 31.4646L29.4421 40.0878C29.2645 40.7438 29.168 41.4332 29.168 42.1453C29.168 46.4833 32.6847 50 37.0227 50C41.3607 50 44.8774 46.4833 44.8774 42.1453C44.8774 37.8073 41.3607 34.2905 37.0227 34.2905Z" fill="black"/>
</svg>
