<svg width="24" height="23" viewBox="0 0 24 23" fill="none" xmlns="http://www.w3.org/2000/svg">
<path d="M17.7708 15.7736C17.0269 15.7736 16.334 15.9809 15.7498 16.3373L9.85307 12.392C9.94773 12.0753 9.99949 11.7412 9.99949 11.3954C9.99949 11.0496 9.94773 10.7156 9.85307 10.3989L15.5906 6.56007C16.2062 6.97913 16.9581 7.22637 17.7708 7.22637C19.853 7.22637 21.541 5.60868 21.541 3.61321C21.541 1.61774 19.8531 0 17.7708 0C15.6886 0 14.0006 1.61769 14.0006 3.61316C14.0006 3.8767 14.0308 4.13336 14.0867 4.38085L8.20351 8.31718C7.62923 7.97822 6.95323 7.78228 6.22924 7.78228C4.14701 7.78228 2.45898 9.39997 2.45898 11.3954C2.45898 13.3909 4.14696 15.0086 6.22924 15.0086C6.95318 15.0086 7.62923 14.8127 8.20351 14.4737L14.1321 18.4404C14.0469 18.7422 14.0006 19.0593 14.0006 19.3868C14.0006 21.3823 15.6886 23 17.7708 23C19.8531 23 21.5411 21.3823 21.5411 19.3868C21.5411 17.3914 19.8531 15.7736 17.7708 15.7736Z" fill="#F2F7F2"/>
</svg>
