<svg width="29" height="29" viewBox="0 0 29 29" fill="none" xmlns="http://www.w3.org/2000/svg">
<path fill-rule="evenodd" clip-rule="evenodd" d="M26.7785 2.85245C26.9732 2.65658 26.9722 2.34 26.7763 2.14534C26.5805 1.95069 26.2639 1.95168 26.0692 2.14755L14.4884 13.801L2.91326 2.1525C2.71862 1.95663 2.40204 1.95563 2.20616 2.15027C2.01028 2.34491 2.00928 2.66149 2.20392 2.85737L13.7834 14.5103L2.14534 26.2214C1.95069 26.4172 1.95168 26.7338 2.14755 26.9285C2.34342 27.1231 2.66 27.1221 2.85466 26.9263L14.4883 15.2197L26.1278 26.933C26.3225 27.1289 26.639 27.1299 26.8349 26.9352C27.0308 26.7406 27.0318 26.424 26.8372 26.2281L15.1932 14.5104L26.7785 2.85245Z" fill="white"/>
<path d="M26.7785 2.85245L27.8425 3.90979L27.8425 3.90979L26.7785 2.85245ZM26.0692 2.14755L25.0053 1.09021L25.0053 1.09021L26.0692 2.14755ZM14.4884 13.801L13.4243 14.8583L14.4883 15.929L15.5523 14.8583L14.4884 13.801ZM2.91326 2.1525L1.84926 3.20981L1.84926 3.20981L2.91326 2.1525ZM2.20616 2.15027L3.26346 3.21428L3.26346 3.21428L2.20616 2.15027ZM2.20392 2.85737L1.13992 3.91467L2.20392 2.85737ZM13.7834 14.5103L14.8474 15.5677L15.8981 14.5104L14.8475 13.453L13.7834 14.5103ZM2.14534 26.2214L3.20931 27.2787L3.20931 27.2787L2.14534 26.2214ZM2.14755 26.9285L3.2049 25.8645L3.20489 25.8645L2.14755 26.9285ZM2.85466 26.9263L1.79069 25.8689L1.79069 25.8689L2.85466 26.9263ZM14.4883 15.2197L15.5523 14.1624L14.4884 13.0917L13.4244 14.1623L14.4883 15.2197ZM26.1278 26.933L25.0638 27.9903L26.1278 26.933ZM26.8349 26.9352L27.8922 27.9992L27.8922 27.9992L26.8349 26.9352ZM26.8372 26.2281L25.7731 27.2854L26.8372 26.2281ZM15.1932 14.5104L14.1293 13.453L13.0785 14.5103L14.1292 15.5677L15.1932 14.5104ZM25.719 3.20931C25.3272 2.82001 25.3253 2.18685 25.7146 1.79511L27.8425 3.90979C28.6211 3.12631 28.6172 1.85998 27.8337 1.08138L25.719 3.20931ZM27.1332 3.2049C26.7439 3.59663 26.1107 3.59862 25.719 3.20931L27.8337 1.08138C27.0502 0.30277 25.7839 0.306729 25.0053 1.09021L27.1332 3.2049ZM15.5523 14.8583L27.1332 3.20489L25.0053 1.09021L13.4244 12.7437L15.5523 14.8583ZM1.84926 3.20981L13.4243 14.8583L15.5524 12.7437L3.97727 1.0952L1.84926 3.20981ZM3.26346 3.21428C2.87171 3.60356 2.23854 3.60156 1.84926 3.20981L3.97727 1.0952C3.1987 0.311689 1.93237 0.307686 1.14886 1.08626L3.26346 3.21428ZM3.26793 1.80007C3.65722 2.19183 3.65522 2.82499 3.26346 3.21428L1.14886 1.08626C0.365344 1.86484 0.361341 3.13116 1.13992 3.91467L3.26793 1.80007ZM14.8475 13.453L3.26793 1.80007L1.13992 3.91467L12.7194 15.5676L14.8475 13.453ZM3.20931 27.2787L14.8474 15.5677L12.7195 13.453L1.08138 25.164L3.20931 27.2787ZM3.20489 25.8645C3.59664 26.2538 3.59862 26.887 3.20931 27.2787L1.08138 25.164C0.302768 25.9475 0.306727 27.2138 1.09021 27.9924L3.20489 25.8645ZM1.79069 25.8689C2.17999 25.4772 2.81315 25.4752 3.2049 25.8645L1.09021 27.9924C1.8737 28.771 3.14002 28.7671 3.91862 27.9836L1.79069 25.8689ZM13.4244 14.1623L1.79069 25.8689L3.91862 27.9836L15.5523 16.277L13.4244 14.1623ZM27.1918 25.8757L15.5523 14.1624L13.4243 16.277L25.0638 27.9903L27.1918 25.8757ZM25.7776 25.8712C26.1694 25.4819 26.8025 25.4839 27.1918 25.8757L25.0638 27.9903C25.8424 28.7738 27.1087 28.7778 27.8922 27.9992L25.7776 25.8712ZM25.7731 27.2854C25.3839 26.8937 25.3859 26.2605 25.7776 25.8712L27.8922 27.9992C28.6757 27.2207 28.6797 25.9543 27.9012 25.1708L25.7731 27.2854ZM14.1292 15.5677L25.7731 27.2854L27.9012 25.1708L16.2572 13.4531L14.1292 15.5677ZM25.7146 1.79511L14.1293 13.453L16.2572 15.5677L27.8425 3.90979L25.7146 1.79511Z" fill="#000000"/>
</svg>
