<svg width="24" height="23" viewBox="0 0 24 23" fill="none" xmlns="http://www.w3.org/2000/svg">
<g clip-path="url(#clip0)">
<path d="M13.5657 0.0246868C13.5357 0.0390835 13.487 0.0714779 13.4607 0.100273C13.4345 0.129068 13.1739 0.58079 12.8814 1.1063C12.5889 1.63001 12.3226 2.10152 12.2889 2.15372C12.1895 2.30489 12.197 2.30309 11.6739 2.32289L11.2107 2.34268L11.1114 2.29589C11.012 2.2491 11.0007 2.2347 10.3314 1.30786C9.95635 0.791353 9.63198 0.343231 9.6076 0.312635C9.55323 0.242449 9.4576 0.197456 9.3601 0.197456C9.27948 0.197456 7.15885 0.874138 7.08573 0.922729C6.97698 0.996517 6.95448 1.0829 6.9751 1.34566C7.0201 1.87836 7.10823 2.95098 7.12698 3.19753L7.14948 3.47289L7.0951 3.57547C7.0426 3.67445 7.02385 3.69065 6.65635 3.9354C6.44448 4.07578 6.24198 4.19996 6.20635 4.21076C6.0526 4.25395 6.03385 4.24855 4.82635 3.76803C3.58698 3.27492 3.6226 3.28752 3.47635 3.35051C3.4051 3.3829 2.01197 5.04581 1.98385 5.1322C1.96885 5.18439 1.96885 5.21858 1.98385 5.27077C1.99885 5.31576 2.26885 5.6721 2.7376 6.2642C3.37135 7.06686 3.47072 7.20184 3.48947 7.27922C3.51572 7.3962 3.51572 7.3962 3.27197 7.9541C3.05635 8.45262 3.0076 8.52281 2.86135 8.5732C2.81822 8.58759 2.25385 8.69198 1.60322 8.80356C0.365724 9.01592 0.360099 9.01772 0.277599 9.1257C0.180099 9.25168 -0.0617763 11.4077 0.0169738 11.4527C0.0282238 11.4599 0.566349 11.6507 1.21135 11.8774C1.85635 12.1042 2.41135 12.3057 2.44322 12.3237C2.56697 12.3921 2.5951 12.4695 2.7076 13.067C2.76572 13.3712 2.8126 13.6573 2.8126 13.7059C2.8126 13.7617 2.79572 13.8229 2.76947 13.8697C2.74135 13.9219 2.45635 14.1882 1.84697 14.7317C1.36135 15.1636 0.948849 15.5434 0.928224 15.5722C0.903849 15.61 0.892599 15.6568 0.894474 15.718C0.894474 15.8007 0.941349 15.8925 1.3726 16.697C1.63697 17.1847 1.8751 17.6076 1.90322 17.6364C1.92947 17.6634 1.9876 17.6958 2.03072 17.7066C2.10385 17.7264 2.19385 17.7102 3.28135 17.4744C4.5076 17.2081 4.55073 17.2027 4.6876 17.2639C4.76073 17.2981 5.6326 18.1619 5.6851 18.2519C5.75635 18.3779 5.7526 18.4139 5.56135 19.1302C5.12073 20.7805 5.1301 20.7445 5.15448 20.8219C5.16573 20.8615 5.19573 20.9136 5.21823 20.9388C5.24073 20.964 5.67198 21.207 6.17635 21.4787C7.00698 21.9269 7.1026 21.9737 7.17948 21.9737C7.2301 21.9737 7.2901 21.9593 7.32198 21.9413C7.35385 21.9215 7.75323 21.5417 8.2126 21.0936C8.67198 20.6455 9.07698 20.264 9.11635 20.246C9.25323 20.1758 9.29073 20.1794 9.97698 20.3269C10.3314 20.4025 10.6426 20.4763 10.667 20.4925C10.7964 20.5735 10.8039 20.5897 11.2032 21.7415C11.5801 22.8267 11.5914 22.8555 11.6626 22.9167C11.7039 22.9527 11.7657 22.9851 11.807 22.9923C11.9776 23.0229 13.0407 22.9581 13.7195 22.8753C14.027 22.8375 14.0926 22.8069 14.1451 22.6719C14.162 22.6287 14.2857 22.0924 14.4189 21.4805C14.5801 20.7499 14.6757 20.3467 14.6982 20.3108C14.7714 20.1992 14.8257 20.1722 15.3976 19.9634C16.0145 19.7367 16.0932 19.7205 16.2301 19.7906C16.2639 19.8086 16.6951 20.1344 17.1864 20.5159C17.6795 20.8974 18.107 21.2232 18.1389 21.2412C18.1801 21.2646 18.2232 21.2718 18.2945 21.2664C18.3901 21.261 18.4107 21.2466 18.9489 20.8561C20.042 20.0624 20.1451 19.985 20.1807 19.9364C20.2014 19.9112 20.222 19.85 20.2257 19.8014C20.2351 19.7223 20.1976 19.6179 19.8001 18.6172C19.5601 18.0126 19.3595 17.4906 19.3557 17.4564C19.337 17.3323 19.3801 17.2549 19.6801 16.859C19.8414 16.6484 19.9914 16.4558 20.0139 16.4342C20.0795 16.364 20.192 16.3172 20.297 16.319C20.3476 16.319 20.9082 16.373 21.5401 16.4396L22.6876 16.5584L22.7682 16.5242C22.8114 16.5044 22.862 16.4738 22.8807 16.454C22.907 16.4252 23.5632 14.7371 23.672 14.4186C23.7132 14.3016 23.687 14.2026 23.5914 14.109C23.5539 14.0712 23.0889 13.7347 22.5582 13.3604C21.6057 12.6891 21.5945 12.6801 21.5476 12.5811L21.5007 12.4821L21.5232 12.0952C21.5532 11.5895 21.557 11.5661 21.6264 11.4689C21.6826 11.3915 21.7257 11.3681 22.7757 10.8624C23.3776 10.5726 23.882 10.3243 23.8989 10.3117C23.9401 10.2775 24.0001 10.1587 24.0001 10.1101C24.0001 10.0345 23.5145 7.91991 23.4845 7.86412C23.4676 7.83353 23.4245 7.79033 23.3851 7.76514C23.3064 7.71655 23.387 7.72194 21.4857 7.60497C20.7564 7.55997 20.7432 7.55637 20.6326 7.45559C20.552 7.3818 20.2145 6.77171 20.2014 6.67453C20.1939 6.62594 20.2014 6.56655 20.2164 6.52335C20.2314 6.48376 20.5201 6.00324 20.8576 5.45614C21.4464 4.50591 21.4726 4.45911 21.4726 4.37273C21.4707 4.32414 21.4595 4.26475 21.4464 4.23955C21.422 4.19456 19.8526 2.64863 19.7626 2.58204C19.7345 2.56044 19.6782 2.54425 19.6126 2.54065L19.5057 2.53345L18.4482 3.09675C17.867 3.4063 17.357 3.67085 17.3157 3.68525C17.1864 3.72844 17.102 3.70144 16.7532 3.51428C16.4007 3.32531 16.3632 3.29832 16.3089 3.19573C16.2601 3.10575 16.262 3.12914 16.217 1.84417C16.1795 0.782354 16.1776 0.74456 16.1364 0.665375C16.067 0.530397 16.2039 0.56999 14.2914 0.132668C13.9689 0.0606804 13.6857 -0.000509262 13.6632 -0.000509262C13.6407 0.00128937 13.5976 0.0120888 13.5657 0.0246868ZM12.8439 4.79386C13.3595 4.85864 13.787 4.95043 14.2314 5.0926C16.592 5.84127 18.3995 7.79213 18.8889 10.1173C18.9957 10.6266 19.0201 10.8714 19.0201 11.4635C19.022 12.0214 19.0126 12.1582 18.9357 12.6063C18.5757 14.7101 17.1451 16.5602 15.1407 17.5104C14.3814 17.8704 13.7251 18.0593 12.8064 18.1799C12.5195 18.2177 11.4732 18.2105 11.1564 18.1709C9.5176 17.9568 8.08885 17.2729 6.9751 16.1679C5.38323 14.5877 4.7026 12.4101 5.11885 10.2289C5.3926 8.79456 6.20448 7.425 7.36135 6.44417C8.50323 5.47774 9.89635 4.90364 11.4282 4.77046C11.7114 4.74526 12.5682 4.75966 12.8439 4.79386Z" fill="white"/>
</g>
<defs>
<clipPath id="clip0">
<rect width="24" height="23" fill="white"/>
</clipPath>
</defs>
</svg>
