<svg width="620" height="612" viewBox="0 0 620 612" fill="none" xmlns="http://www.w3.org/2000/svg">
<g clip-path="url(#clip0_728:2)" filter="url(#filter0_d_728:2)">
<path d="M386.167 150.945C395.869 161.82 402.724 175.251 406.548 190.866C410.177 205.688 410.988 222.174 408.962 239.872C408.211 246.418 407.101 253.832 405.483 261.674C418.015 273.809 434.433 281.513 455.779 281.512C514.999 281.507 536.308 222.212 541.884 173.506C548.756 113.502 520.386 68.343 455.779 68.343C405.081 68.343 376.7 96.163 370.151 137.141C376.076 141.062 381.449 145.655 386.167 150.945Z" fill="black"/>
<path d="M615.973 422.704C615.328 403.805 613.112 384.817 609.812 366.209C605.82 343.67 600.732 310.624 581.053 295.934C569.673 287.443 554.936 284.656 541.91 279.536C535.567 277.044 529.886 274.569 524.556 271.752C506.561 291.486 483.097 301.807 455.774 301.809C434.513 301.809 415.602 295.528 399.773 283.451C396.129 294.723 391.251 306.074 384.729 316.445C390.457 319.894 396.652 322.649 404.18 325.607C407.512 326.917 411.17 328.113 415.044 329.378C425.516 332.8 437.383 336.679 448.038 344.633C473.367 363.54 479.602 398.969 484.155 424.84L484.645 427.632C487 440.898 488.729 453.931 489.842 466.593C510.057 464.522 530.169 460.983 549.889 456.819C565.83 453.454 581.663 449.348 596.998 443.816C609.247 439.397 616.476 437.343 615.973 422.704Z" fill="black"/>
<path d="M164.216 281.511C185.561 281.513 201.978 273.808 214.511 261.673C212.893 253.832 211.783 246.417 211.032 239.871C209.006 222.174 209.818 205.687 213.446 190.865C217.269 175.251 224.125 161.819 233.827 150.944C238.545 145.653 243.917 141.06 249.841 137.139C243.292 96.1611 214.911 68.3411 164.213 68.3411C99.6073 68.3411 71.2363 113.501 78.1073 173.504C83.6873 222.212 104.996 281.507 164.216 281.511Z" fill="black"/>
<path d="M171.957 344.634C182.612 336.68 194.481 332.801 204.951 329.379C208.826 328.114 212.482 326.918 215.815 325.608C223.343 322.651 229.54 319.897 235.266 316.446C228.746 306.077 223.866 294.724 220.223 283.452C204.394 295.529 185.482 301.81 164.222 301.81C136.9 301.809 113.434 291.486 95.4401 271.753C90.1111 274.57 84.4281 277.044 78.0861 279.537C65.0601 284.657 50.3231 287.444 38.9431 295.935C19.2651 310.626 14.1761 343.67 10.1841 366.21C6.88408 384.817 4.66808 403.805 4.02308 422.705C3.52108 437.345 10.7491 439.398 22.9971 443.817C38.3311 449.348 54.1671 453.454 70.1061 456.82C89.8261 460.985 109.939 464.524 130.153 466.594C131.265 453.932 132.994 440.901 135.35 427.633L135.84 424.841C140.394 398.971 146.628 363.541 171.957 344.634Z" fill="black"/>
<path d="M474.351 429.405L473.858 426.6C469.6 402.403 463.767 369.266 441.667 352.768C432.346 345.811 421.795 342.364 411.589 339.028C407.57 337.715 403.777 336.474 400.162 335.054C394.893 332.984 390.146 330.957 385.698 328.716C367.014 353.648 341.118 366.775 310.315 366.778C279.52 366.778 253.628 353.65 234.944 328.716C230.495 330.959 225.748 332.985 220.477 335.056C216.867 336.474 213.071 337.715 209.053 339.028C198.846 342.363 188.292 345.812 178.974 352.768C156.867 369.268 151.038 402.413 146.781 426.614L146.288 429.409C142.731 449.495 140.608 468.981 139.98 487.323C139.243 508.842 152.6 513.639 164.383 517.873L165.652 518.33C179.822 523.442 195.673 527.822 214.109 531.718C251.755 539.664 282.306 543.458 310.247 543.656H310.319H310.391C338.337 543.457 368.886 539.664 406.526 531.718C424.965 527.824 440.815 523.444 454.979 518.331L456.247 517.875C468.033 513.642 481.394 508.846 480.657 487.322C480.03 468.931 477.906 449.447 474.351 429.405Z" fill="black"/>
<path d="M225.005 243.009C230.582 291.718 251.888 351.018 311.108 351.015C370.328 351.012 391.637 291.718 397.214 243.009C404.085 183.007 375.711 137.849 311.108 137.849C246.515 137.847 218.123 183.002 225.005 243.009Z" fill="black"/>
</g>
<defs>
<filter id="filter0_d_728:2" x="0" y="0" width="619.998" height="619.998" filterUnits="userSpaceOnUse" color-interpolation-filters="sRGB">
<feFlood flood-opacity="0" result="BackgroundImageFix"/>
<feColorMatrix in="SourceAlpha" type="matrix" values="0 0 0 0 0 0 0 0 0 0 0 0 0 0 0 0 0 0 127 0" result="hardAlpha"/>
<feOffset dy="4"/>
<feGaussianBlur stdDeviation="2"/>
<feComposite in2="hardAlpha" operator="out"/>
<feColorMatrix type="matrix" values="0 0 0 0 0 0 0 0 0 0 0 0 0 0 0 0 0 0 0.25 0"/>
<feBlend mode="normal" in2="BackgroundImageFix" result="effect1_dropShadow_728:2"/>
<feBlend mode="normal" in="SourceGraphic" in2="effect1_dropShadow_728:2" result="shape"/>
</filter>
<clipPath id="clip0_728:2">
<rect width="611.998" height="611.998" fill="white" transform="translate(4)"/>
</clipPath>
</defs>
</svg>
