<svg width="612" height="612" viewBox="0 0 612 612" fill="none" xmlns="http://www.w3.org/2000/svg">
<g clip-path="url(#clip0_728:2)">
<path d="M382.167 150.945C391.869 161.82 398.724 175.251 402.548 190.866C406.177 205.688 406.988 222.174 404.962 239.872C404.211 246.418 403.101 253.832 401.483 261.674C414.015 273.809 430.433 281.513 451.779 281.512C510.999 281.507 532.308 222.212 537.884 173.506C544.756 113.502 516.386 68.343 451.779 68.343C401.081 68.343 372.7 96.163 366.151 137.141C372.076 141.062 377.449 145.655 382.167 150.945Z" fill="#F2F7F2"/>
<path d="M611.973 422.704C611.328 403.805 609.112 384.817 605.812 366.209C601.82 343.67 596.732 310.624 577.053 295.934C565.673 287.443 550.936 284.656 537.91 279.536C531.567 277.044 525.886 274.569 520.556 271.752C502.561 291.486 479.097 301.807 451.774 301.809C430.513 301.809 411.602 295.528 395.773 283.451C392.129 294.723 387.251 306.074 380.729 316.445C386.457 319.894 392.652 322.649 400.18 325.607C403.512 326.917 407.17 328.113 411.044 329.378C421.516 332.8 433.383 336.679 444.038 344.633C469.367 363.54 475.602 398.969 480.155 424.84L480.645 427.632C483 440.898 484.729 453.931 485.842 466.593C506.057 464.522 526.169 460.983 545.889 456.819C561.83 453.454 577.663 449.348 592.998 443.816C605.247 439.397 612.476 437.343 611.973 422.704Z" fill="#F2F7F2"/>
<path d="M160.216 281.511C181.561 281.513 197.978 273.808 210.511 261.673C208.893 253.832 207.783 246.417 207.032 239.871C205.006 222.174 205.818 205.687 209.446 190.865C213.269 175.251 220.125 161.819 229.827 150.944C234.545 145.653 239.917 141.06 245.841 137.139C239.292 96.1611 210.911 68.3411 160.213 68.3411C95.6073 68.3411 67.2363 113.501 74.1073 173.504C79.6873 222.212 100.996 281.507 160.216 281.511Z" fill="#F2F7F2"/>
<path d="M167.957 344.634C178.612 336.68 190.481 332.801 200.951 329.379C204.826 328.114 208.482 326.918 211.815 325.608C219.343 322.651 225.54 319.897 231.266 316.446C224.746 306.077 219.866 294.724 216.223 283.452C200.394 295.529 181.482 301.81 160.222 301.81C132.9 301.809 109.434 291.486 91.4401 271.753C86.1111 274.57 80.4281 277.044 74.0861 279.537C61.0601 284.657 46.3231 287.444 34.9431 295.935C15.2651 310.626 10.1761 343.67 6.18408 366.21C2.88408 384.817 0.668079 403.805 0.0230793 422.705C-0.478921 437.345 6.74908 439.398 18.9971 443.817C34.3311 449.348 50.1671 453.454 66.1061 456.82C85.8261 460.985 105.939 464.524 126.153 466.594C127.265 453.932 128.994 440.901 131.35 427.633L131.84 424.841C136.394 398.971 142.628 363.541 167.957 344.634Z" fill="#F2F7F2"/>
<path d="M470.351 429.405L469.858 426.6C465.6 402.403 459.767 369.266 437.667 352.768C428.346 345.811 417.795 342.364 407.589 339.028C403.57 337.715 399.777 336.474 396.162 335.054C390.893 332.984 386.146 330.957 381.698 328.716C363.014 353.648 337.118 366.775 306.315 366.778C275.52 366.778 249.628 353.65 230.944 328.716C226.495 330.959 221.748 332.985 216.477 335.056C212.867 336.474 209.071 337.715 205.053 339.028C194.846 342.363 184.292 345.812 174.974 352.768C152.867 369.268 147.038 402.413 142.781 426.614L142.288 429.409C138.731 449.495 136.608 468.981 135.98 487.323C135.243 508.842 148.6 513.639 160.383 517.873L161.652 518.33C175.822 523.442 191.673 527.822 210.109 531.718C247.755 539.664 278.306 543.458 306.247 543.656H306.319H306.391C334.337 543.457 364.886 539.664 402.526 531.718C420.965 527.824 436.815 523.444 450.979 518.331L452.247 517.875C464.033 513.642 477.394 508.846 476.657 487.322C476.03 468.931 473.906 449.447 470.351 429.405Z" fill="#F2F7F2"/>
<path d="M221.005 243.009C226.582 291.718 247.888 351.018 307.108 351.015C366.328 351.012 387.637 291.718 393.214 243.009C400.085 183.007 371.711 137.849 307.108 137.849C242.515 137.847 214.123 183.002 221.005 243.009Z" fill="#F2F7F2"/>
</g>
<defs>
<clipPath id="clip0_728:2">
<rect width="611.998" height="611.998" fill="white"/>
</clipPath>
</defs>
</svg>
