<svg width="40" height="40" viewBox="0 0 40 40" fill="none" xmlns="http://www.w3.org/2000/svg">
<circle cx="20" cy="20" r="20" fill="#064045"/>
<path d="M11.0947 17C9.38434 17 8 18.3836 8 20.0931C8 21.8027 9.38278 23.187 11.0947 23.187C12.8019 23.187 14.1878 21.805 14.1878 20.0931C14.1878 18.3836 12.8019 17 11.0947 17ZM20.6603 17C18.9538 17 17.5656 18.3828 17.5656 20.0923C17.5656 21.8019 18.9523 23.1862 20.6603 23.1862C22.3683 23.1862 23.7565 21.8042 23.7565 20.0923C23.755 18.3836 22.3683 17 20.6603 17ZM29.9077 17C28.1981 17 26.8122 18.3836 26.8122 20.0939C26.8122 21.8019 28.1958 23.1862 29.9077 23.1862C31.6141 23.1862 33 21.8042 33 20.0939C33 18.3836 31.6141 17 29.9077 17Z" fill="#F2F7F2"/>
</svg>
