<svg width="48" height="74" viewBox="0 0 48 74" fill="none" xmlns="http://www.w3.org/2000/svg">
<path d="M46.9565 9.76812C31.6925 9.76812 24.8671 0.509088 24.8014 0.418529C24.4049 -0.13951 23.5951 -0.13951 23.1986 0.418529C23.1318 0.511535 16.3774 9.76812 1.04348 9.76812C0.467478 9.76812 0 10.3164 0 10.9919V34.3475C0 47.1151 4.89391 59.2487 13.0915 66.803C16.3962 69.849 19.9659 72.053 23.7026 73.3527C23.7997 73.3869 23.8998 73.4041 24 73.4041C24.1002 73.4041 24.1993 73.3869 24.2974 73.3527C28.0341 72.0518 31.6038 69.849 34.9085 66.803C43.1061 59.2475 48 47.1151 48 34.3475V10.9919C48 10.3164 47.5336 9.76812 46.9565 9.76812ZM45.913 34.3475C45.913 46.3698 41.3176 57.7839 33.6188 64.8793C30.6104 67.6523 27.3757 69.6765 24 70.9014C20.6243 69.6777 17.3896 67.6523 14.3812 64.8793C6.68244 57.7851 2.08696 46.3698 2.08696 34.3475V12.2022C14.8612 11.8693 21.7722 5.47514 24 2.96886C26.2278 5.47636 33.1388 11.8693 45.913 12.2022V34.3475Z" fill="#075459"/>
<path d="M23.4139 9.77319C20.2678 12.2807 14.896 15.5115 7.17323 16.6667C6.65149 16.745 6.26123 17.2651 6.26123 17.8807V34.3489C6.26123 44.8819 10.2609 54.8569 16.9611 61.032C19.071 62.9766 21.3113 64.5014 23.6195 65.5636C23.7426 65.6199 23.872 65.6481 24.0004 65.6481C24.207 65.6481 24.4125 65.5759 24.5878 65.4351C24.8727 65.2063 25.0438 64.8281 25.0438 64.4243V10.7853C25.0438 10.3312 24.8299 9.91637 24.4887 9.70344C24.1485 9.49295 23.7343 9.51987 23.4139 9.77319Z" fill="#075459"/>
</svg>
