<svg width="11" height="11" viewBox="0 0 11 11" fill="none" xmlns="http://www.w3.org/2000/svg">
<path fill-rule="evenodd" clip-rule="evenodd" d="M10.5485 0.85383C10.7436 0.658451 10.7434 0.341869 10.548 0.146724C10.3527 -0.0484218 10.0361 -0.0482325 9.84094 0.147146L5.35802 4.63543L0.877643 0.149357C0.682505 -0.0460292 0.365922 -0.0462305 0.170536 0.148908C-0.0248501 0.344046 -0.0250513 0.660628 0.170087 0.856014L4.65133 5.34296L0.146235 9.85345C-0.0489101 10.0488 -0.0487208 10.3654 0.146658 10.5606C0.342037 10.7557 0.658619 10.7555 0.853765 10.5601L5.35799 6.05052L9.86479 10.563C10.0599 10.7584 10.3765 10.7586 10.5719 10.5635C10.7673 10.3684 10.7675 10.0518 10.5723 9.85639L6.06467 5.34299L10.5485 0.85383Z" fill="#5B5B5B"/>
</svg>
