<svg width="63" height="63" viewBox="0 0 63 63" fill="none" xmlns="http://www.w3.org/2000/svg">
<g clip-path="url(#clip0)">
<mask id="path-1-outside-1" maskUnits="userSpaceOnUse" x="8.69238" y="1.3335" width="46" height="63" fill="black">
<rect fill="white" x="8.69238" y="1.3335" width="46" height="63"/>
<path fill-rule="evenodd" clip-rule="evenodd" d="M31.5001 27.6113C28.4906 27.6113 26.0482 25.3464 26.0482 22.5557C26.0482 19.7651 28.4906 17.5002 31.5001 17.5002C34.5095 17.5002 36.952 19.7651 36.952 22.5557C36.952 25.3464 34.5095 27.6113 31.5001 27.6113ZM31.5001 14.9724C26.9832 14.9724 23.3222 18.3672 23.3222 22.5557C23.3222 26.7442 26.9832 30.1391 31.5001 30.1391C36.017 30.1391 39.678 26.7442 39.678 22.5557C39.678 18.3672 36.017 14.9724 31.5001 14.9724ZM12.4183 21.5497C12.4183 12.6595 21.335 4.86127 31.5001 4.86127C41.6652 4.86127 50.5818 12.6595 50.5818 21.5497C50.5818 30.2831 43.5952 40.6167 31.5001 58.2707C19.2632 40.3917 12.4183 30.2831 12.4183 21.5497ZM31.5001 2.3335C20.0565 2.3335 9.69238 10.9355 9.69238 21.5497C9.69238 32.1613 19.1487 44.8305 31.5001 63.0002C43.8514 44.8305 53.3078 32.1613 53.3078 21.5497C53.3078 10.9355 42.9464 2.3335 31.5001 2.3335"/>
</mask>
<path fill-rule="evenodd" clip-rule="evenodd" d="M31.5001 27.6113C28.4906 27.6113 26.0482 25.3464 26.0482 22.5557C26.0482 19.7651 28.4906 17.5002 31.5001 17.5002C34.5095 17.5002 36.952 19.7651 36.952 22.5557C36.952 25.3464 34.5095 27.6113 31.5001 27.6113ZM31.5001 14.9724C26.9832 14.9724 23.3222 18.3672 23.3222 22.5557C23.3222 26.7442 26.9832 30.1391 31.5001 30.1391C36.017 30.1391 39.678 26.7442 39.678 22.5557C39.678 18.3672 36.017 14.9724 31.5001 14.9724ZM12.4183 21.5497C12.4183 12.6595 21.335 4.86127 31.5001 4.86127C41.6652 4.86127 50.5818 12.6595 50.5818 21.5497C50.5818 30.2831 43.5952 40.6167 31.5001 58.2707C19.2632 40.3917 12.4183 30.2831 12.4183 21.5497ZM31.5001 2.3335C20.0565 2.3335 9.69238 10.9355 9.69238 21.5497C9.69238 32.1613 19.1487 44.8305 31.5001 63.0002C43.8514 44.8305 53.3078 32.1613 53.3078 21.5497C53.3078 10.9355 42.9464 2.3335 31.5001 2.3335" fill="#075459"/>
<path d="M31.5001 58.2707L31.0875 58.5531L31.4999 59.1556L31.9126 58.5533L31.5001 58.2707ZM31.5001 63.0002L31.0866 63.2813L31.5001 63.8896L31.9136 63.2813L31.5001 63.0002ZM31.5001 27.1113C28.7305 27.1113 26.5482 25.0354 26.5482 22.5557H25.5482C25.5482 25.6574 28.2507 28.1113 31.5001 28.1113V27.1113ZM26.5482 22.5557C26.5482 20.0761 28.7305 18.0002 31.5001 18.0002V17.0002C28.2507 17.0002 25.5482 19.454 25.5482 22.5557H26.5482ZM31.5001 18.0002C34.2696 18.0002 36.452 20.0761 36.452 22.5557H37.452C37.452 19.454 34.7495 17.0002 31.5001 17.0002V18.0002ZM36.452 22.5557C36.452 25.0354 34.2696 27.1113 31.5001 27.1113V28.1113C34.7495 28.1113 37.452 25.6574 37.452 22.5557H36.452ZM31.5001 14.4724C26.7432 14.4724 22.8222 18.0562 22.8222 22.5557H23.8222C23.8222 18.6782 27.2231 15.4724 31.5001 15.4724V14.4724ZM22.8222 22.5557C22.8222 27.0553 26.7432 30.6391 31.5001 30.6391V29.6391C27.2231 29.6391 23.8222 26.4332 23.8222 22.5557H22.8222ZM31.5001 30.6391C36.2569 30.6391 40.178 27.0553 40.178 22.5557H39.178C39.178 26.4332 35.7771 29.6391 31.5001 29.6391V30.6391ZM40.178 22.5557C40.178 18.0562 36.2569 14.4724 31.5001 14.4724V15.4724C35.7771 15.4724 39.178 18.6782 39.178 22.5557H40.178ZM12.9183 21.5497C12.9183 12.9965 21.5461 5.36127 31.5001 5.36127V4.36127C21.1239 4.36127 11.9183 12.3225 11.9183 21.5497H12.9183ZM31.5001 5.36127C41.4541 5.36127 50.0818 12.9965 50.0818 21.5497H51.0818C51.0818 12.3225 41.8763 4.36127 31.5001 4.36127V5.36127ZM50.0818 21.5497C50.0818 25.7871 48.3857 30.4626 45.1392 36.3227C41.8947 42.1792 37.1397 49.1544 31.0876 57.9881L31.9126 58.5533C37.9555 49.733 42.7414 42.7144 46.014 36.8073C49.2845 30.9037 51.0818 26.0457 51.0818 21.5497H50.0818ZM31.9127 57.9883C25.7895 49.0418 21.0346 42.0668 17.8078 36.2384C14.5797 30.4077 12.9183 25.7879 12.9183 21.5497H11.9183C11.9183 26.0449 13.6794 30.8461 16.933 36.7228C20.1878 42.6018 24.9738 49.6206 31.0875 58.5531L31.9127 57.9883ZM31.5001 1.8335C19.8511 1.8335 9.19238 10.5936 9.19238 21.5497H10.1924C10.1924 11.2774 20.2619 2.8335 31.5001 2.8335V1.8335ZM9.19238 21.5497C9.19238 26.9937 11.6146 32.9104 15.5315 39.6908C19.4516 46.4766 24.9204 54.2104 31.0866 63.2813L31.9136 62.7191C25.7284 53.6203 20.2934 45.9346 16.3974 39.1905C12.4983 32.441 10.1924 26.7173 10.1924 21.5497H9.19238ZM31.9136 63.2813C38.0798 54.2104 43.5486 46.4766 47.4686 39.6908C51.3855 32.9104 53.8078 26.9937 53.8078 21.5497H52.8078C52.8078 26.7173 50.5018 32.441 46.6027 39.1905C42.7068 45.9346 37.2717 53.6203 31.0866 62.7191L31.9136 63.2813ZM53.8078 21.5497C53.8078 10.5936 43.1519 1.8335 31.5001 1.8335V2.8335C42.7409 2.8335 52.8078 11.2774 52.8078 21.5497H53.8078Z" fill="#075459" mask="url(#path-1-outside-1)"/>
</g>
<defs>
<clipPath id="clip0">
<rect width="63" height="63" fill="white"/>
</clipPath>
</defs>
</svg>
