<svg width="60" height="60" viewBox="0 0 60 60" fill="none" xmlns="http://www.w3.org/2000/svg">
<path d="M5.9983 57.7383H36.5909C37.0903 57.7383 37.5753 57.6751 38.0381 57.5563C38.786 58.0624 39.5821 58.495 40.4221 58.8502C42.1469 59.5797 43.9767 59.9497 45.8603 59.9497C47.744 59.9497 49.5737 59.5798 51.2985 58.8502C52.9623 58.1465 54.4557 57.14 55.7371 55.8587C57.0184 54.5772 58.025 53.084 58.7287 51.4202C59.4581 49.6953 59.8281 47.8657 59.8281 45.9819C59.8281 44.0982 59.4582 42.2684 58.7287 40.5437C58.025 38.8799 57.0184 37.3865 55.7371 36.1052C54.4557 34.8238 52.9623 33.8172 51.2985 33.1136C49.5737 32.3841 47.7441 32.0141 45.8603 32.0141C43.9766 32.0141 42.1468 32.384 40.4221 33.1136C39.8046 33.3746 39.211 33.6777 38.6427 34.0207C38.4127 33.7576 38.1739 33.501 37.925 33.2522C36.5178 31.8451 34.8784 30.7399 33.0515 29.9672C31.158 29.1663 29.149 28.7603 27.0806 28.7603H15.5086C13.44 28.7603 11.4312 29.1664 9.53775 29.9672C7.711 30.7399 6.07135 31.8451 4.66426 33.2522C3.25718 34.6591 2.15202 36.2989 1.37934 38.1256C0.578495 40.0191 0.172363 42.028 0.172363 44.0966V51.9126C0.172363 55.1249 2.78592 57.7383 5.9983 57.7383ZM27.0807 33.0529C30.3734 33.0529 33.3289 34.4945 35.3522 36.7802C34.3682 37.9018 33.5757 39.1639 32.9921 40.5436C32.2625 42.2684 31.8925 44.0981 31.8925 45.9818C31.8925 47.8656 32.2624 49.6953 32.9921 51.4201C33.2911 52.1273 33.6454 52.8033 34.0519 53.4455H5.9983C5.15156 53.4455 4.46516 52.7591 4.46516 51.9124V44.0964C4.46516 37.9973 9.40948 33.0529 15.5086 33.0529H27.0807V33.0529ZM45.8604 36.3068C51.2038 36.3068 55.5354 40.6386 55.5354 45.9819C55.5354 51.3253 51.2036 55.6569 45.8604 55.6569C44.3693 55.6569 42.9572 55.3195 41.696 54.7169C41.0435 54.4054 40.4313 54.0228 39.8696 53.5793C39.2137 53.0614 38.6266 52.4605 38.124 51.7923C36.9069 50.1744 36.1852 48.1624 36.1852 45.9819C36.1852 44.1053 36.7201 42.354 37.6446 40.8707C38.0879 40.1599 38.6204 39.5109 39.227 38.9393C39.7599 38.4373 40.3496 37.9952 40.9855 37.6235C42.4173 36.7868 44.0826 36.3068 45.8604 36.3068Z" fill="#0FA3B1"/>
<path d="M45.8603 59.9998C43.9699 59.9998 42.1337 59.6285 40.4025 58.8963C39.5716 58.5449 38.7729 58.1123 38.0286 57.6104C37.5608 57.7285 37.0771 57.7884 36.5907 57.7884H5.99811C2.75807 57.7884 0.12207 55.1524 0.12207 51.9123V44.0963C0.12207 42.0211 0.529505 40.0057 1.33295 38.1059C2.10814 36.2731 3.21691 34.6281 4.6286 33.2165C6.04029 31.8049 7.68526 30.696 9.51802 29.9208C11.4178 29.1173 13.4332 28.71 15.5084 28.71H27.0805C29.1557 28.71 31.1713 29.1174 33.0709 29.9208C34.9034 30.6959 36.5484 31.8047 37.9603 33.2165C38.1931 33.4492 38.4258 33.6979 38.6526 33.956C39.2123 33.6205 39.8008 33.3216 40.4025 33.0672C42.1334 32.3351 43.9698 31.9638 45.8603 31.9638C47.7506 31.9638 49.5868 32.3351 51.3178 33.0672C52.9879 33.7735 54.4865 34.7837 55.7724 36.0696C57.0583 37.3556 58.0684 38.8541 58.7747 40.5241C59.5069 42.255 59.8781 44.0913 59.8781 45.9818C59.8781 47.8721 59.5069 49.7084 58.7748 51.4395C58.0685 53.1093 57.0583 54.6079 55.7724 55.894C54.4864 57.1799 52.9878 58.19 51.3178 58.8963C49.5867 59.6285 47.7504 59.9998 45.8603 59.9998ZM38.0474 57.5023L38.0661 57.5149C38.8105 58.0185 39.6097 58.4523 40.4415 58.804C42.1603 59.531 43.9834 59.8997 45.8603 59.8997C47.737 59.8997 49.56 59.531 51.2789 58.804C52.9368 58.1029 54.4248 57.0999 55.7015 55.8232C56.9782 54.5463 57.9812 53.0584 58.6824 51.4007C59.4093 49.6819 59.7779 47.8587 59.7779 45.9819C59.7779 44.1049 59.4093 42.2818 58.6824 40.5632C57.9812 38.9053 56.9782 37.4173 55.7015 36.1406C54.4249 34.8639 52.9369 33.8609 51.2789 33.1597C49.5602 32.4327 47.7371 32.0641 45.8603 32.0641C43.9833 32.0641 42.1601 32.4327 40.4415 33.1597C39.8313 33.4176 39.2348 33.7217 38.6685 34.0635L38.6326 34.0853L38.605 34.0537C38.371 33.786 38.1303 33.5282 37.8895 33.2875C36.4869 31.885 34.8525 30.7834 33.032 30.0133C31.1447 29.215 29.1423 28.8103 27.0805 28.8103H15.5084C13.4468 28.8103 11.4444 29.215 9.557 30.0133C7.73617 30.7835 6.10192 31.8851 4.69935 33.2875C3.29697 34.6898 2.19542 36.3242 1.42524 38.145C0.627005 40.0325 0.222276 42.0348 0.222276 44.0965V51.9125C0.222276 55.0972 2.81328 57.6883 5.99811 57.6883H36.5907C37.0763 57.6883 37.5591 57.6277 38.0255 57.5079L38.0474 57.5023ZM45.8603 55.7071C44.3951 55.7071 42.9867 55.3891 41.6743 54.7622C41.0237 54.4514 40.406 54.0667 39.8385 53.6187C39.1792 53.0981 38.5888 52.4937 38.0839 51.8225C36.8089 50.1278 36.1351 48.1081 36.1351 45.982C36.1351 44.1605 36.6424 42.384 37.6022 40.8442C38.0465 40.132 38.5816 39.4788 39.1927 38.9028C39.7299 38.3968 40.3246 37.9518 40.9603 37.5803C42.4419 36.7145 44.1362 36.2568 45.8604 36.2568C51.2227 36.2568 55.5854 40.6196 55.5854 45.9821C55.5854 51.3445 51.2226 55.7071 45.8603 55.7071ZM45.8603 36.3569C44.154 36.3569 42.4769 36.8099 41.0107 37.6667C40.3817 38.0344 39.7931 38.4748 39.2613 38.9757C38.6565 39.5457 38.1269 40.1922 37.6871 40.8971C36.7373 42.421 36.2353 44.1793 36.2353 45.9819C36.2353 48.0861 36.9022 50.0849 38.164 51.7622C38.6637 52.4266 39.2479 53.0247 39.9006 53.5399C40.4621 53.9835 41.0735 54.3641 41.7176 54.6717C43.0164 55.2921 44.4102 55.6068 45.8604 55.6068C51.1675 55.6068 55.4852 51.289 55.4852 45.9819C55.4851 40.6747 51.1674 36.3569 45.8603 36.3569ZM34.1428 53.4957H5.99811C5.12512 53.4957 4.41486 52.7854 4.41486 51.9124V44.0964C4.41486 37.9794 9.39146 33.0029 15.5084 33.0029H27.0805C30.2548 33.0029 33.2833 34.3676 35.3895 36.747L35.4188 36.78L35.3897 36.8133C34.4089 37.9312 33.6177 39.1927 33.038 40.5631C32.3111 42.2816 31.9425 44.1048 31.9425 45.9819C31.9425 47.8589 32.3111 49.6821 33.038 51.4006C33.3337 52.0999 33.689 52.7789 34.0941 53.4187L34.1428 53.4957ZM15.5084 33.1031C9.44667 33.1031 4.51507 38.0347 4.51507 44.0964V51.9124C4.51507 52.7301 5.18033 53.3954 5.99811 53.3954H33.9611C33.5732 52.7736 33.2318 52.116 32.9457 51.4395C32.2135 49.7088 31.8422 47.8724 31.8422 45.9819C31.8422 44.0913 32.2135 42.255 32.9457 40.5241C33.5239 39.1574 34.3108 37.8982 35.2852 36.7805C33.1993 34.4427 30.2115 33.1031 27.0805 33.1031H15.5084V33.1031Z" fill="#0FA3B1"/>
<path d="M30.6325 3.91812C29.4211 2.70673 28.0093 1.75519 26.4363 1.08982C24.8055 0.400009 23.0756 0.050293 21.2949 0.050293C19.5141 0.050293 17.7841 0.400009 16.1534 1.08982C14.5804 1.75519 13.1685 2.70673 11.9572 3.91812C10.7459 5.1295 9.79425 6.54129 9.12888 8.11431C8.43907 9.74515 8.08936 11.475 8.08936 13.2558C8.08936 15.0367 8.43907 16.7665 9.12888 18.3974C9.79425 19.9704 10.7458 21.3822 11.9572 22.5936C13.1686 23.805 14.5805 24.7565 16.1534 25.4219C17.7842 26.1117 19.5141 26.4614 21.2949 26.4614C23.0756 26.4614 24.8056 26.1117 26.4363 25.4219C28.0094 24.7566 29.4212 23.805 30.6325 22.5936C31.8438 21.3822 32.7956 19.9704 33.4608 18.3974C34.1505 16.7666 34.5002 15.0367 34.5002 13.2558C34.5002 11.475 34.1505 9.74515 33.4608 8.11431C32.7956 6.54129 31.8438 5.1295 30.6325 3.91812ZM21.2948 22.1685C16.3724 22.1685 12.3821 18.1781 12.3821 13.2558C12.3821 8.33356 16.3725 4.34319 21.2948 4.34319C26.2172 4.34319 30.2075 8.33356 30.2075 13.2558C30.2075 18.1781 26.2172 22.1685 21.2948 22.1685Z" fill="#0FA3B1"/>
<path d="M21.2947 26.5112C19.5072 26.5112 17.7708 26.1602 16.1337 25.4677C14.5548 24.7998 13.1376 23.8447 11.9216 22.6286C10.7056 21.4126 9.75047 19.9955 9.0826 18.4165C8.39018 16.7796 8.03906 15.0431 8.03906 13.2556C8.03906 11.468 8.39008 9.73163 9.0826 8.09458C9.75047 6.51565 10.7056 5.09854 11.9216 3.88245C13.1376 2.66646 14.5547 1.71131 16.1337 1.04344C17.7706 0.351019 19.507 0 21.2947 0C23.0823 0 24.8186 0.351019 26.4557 1.04354C28.0347 1.71141 29.4518 2.66656 30.6678 3.88255C31.884 5.09884 32.8392 6.51595 33.5068 8.09468C34.1991 9.73173 34.5502 11.4682 34.5502 13.2557C34.5502 15.0431 34.1991 16.7796 33.5068 18.4166C32.8392 19.9953 31.884 21.4125 30.6678 22.6288C29.4518 23.8447 28.0346 24.7999 26.4557 25.4678C24.8187 26.1601 23.0824 26.5112 21.2947 26.5112ZM21.2947 0.100205C19.5205 0.100205 17.7972 0.448619 16.1727 1.13573C14.6056 1.79858 13.1991 2.74653 11.9924 3.9533C10.7856 5.16017 9.83765 6.56665 9.17479 8.13356C8.48768 9.75819 8.13927 11.4814 8.13927 13.2556C8.13927 15.0297 8.48768 16.7529 9.17479 18.3775C9.83755 19.9446 10.7855 21.3509 11.9924 22.5578C13.1991 23.7646 14.6057 24.7125 16.1727 25.3754C17.7973 26.0625 19.5206 26.4109 21.2947 26.4109C23.0688 26.4109 24.7921 26.0625 26.4166 25.3754C27.9836 24.7126 29.3901 23.7647 30.597 22.5578C31.8039 21.3507 32.752 19.9443 33.4144 18.3775C34.1015 16.7529 34.45 15.0296 34.45 13.2556C34.45 11.4815 34.1015 9.75819 33.4144 8.13356C32.752 6.56685 31.8039 5.16037 30.597 3.9533C29.3902 2.74653 27.9837 1.79858 26.4166 1.13573C24.792 0.448619 23.0687 0.100205 21.2947 0.100205ZM21.2946 22.2184C16.3525 22.2184 12.3319 18.1977 12.3319 13.2557C12.3319 8.31363 16.3526 4.29289 21.2946 4.29289C26.2366 4.29289 30.2574 8.31363 30.2574 13.2557C30.2574 18.1977 26.2367 22.2184 21.2946 22.2184ZM21.2946 4.393C16.4077 4.393 12.4321 8.36874 12.4321 13.2556C12.4321 18.1424 16.4078 22.1181 21.2946 22.1181C26.1814 22.1181 30.1572 18.1424 30.1572 13.2556C30.1572 8.36874 26.1814 4.393 21.2946 4.393Z" fill="#0FA3B1"/>
<path d="M41.0066 47.8008C40.1684 48.639 40.1684 49.9981 41.0066 50.8363C41.3984 51.228 41.904 51.4367 42.4169 51.4622C42.4527 51.464 42.4886 51.4649 42.5244 51.4649C43.0737 51.4649 43.6229 51.2554 44.0421 50.8363L45.8604 49.018L47.6787 50.8363C48.098 51.2555 48.6471 51.4649 49.1964 51.4649C49.7458 51.4649 50.2952 51.2554 50.7141 50.8363C51.5524 49.9982 51.5524 48.6391 50.7141 47.8009L48.8958 45.9825L50.7141 44.1642C51.5524 43.3259 51.5524 41.9669 50.7141 41.1287C49.8759 40.2904 48.5168 40.2904 47.6786 41.1287L45.8603 42.9471L44.042 41.1287C43.4902 40.5769 42.7128 40.3885 42.0069 40.5631C41.6403 40.6538 41.2929 40.8422 41.0064 41.1287C40.1684 41.9669 40.1684 43.3259 41.0064 44.1642L42.4169 45.5745L42.825 45.9825L42.4169 46.3905L41.0066 47.8008Z" fill="#0FA3B1"/>
<path d="M49.1965 51.515C48.6099 51.515 48.0583 51.2865 47.6433 50.8717L45.8604 49.0887L44.0774 50.8717C43.6366 51.3124 43.0379 51.5439 42.4143 51.5122C41.8695 51.485 41.357 51.2576 40.9711 50.8717C40.5561 50.4567 40.3276 49.9052 40.3276 49.3185C40.3276 48.7318 40.5561 48.1802 40.9711 47.7653L42.7542 45.9823L40.9711 44.1994C40.1148 43.3429 40.1148 41.9495 40.9711 41.0931C41.2539 40.8102 41.608 40.61 41.9949 40.5143C42.1679 40.4716 42.3461 40.4499 42.5244 40.4499C43.1111 40.4499 43.6627 40.6783 44.0774 41.0931L45.8604 42.8761L47.6433 41.0931C48.0583 40.6782 48.6098 40.4497 49.1965 40.4497C49.7832 40.4497 50.3347 40.6782 50.7497 41.0931C51.1646 41.508 51.3931 42.0596 51.3931 42.6462C51.3931 43.2329 51.1646 43.7844 50.7497 44.1994L48.9667 45.9823L50.7497 47.7654C51.1646 48.1803 51.3931 48.7319 51.3931 49.3186C51.3931 49.9052 51.1646 50.4568 50.7497 50.8717C50.3349 51.2864 49.7833 51.515 49.1965 51.515ZM45.8604 48.947L47.7141 50.8008C48.1102 51.1967 48.6366 51.4148 49.1965 51.4148C49.7565 51.4148 50.283 51.1967 50.6788 50.8008C51.0747 50.4049 51.2929 49.8785 51.2929 49.3186C51.2929 48.7586 51.0747 48.2321 50.6788 47.8362L48.825 45.9823L50.6788 44.1285C51.0747 43.7326 51.2929 43.2062 51.2929 42.6462C51.2929 42.0863 51.0747 41.5599 50.6788 41.164C50.2829 40.768 49.7564 40.5499 49.1965 40.5499C48.6365 40.5499 48.1101 40.768 47.7141 41.164L45.8604 43.0178L44.0066 41.164C43.6108 40.7681 43.0844 40.5501 42.5244 40.5501C42.3541 40.5501 42.184 40.5708 42.019 40.6115C41.6497 40.7029 41.3118 40.8939 41.0419 41.164C40.2247 41.9812 40.2247 43.3112 41.0419 44.1285L42.8959 45.9823L41.0419 47.8361C40.646 48.232 40.4278 48.7585 40.4278 49.3185C40.4278 49.8784 40.646 50.4049 41.0419 50.8008C41.4104 51.1692 41.8995 51.3862 42.4192 51.4122C43.0141 51.4396 43.5857 51.2216 44.0066 50.8008L45.8604 48.947Z" fill="#0FA3B1"/>
</svg>
