<svg width="66" height="66" viewBox="0 0 66 66" fill="none" xmlns="http://www.w3.org/2000/svg">
<path d="M34.5796 33.2577C37.628 30.7064 39.5709 26.8805 39.5709 22.6049C39.5709 14.9448 33.3401 8.71191 25.6779 8.71191C18.0177 8.71191 11.7849 14.9448 11.7849 22.6049C11.7849 26.8805 13.7277 30.7064 16.7761 33.2577C9.15518 36.6732 3.82568 44.3168 3.82568 53.1959C3.82568 53.7755 3.86693 54.3468 3.91025 54.914L4.09587 57.29H44.8777L47.2846 57.16L47.4579 54.7696C47.4971 54.2498 47.5321 53.726 47.5321 53.1959C47.5301 44.3168 42.2006 36.6732 34.5796 33.2577ZM25.6758 13.8682C30.4938 13.8682 34.4126 17.7869 34.4126 22.6049C34.4126 27.4229 30.4938 31.3417 25.6758 31.3417C20.8578 31.3417 16.9391 27.4229 16.9391 22.6049C16.9391 17.7869 20.8578 13.8682 25.6758 13.8682ZM9.01287 52.1337C9.5615 43.4176 16.8277 36.4979 25.6779 36.4979C34.5281 36.4979 41.7922 43.4176 42.3408 52.1337H9.01287ZM44.2796 24.3189H59.5998C61.0229 24.3189 62.1779 23.1639 62.1779 21.7407C62.1779 20.3176 61.0229 19.1626 59.5998 19.1626H44.2796C42.8564 19.1626 41.7014 20.3176 41.7014 21.7407C41.7014 23.1639 42.8544 24.3189 44.2796 24.3189ZM59.5977 29.1698H44.2775C42.8544 29.1698 41.6994 30.3248 41.6994 31.748C41.6994 33.1711 42.8544 34.3261 44.2775 34.3261H59.5977C61.0209 34.3261 62.1759 33.1711 62.1759 31.748C62.1759 30.3248 61.0229 29.1698 59.5977 29.1698ZM59.5977 39.175H49.6152C48.1921 39.175 47.0371 40.33 47.0371 41.7532C47.0371 43.1763 48.1921 44.3313 49.6152 44.3313H59.5977C61.0209 44.3313 62.1759 43.1763 62.1759 41.7532C62.1759 40.33 61.0229 39.175 59.5977 39.175Z" fill="#075459"/>
</svg>
