<svg width="65" height="65" viewBox="0 0 65 65" fill="none" xmlns="http://www.w3.org/2000/svg">
<g clip-path="url(#clip0)">
<path d="M64.0127 15.6966C62.9755 12.5919 61.1537 9.79114 58.7444 7.59712C56.3327 5.40109 53.4321 3.90391 50.3561 3.26758C49.1972 3.02781 48.0055 2.90625 46.8144 2.90625C43.339 2.90625 39.9589 3.93726 37.0397 5.88788C35.2823 7.06216 33.7386 8.53498 32.4669 10.238C31.1955 8.53825 29.6529 7.06822 27.8973 5.89623C24.9795 3.94847 21.6018 2.91892 18.129 2.91892C18.1288 2.91892 18.1291 2.91892 18.129 2.91892C15.2354 2.91892 12.3312 3.66873 9.73128 5.0871C7.13325 6.50443 4.88004 8.56659 3.21545 11.0506C1.50984 13.5957 0.470896 16.4456 0.127413 19.5211C-0.173334 22.2145 0.0589284 25.1059 0.817897 28.1148C2.32137 34.0753 5.64916 39.5121 8.17611 43.0234C13.6705 50.6579 21.225 57.5877 31.2715 64.2089L32.4717 64.9998L33.6719 64.2089C46.0294 56.0646 54.6549 47.4659 60.0408 37.9215C63.1384 32.4323 64.7521 27.5422 64.9743 22.9717C65.0981 20.4245 64.7745 17.9768 64.0127 15.6966ZM32.4718 59.3993C23.4963 53.3356 16.7179 47.0357 11.7774 40.1707C9.49417 36.998 6.49626 32.121 5.18026 26.9037C4.56675 24.4714 4.37464 22.173 4.60929 20.072C4.86451 17.7868 5.63748 15.6677 6.9069 13.7735C8.1574 11.9075 9.85398 10.3562 11.8131 9.28743C13.7729 8.21828 15.9569 7.65317 18.129 7.65317C20.7421 7.65317 23.2822 8.42686 25.4746 9.89048C27.6117 11.3171 29.3298 13.3297 30.4429 15.7105L32.4709 20.0472L34.4952 15.7087C35.6073 13.325 37.3254 11.3098 39.4638 9.88109C41.6575 8.4153 44.1991 7.64057 46.8144 7.64057C47.7131 7.64057 48.611 7.73205 49.4831 7.91243C51.7884 8.38933 53.9681 9.51662 55.7865 11.1725C57.6041 12.8276 58.976 14.9336 59.7542 17.2626C60.3214 18.9603 60.5614 20.8 60.4675 22.7307C60.2836 26.5166 58.8738 30.6966 56.1578 35.5097C51.3193 44.0838 43.563 51.9089 32.4718 59.3993Z" fill="#075459"/>
</g>
<defs>
<clipPath id="clip0">
<rect width="65" height="65" fill="white"/>
</clipPath>
</defs>
</svg>
