<svg width="60" height="60" viewBox="0 0 60 60" fill="none" xmlns="http://www.w3.org/2000/svg">
<g clip-path="url(#clip0)">
<path d="M57.296 58.1906L57.2237 58.2597L51.2841 52.0468C49.4691 53.3991 47.228 54.2096 44.796 54.2096C38.7878 54.2096 33.9 49.3218 33.9 43.3136C33.9 37.3053 38.7878 32.4186 44.796 32.4186C50.8042 32.4186 55.692 37.3063 55.692 43.3146C55.692 46.0993 54.6334 48.6345 52.9085 50.5626L58.8132 56.7394L57.296 58.1906ZM57.296 58.1906L57.2237 58.2597C57.4393 58.4851 57.7288 58.5996 58.019 58.5996C58.2928 58.5996 58.5658 58.4983 58.779 58.2949L58.7792 58.2947M57.296 58.1906L58.7792 58.2947M58.7792 58.2947C59.2169 57.8747 59.2336 57.1785 58.8133 56.7395L58.7792 58.2947ZM36.1 43.3136C36.1 38.5188 40.0012 34.6176 44.796 34.6176C49.5908 34.6176 53.492 38.5188 53.492 43.3136C53.492 48.1083 49.5908 52.0096 44.796 52.0096C40.0012 52.0096 36.1 48.1083 36.1 43.3136Z" fill="#075459" stroke="#075459" stroke-width="0.2"/>
<path d="M25.6123 53.3398L25.6125 53.3399C26.2398 53.3867 26.8692 53.4176 27.5 53.4176C28.1081 53.4176 28.601 53.9092 28.601 54.5176C28.601 55.1258 28.1092 55.6176 27.501 55.6176C26.7416 55.6176 25.9928 55.5784 25.2499 55.5182L25.2491 55.5182C25.2051 55.5143 25.1607 55.5111 25.1153 55.5078L25.1143 55.5077C25.0695 55.5045 25.0238 55.5012 24.9781 55.4972L24.978 55.4972C24.234 55.4299 23.4993 55.3295 22.773 55.2041L22.7725 55.204C22.7104 55.193 22.6492 55.182 22.5883 55.171L22.606 55.0726L22.5882 55.171C20.2479 54.7485 18.0098 54.0329 15.9132 53.0584M25.6123 53.3398L15.955 52.9676M25.6123 53.3398C25.585 53.3378 25.5578 53.3359 25.5308 53.334C25.4489 53.3282 25.3685 53.3224 25.2882 53.315L25.2878 53.315M25.6123 53.3398L25.2878 53.315M15.9132 53.0584C15.9131 53.0584 15.913 53.0583 15.9128 53.0583L15.955 52.9676M15.9132 53.0584C15.9132 53.0584 15.9133 53.0585 15.9133 53.0585L15.955 52.9676M15.9132 53.0584C15.8951 53.0501 15.8749 53.0411 15.8541 53.0319C15.8259 53.0194 15.7968 53.0064 15.7706 52.9941L15.7704 52.994C15.1268 52.6908 14.4985 52.3606 13.8835 52.0105L13.8829 52.0101C13.7602 51.9403 13.6367 51.87 13.5142 51.7977L13.5141 51.7977C12.9523 51.4656 12.4024 51.1154 11.8665 50.7461M15.955 52.9676C15.934 52.958 15.9132 52.9487 15.8925 52.9395C15.8659 52.9277 15.8394 52.916 15.813 52.9036C15.172 52.6016 14.546 52.2726 13.933 51.9236C13.81 51.8536 13.687 51.7836 13.565 51.7116C13.005 51.3806 12.457 51.0316 11.923 50.6636M11.8665 50.7461L11.923 50.6636M11.8665 50.7461C11.7205 50.6461 11.5768 50.5422 11.4347 50.4395C11.4149 50.4252 11.3952 50.4109 11.3755 50.3967C10.8742 50.0347 10.3813 49.6603 9.90517 49.2656L9.90458 49.2651C9.87907 49.2436 9.85181 49.2235 9.82118 49.201L9.82099 49.2009C9.79129 49.1791 9.7584 49.1549 9.72647 49.128L8.83454 48.376L8.74623 48.3016L8.77697 48.2743M11.8665 50.7461C11.8664 50.746 11.8663 50.746 11.8663 50.7459L11.923 50.6636M11.923 50.6636C11.7782 50.5644 11.6357 50.4614 11.4934 50.3585C11.4736 50.3442 11.4538 50.3299 11.434 50.3156C10.934 49.9546 10.443 49.5816 9.969 49.1886C9.9408 49.1648 9.91113 49.143 9.88133 49.1212C9.85089 49.0988 9.82031 49.0763 9.791 49.0516L8.97625 48.3647L8.96544 48.3743L8.77697 48.2743M8.77697 48.2743C3.32262 43.2296 -0.1 36.0161 -0.1 28.0176C-0.1 12.7993 12.2818 0.417578 27.5 0.417578C42.7182 0.417578 55.1 12.7993 55.1 28.0176C55.1 28.6258 54.6082 29.1176 54 29.1176C53.3918 29.1176 52.9 28.6258 52.9 28.0176C52.9 14.0128 41.5058 2.61758 27.5 2.61758C13.4942 2.61758 2.1 14.0118 2.1 28.0176C2.1 35.4822 5.33803 42.2017 10.4825 46.8537C10.7134 46.6914 10.9452 46.545 11.1792 46.4177L19.086 42.1048C19.771 41.7304 20.196 41.014 20.196 40.2346V37.3741C19.5629 36.5331 17.9231 34.1496 17.1142 31.0079C16.2608 30.2965 15.763 29.2508 15.763 28.1306V24.5856C15.763 23.7064 16.0819 22.8541 16.65 22.1798V17.5546C16.5965 17.015 16.4174 14.06 18.5578 11.6196C20.427 9.48675 23.4434 8.41758 27.5 8.41758C31.5566 8.41758 34.573 9.48675 36.4422 11.6196C38.5826 14.0601 38.4034 17.0131 38.35 17.5545V22.1797C38.9191 22.8541 39.237 23.7065 39.237 24.5856V28.1306C39.237 29.781 38.1669 31.2204 36.5755 31.7111L36.5751 31.7112C35.994 31.8881 35.3789 31.5653 35.2005 30.9851C35.0212 30.4054 35.3467 29.7883 35.9266 29.61C36.5819 29.4075 37.037 28.7984 37.037 28.1306V24.5856C37.037 24.1502 36.852 23.7428 36.513 23.4368L36.513 23.4368L36.183 23.1388L36.1499 23.109L36.15 23.0644L36.159 17.3634L36.159 17.3536L36.1595 17.3536L36.1596 17.3528C36.1653 17.2988 36.4199 14.911 34.7711 13.0489C33.3486 11.4439 30.9134 10.6166 27.5 10.6166C24.0736 10.6166 21.6306 11.4509 20.2122 13.0685L20.2122 13.0685C18.5481 14.9654 18.8379 17.3318 18.8402 17.3502L18.8409 17.3557L18.8408 17.3557L18.8498 17.4867L18.8502 17.4936H18.85V23.0636V23.108L18.817 23.1378L18.487 23.4358L18.42 23.3616L18.487 23.4358C18.147 23.7427 17.963 24.1492 17.963 24.5846V28.1296C17.963 28.6557 18.2329 29.1445 18.6863 29.4376L18.6864 29.4377L19.0274 29.6587L19.0614 29.6807L19.0705 29.7202L19.1615 30.1162L19.1615 30.1162C19.567 31.8838 20.3069 33.422 20.949 34.5222C21.2699 35.072 21.566 35.5118 21.7831 35.8154C21.8916 35.9672 21.9803 36.0849 22.0424 36.1652C22.0734 36.2054 22.0978 36.2362 22.1147 36.2572C22.1323 36.2793 22.1405 36.289 22.1401 36.2885L22.1421 36.2908L22.142 36.2908L22.372 36.5688L22.395 36.5966L22.395 36.6325L22.396 40.2346C22.396 41.8202 21.531 43.2768 20.1389 44.0364L12.268 48.3297C12.2724 48.3331 12.2769 48.3364 12.2813 48.3398L12.221 48.4196M8.77697 48.2743L15.6758 50.4871C15.6318 50.4648 15.5892 50.4432 15.5456 50.4196L15.5451 50.4194C15.0366 50.1477 14.5386 49.8539 14.047 49.5468C13.9016 49.4551 13.7572 49.3625 13.6137 49.2689C13.1611 48.9728 12.7149 48.665 12.281 48.3396L12.221 48.4196M12.221 48.4196C12.657 48.7466 13.105 49.0556 13.559 49.3526L12.233 48.3487L12.2319 48.3494L12.185 48.3757L12.1732 48.3824C12.189 48.3949 12.2049 48.4074 12.221 48.4196ZM25.2878 53.315C24.656 53.2592 24.0278 53.1845 23.4059 53.083C23.4056 53.083 23.4054 53.0829 23.4051 53.0829L23.3646 53.0756L23.3226 53.0681L23.3215 53.0679M25.2878 53.315L23.3215 53.0679M23.3215 53.0679C22.0047 52.8478 20.7088 52.5241 19.4468 52.1008L19.4466 52.1007M23.3215 53.0679L19.4466 52.1007M19.4466 52.1007C19.4385 52.098 19.4305 52.0954 19.4226 52.0927C19.3912 52.0823 19.3608 52.0722 19.3308 52.0614L19.3292 52.0609M19.4466 52.1007L19.3292 52.0609M19.3292 52.0609C18.7031 51.8479 18.0843 51.6131 17.4766 51.3516L19.3292 52.0609ZM17.4616 51.3447C16.8864 51.0969 16.3216 50.8221 15.7632 50.5319L17.4742 51.3505C17.472 51.3495 17.4701 51.3486 17.4691 51.3482L17.4667 51.3471L17.4668 51.347L17.4616 51.3447Z" fill="#075459" stroke="#075459" stroke-width="0.2"/>
</g>
<defs>
<clipPath id="clip0">
<rect width="59.018" height="59.018" fill="white"/>
</clipPath>
</defs>
</svg>
