<svg width="16" height="16" viewBox="0 0 16 16" fill="none" xmlns="http://www.w3.org/2000/svg">
<g clip-path="url(#clip0)">
<path d="M15.9988 6.46314L15.8541 1.21961C15.8379 0.633304 15.366 0.161387 14.7797 0.145159L9.53607 0.000443097C9.22976 -0.00812276 8.93997 0.107787 8.72401 0.323741L0.323225 8.72457C-0.107742 9.15553 -0.107742 9.85674 0.323225 10.2877L5.71151 15.676C6.14345 16.108 6.84263 16.1081 7.27469 15.676L15.6755 7.2752C15.8893 7.06138 16.0072 6.76537 15.9988 6.46314ZM13.5979 5.05925C12.8634 5.79374 11.6746 5.79381 10.94 5.05925C10.2072 4.32645 10.2072 3.1341 10.94 2.40134C11.6745 1.66681 12.8633 1.66677 13.5979 2.40134C14.3307 3.1341 14.3307 4.32645 13.5979 5.05925Z" fill="#F2F7F2"/>
</g>
<defs>
<clipPath id="clip0">
<rect width="16" height="16" fill="white"/>
</clipPath>
</defs>
</svg>
