<svg width="249" height="297" viewBox="0 0 249 297" fill="none" xmlns="http://www.w3.org/2000/svg">
<path d="M196.88 138.078L199.074 101.306H206.041C211.499 101.306 215.925 96.881 215.925 91.422V67.619C215.925 48.318 200.222 32.615 180.921 32.615H150.694V9.884C150.694 4.426 146.269 0 140.81 0H75.5789C70.1209 0 65.6949 4.425 65.6949 9.884V32.616H35.4669C16.1659 32.616 0.462891 48.319 0.462891 67.62V91.423C0.462891 96.881 4.88789 101.307 10.3469 101.307H17.3139L28.4379 287.706C28.7499 292.927 33.0749 297.001 38.3039 297.001H178.084C183.313 297.001 187.638 292.927 187.95 287.706L189.888 255.239C222.243 255.154 248.54 228.81 248.54 196.435C248.54 166.429 225.946 141.617 196.88 138.078ZM85.4619 19.767H130.926V32.616H85.4619V19.767V19.767ZM20.2309 81.539V67.619C20.2309 59.218 27.0659 52.383 35.4669 52.383H180.92C189.322 52.383 196.157 59.218 196.157 67.619V81.539H20.2309ZM179.242 101.8L177.021 139.028C173.559 139.794 170.206 140.855 167.001 142.203V101.8H179.242ZM49.3869 277.233H47.6149L37.1459 101.8H49.3869V277.233ZM80.8379 277.233H69.1539V101.306H80.8379V277.233ZM115.783 277.233H100.604V101.8H115.783V277.233ZM135.55 101.306H147.234V155.853C142.342 160.974 138.352 166.963 135.55 173.578V101.306ZM147.235 277.234H135.551V277.233V219.293C138.352 225.908 142.343 231.897 147.235 237.018V277.234ZM168.774 277.233H167.001V250.667C168.078 251.12 169.175 251.532 170.284 251.922L168.774 277.233ZM189.733 235.475C168.206 235.475 150.693 217.962 150.693 196.435C150.693 174.908 168.206 157.395 189.733 157.395C211.26 157.395 228.773 174.908 228.773 196.435C228.773 217.962 211.26 235.475 189.733 235.475Z" fill="#075459"/>
<path d="M213.03 173.138C209.169 169.279 202.913 169.279 199.052 173.138L189.733 182.457L180.414 173.138C176.553 169.279 170.297 169.279 166.436 173.138C162.576 176.998 162.576 183.256 166.436 187.116L175.755 196.435L166.436 205.754C162.576 209.614 162.576 215.872 166.436 219.732C168.366 221.661 170.895 222.627 173.425 222.627C175.955 222.627 178.484 221.662 180.414 219.732L189.733 210.413L199.052 219.732C200.982 221.661 203.511 222.627 206.041 222.627C208.571 222.627 211.1 221.662 213.03 219.732C216.89 215.872 216.89 209.614 213.03 205.754L203.711 196.435L213.03 187.116C216.89 183.256 216.89 176.998 213.03 173.138Z" fill="#075459"/>
</svg>
