<svg width="59" height="59" viewBox="0 0 59 59" fill="none" xmlns="http://www.w3.org/2000/svg">
<path d="M29.5 0.00195312C13.2337 0.00195312 0 13.2351 0 29.5003C0 45.7659 13.2337 58.9989 29.5 58.9989C45.7663 58.9989 59 45.7659 59 29.5003C59 13.2351 45.7663 0.00195312 29.5 0.00195312ZM29.5 53.6355C16.1912 53.6355 5.36364 42.8086 5.36364 29.5005C5.36364 16.1924 16.1912 5.36559 29.5 5.36559C42.8088 5.36559 53.6364 16.1924 53.6364 29.5003C53.6364 42.8088 42.8088 53.6355 29.5 53.6355Z" fill="#075459"/>
<path d="M29.5002 23.2441C28.0191 23.2441 26.8184 24.4449 26.8184 25.926V43.8017C26.8184 45.2828 28.0191 46.4835 29.5002 46.4835C30.9813 46.4835 32.182 45.2828 32.182 43.8017V25.926C32.182 24.4451 30.9813 23.2441 29.5002 23.2441Z" fill="#075459"/>
<path d="M29.5002 12.5176C28.794 12.5176 28.1037 12.8036 27.6032 13.3025C27.1044 13.8013 26.8184 14.4932 26.8184 15.1994C26.8184 15.9056 27.1044 16.5957 27.6032 17.0963C28.1021 17.5952 28.794 17.8812 29.5002 17.8812C30.2064 17.8812 30.8965 17.5952 31.3969 17.0963C31.8958 16.5957 32.182 15.9056 32.182 15.1994C32.182 14.4932 31.8958 13.8013 31.3969 13.3025C30.8965 12.8035 30.2064 12.5176 29.5002 12.5176Z" fill="#075459"/>
</svg>
