<svg width="60" height="60" viewBox="0 0 60 60" fill="none" xmlns="http://www.w3.org/2000/svg">
<g clip-path="url(#clip0)">
<path d="M32.8096 32.9772C36.3716 25.172 35.4279 27.2396 36.7122 24.4253V21.4526L37.3915 22.939L39.274 18.8145C39.3154 18.7215 39.3749 18.6434 39.4236 18.5551L36.8903 13.0067C36.5587 12.2739 35.8085 11.9609 35.0495 11.9609C34.1035 11.9609 28.5405 11.9609 27.977 11.9609C27.215 11.9609 26.465 12.2739 26.1332 13.0067L25.4965 14.4029C25.3321 15.4784 24.8727 16.4458 24.2001 17.2401C24.1873 17.256 24.1744 17.2727 24.1616 17.2886C24.1676 17.2896 24.1716 17.2896 24.1774 17.2906C25.2697 17.5134 26.158 18.2957 26.5372 19.1247L30.1517 27.0456C30.224 27.1286 32.6758 32.5267 32.8096 32.9772Z" fill="#075459"/>
<path d="M19.7976 17.8209C22.1674 17.8209 24.0884 15.8998 24.0884 13.531C24.0884 11.1593 22.1674 9.24023 19.7976 9.24023C17.428 9.24023 15.5059 11.1593 15.5059 13.531C15.5057 15.8997 17.4279 17.8209 19.7976 17.8209Z" fill="#075459"/>
<path d="M36.3507 39.9592L36.5578 38.9788C35.7606 39.2066 34.8664 39.1482 34.089 38.7917C33.2591 38.4134 32.6562 37.748 32.3145 36.9727V44.2986C32.3145 45.5146 33.3007 46.5 34.5167 46.5C35.7327 46.5 36.7181 45.5146 36.7181 44.2986V41.9594C36.3458 41.3644 36.2013 40.6564 36.3507 39.9592Z" fill="#075459"/>
<path d="M26.5951 35.2929L26.499 35.082L26.5011 35.2097L26.499 44.3438C26.499 45.7155 27.6091 46.4997 28.5062 46.4997C29.7233 46.4997 30.7085 45.5143 30.7085 44.2983V37.0416C29.1448 37.5706 27.2901 36.817 26.5951 35.2929Z" fill="#075459"/>
<path d="M31.5114 11.0825C33.882 11.0825 35.8031 9.16141 35.8031 6.79263C35.8031 4.42102 33.882 2.50195 31.5114 2.50195C29.1426 2.50195 27.2207 4.42102 27.2207 6.79263C27.2206 9.16141 29.1425 11.0825 31.5114 11.0825Z" fill="#075459"/>
<path d="M46.7466 17.2509C49.2441 17.2509 51.6227 15.1893 51.6227 12.375C51.6227 9.68147 49.4391 7.5 46.7466 7.5C44.0532 7.5 41.8706 9.68147 41.8706 12.375C41.8706 15.1834 44.2422 17.2509 46.7466 17.2509Z" fill="#075459"/>
<path d="M59.8109 34.6676L52.8584 19.4346C52.5146 18.6799 51.7739 18.2472 50.9986 18.2324H42.4942C41.7189 18.2472 40.9782 18.681 40.6344 19.4346L33.681 34.6676C33.2028 35.7153 33.6642 36.9523 34.7128 37.4304C35.7526 37.9068 36.9953 37.4523 37.4745 36.3986L39.6443 31.6454L37.8133 40.2684C37.6508 41.0271 38.2302 41.7489 39.0113 41.7489H40.8285V54.9936C40.8285 56.376 41.9496 57.496 43.3308 57.496C44.7133 57.496 45.8343 56.376 45.8343 54.9936V41.7489H47.6584V54.9936C47.6584 56.376 48.7784 57.496 50.1608 57.496C51.5424 57.496 52.6631 56.376 52.6631 54.9936V41.7489H54.4803C55.2625 41.7489 55.8408 41.0271 55.6794 40.2684L53.8474 31.6454L56.017 36.3986C56.4974 37.4524 57.7401 37.9069 58.7799 37.4304C59.8277 36.9521 60.2892 35.7153 59.8109 34.6676Z" fill="#075459"/>
<path d="M6.9399 32.5278L9.26693 27.4281L13.0577 19.1228C13.4746 18.2046 14.2986 17.5561 15.2611 17.3116V17.0778C14.5659 16.1935 14.1313 15.0517 14.0498 13.8615H7.35277C6.6457 13.8537 5.98735 14.1457 5.68617 14.8072L0.149502 26.9369C-0.230665 27.7716 0.136705 28.756 0.970591 29.1363C1.81314 29.5214 2.79284 29.1431 3.17093 28.3153L5.84762 22.451C5.84762 22.9281 5.8418 30.1858 5.8418 43.1227C5.8418 44.2228 6.73386 45.1151 7.83416 45.1151C8.93536 45.1151 9.82651 44.2228 9.82651 43.1227V37.2208C9.40369 37.2098 8.98177 37.1208 8.58376 36.9384C6.92698 36.183 6.16845 34.2133 6.9399 32.5278Z" fill="#075459"/>
<path d="M11.2803 36.9299V43.124C11.2803 44.1608 12.0824 44.9855 13.0953 45.0796V35.084L12.9983 35.2939C12.6549 36.0505 12.0201 36.6119 11.2803 36.9299Z" fill="#075459"/>
<path d="M10.5547 13.0664C12.6985 13.0664 14.4375 11.3284 14.4375 9.18455C14.4375 7.03966 12.6985 5.30273 10.5547 5.30273C8.40873 5.30273 6.6709 7.03966 6.6709 9.18455C6.6709 11.3284 8.40873 13.0664 10.5547 13.0664Z" fill="#075459"/>
<path d="M25.1764 19.7448C24.8435 19.0131 24.0944 18.6992 23.3355 18.6992C22.7091 18.6992 17.1371 18.6992 16.261 18.6992C15.4997 18.6992 14.7517 19.0111 14.4192 19.7448L8.30034 33.1489C7.88049 34.0699 8.28651 35.1591 9.2083 35.579C10.1234 35.9991 11.2167 35.5999 11.6386 34.6721L14.5976 28.1909L14.5915 51.0359C14.5915 52.2519 15.5769 53.2373 16.7929 53.2373C18.0099 53.2373 18.9952 52.2519 18.9952 51.0359V37.9121H20.6013V51.0359C20.6013 52.2519 21.5876 53.2373 22.8038 53.2373C24.0198 53.2373 25.005 52.2519 25.005 51.0359L24.9991 28.1937L27.9571 34.6721C28.3799 35.5999 29.4721 35.9991 30.387 35.579C31.3101 35.1591 31.716 34.0699 31.2952 33.1489L25.1764 19.7448Z" fill="#075459"/>
</g>
<defs>
<clipPath id="clip0">
<rect width="60" height="60" fill="white"/>
</clipPath>
</defs>
</svg>
