<svg width="102" height="102" viewBox="0 0 102 102" fill="none" xmlns="http://www.w3.org/2000/svg">
<g filter="url(#filter0_d)">
<circle cx="51" cy="47" r="47" fill="#12BFCE"/>
<path d="M70.1566 35.2363H23.957V66.6497H70.1566V35.2363ZM25.7983 57.4442H25.7984H32.867H33.2484H39.1026L25.7983 64.0962V57.4442ZM68.3152 64.0962L55.0111 57.4443H60.8653H61.652H68.3151V64.0962H68.3152ZM62.3348 55.6028H61.6521H61.6281L54.1293 48.1041C55.1779 46.8462 56.7453 46.0921 58.4087 46.0921C61.478 46.0921 63.9749 48.589 63.9749 51.6583C63.9749 53.1422 63.3805 54.5611 62.3348 55.6028ZM59.0242 55.6028H35.0896L39.7592 50.9331L42.5971 53.7711L49.8947 46.4734L59.0242 55.6028ZM47.9775 64.8085V60.5779H46.1363V64.8085H28.4914L43.2198 57.4442H46.1361V58.956H47.9773V57.4442H50.8935L65.622 64.8085H47.9775ZM68.3153 55.6028H64.6751C65.4116 54.4323 65.8163 53.0678 65.8163 51.6584C65.8163 47.5741 62.4933 44.251 58.4089 44.251C56.2526 44.251 54.2153 45.2009 52.8218 46.7966L49.8947 43.8695L42.5971 51.1673L39.7592 48.3293L32.4856 55.6028H25.7984V37.0776H68.3153V55.6028Z" fill="#F2F7F2"/>
<path d="M32.8289 24.3926V28.3356H28.8859V32.2786H21V69.6064H73.1141V67.635H77.0571V63.692H81V24.3926H32.8289ZM71.2727 67.7651H22.8414V34.1198H71.2727V67.7651ZM75.2157 65.7936H73.1141V32.2785H30.7273V30.1768H75.2157V65.7936ZM79.1587 61.8506H77.0571V28.3355H34.6703V26.2338H79.1587V61.8506Z" fill="#F2F7F2"/>
<path d="M37.6926 39.1797H27.8354V41.0211H37.6926V39.1797Z" fill="#F2F7F2"/>
<path d="M29.8069 43.1211H27.8354V44.9623H29.8069V43.1211Z" fill="#F2F7F2"/>
<path d="M33.7493 43.1211H31.7778V44.9623H33.7493V43.1211Z" fill="#F2F7F2"/>
<path d="M37.6921 43.1211H35.7207V44.9623H37.6921V43.1211Z" fill="#F2F7F2"/>
</g>
<defs>
<filter id="filter0_d" x="0" y="0" width="102" height="102" filterUnits="userSpaceOnUse" color-interpolation-filters="sRGB">
<feFlood flood-opacity="0" result="BackgroundImageFix"/>
<feColorMatrix in="SourceAlpha" type="matrix" values="0 0 0 0 0 0 0 0 0 0 0 0 0 0 0 0 0 0 127 0"/>
<feOffset dy="4"/>
<feGaussianBlur stdDeviation="2"/>
<feColorMatrix type="matrix" values="0 0 0 0 0 0 0 0 0 0 0 0 0 0 0 0 0 0 0.25 0"/>
<feBlend mode="normal" in2="BackgroundImageFix" result="effect1_dropShadow"/>
<feBlend mode="normal" in="SourceGraphic" in2="effect1_dropShadow" result="shape"/>
</filter>
</defs>
</svg>
