<svg width="60" height="60" viewBox="0 0 60 60" fill="none" xmlns="http://www.w3.org/2000/svg">
<path d="M49.1566 18.2363H2.95703V49.6497H49.1566V18.2363ZM4.79828 40.4442H4.7984H11.867H12.2484H18.1026L4.79828 47.0962V40.4442ZM47.3152 47.0962L34.0111 40.4443H39.8653H40.652H47.3151V47.0962H47.3152ZM41.3348 38.6028H40.6521H40.6281L33.1293 31.1041C34.1779 29.8462 35.7453 29.0921 37.4087 29.0921C40.478 29.0921 42.9749 31.589 42.9749 34.6583C42.9749 36.1422 42.3805 37.5611 41.3348 38.6028ZM38.0242 38.6028H14.0896L18.7592 33.9331L21.5971 36.7711L28.8947 29.4734L38.0242 38.6028ZM26.9775 47.8085V43.5779H25.1363V47.8085H7.49137L22.2198 40.4442H25.1361V41.956H26.9773V40.4442H29.8935L44.622 47.8085H26.9775ZM47.3153 38.6028H43.6751C44.4116 37.4323 44.8163 36.0678 44.8163 34.6584C44.8163 30.5741 41.4933 27.251 37.4089 27.251C35.2526 27.251 33.2153 28.2009 31.8218 29.7966L28.8947 26.8695L21.5971 34.1673L18.7592 31.3293L11.4856 38.6028H4.7984V20.0776H47.3153V38.6028Z" fill="#F2F7F2"/>
<path d="M11.8289 7.39258V11.3356H7.8859V15.2786H0V52.6064H52.1141V50.635H56.0571V46.692H60V7.39258H11.8289ZM50.2727 50.7651H1.84137V17.1198H50.2727V50.7651ZM54.2157 48.7936H52.1141V15.2785H9.72727V13.1768H54.2157V48.7936ZM58.1587 44.8506H56.0571V11.3355H13.6703V9.23383H58.1587V44.8506Z" fill="#F2F7F2"/>
<path d="M16.6921 22.1797H6.83496V24.0211H16.6921V22.1797Z" fill="#F2F7F2"/>
<path d="M8.80641 26.1211H6.83496V27.9623H8.80641V26.1211Z" fill="#F2F7F2"/>
<path d="M12.7488 26.1211H10.7773V27.9623H12.7488V26.1211Z" fill="#F2F7F2"/>
<path d="M16.6921 26.1211H14.7207V27.9623H16.6921V26.1211Z" fill="#F2F7F2"/>
</svg>
