<svg width="60" height="60" viewBox="0 0 60 60" fill="none" xmlns="http://www.w3.org/2000/svg">
<g clip-path="url(#clip0)">
<path d="M50 25.88C50 13.75 38.125 5 25 5C11.7975 5 0 13.8175 0 25.88C0 30.155 1.5375 34.355 4.2625 37.6175C4.38 41.435 2.1375 46.915 0.1125 50.8975C5.5325 49.92 13.2425 47.7525 16.7325 45.61C35.9775 50.3025 50 38.505 50 25.88ZM13.75 29.3325C12.0275 29.3325 10.625 27.9325 10.625 26.2075C10.625 24.4825 12.0275 23.0825 13.75 23.0825C15.4725 23.0825 16.875 24.4825 16.875 26.2075C16.875 27.9325 15.4725 29.3325 13.75 29.3325ZM25 29.3325C23.2775 29.3325 21.875 27.9325 21.875 26.2075C21.875 24.4825 23.2775 23.0825 25 23.0825C26.7225 23.0825 28.125 24.4825 28.125 26.2075C28.125 27.9325 26.7225 29.3325 25 29.3325ZM36.25 29.3325C34.5275 29.3325 33.125 27.9325 33.125 26.2075C33.125 24.4825 34.5275 23.0825 36.25 23.0825C37.9725 23.0825 39.375 24.4825 39.375 26.2075C39.375 27.9325 37.9725 29.3325 36.25 29.3325ZM53.84 32.935C53.4375 34.155 52.9375 35.3375 52.3375 36.475C56.53 39.63 57.98 44.54 53.4975 49.8875C53.445 51.75 53.375 52.51 53.8425 54.55C51.6125 53.7825 51.395 53.57 49.68 52.5175C44.3625 53.815 39.0175 54.2575 34.4575 50.38C33.0525 50.7775 31.595 51.075 30.1075 51.29C33.89 55.9825 40.8525 58.5325 49.05 56.54C51.335 57.9425 56.3825 59.3575 59.93 60.0025C58.605 57.39 57.1375 53.805 57.21 51.305C61.5975 46.06 61.0675 37.715 53.84 32.935Z" fill="#F2F7F2"/>
</g>
<defs>
<clipPath id="clip0">
<rect width="60" height="60" fill="white"/>
</clipPath>
</defs>
</svg>
