<svg width="102" height="102" viewBox="0 0 102 102" fill="none" xmlns="http://www.w3.org/2000/svg">
<g filter="url(#filter0_d)">
<circle cx="51" cy="47" r="47" fill="#075459"/>
<g clip-path="url(#clip0)">
<path d="M76.3448 46.3448L51.0011 71.689L25.6562 46.3446C24.5913 45.2797 22.8644 45.2795 21.7993 46.3448C20.7342 47.4099 20.7342 49.1366 21.7993 50.2017L49.0728 77.4744C49.5842 77.9859 50.2779 78.2732 51.0011 78.2732C51.7244 78.2732 52.4182 77.9857 52.9295 77.4743L80.2015 50.2015C81.2666 49.1364 81.2666 47.4097 80.2015 46.3446C79.1366 45.2797 77.4097 45.2795 76.3448 46.3448Z" fill="#F2F7F2"/>
<path d="M49.0728 55.6562C49.5842 56.1676 50.2779 56.4549 51.0011 56.4549C51.7244 56.4549 52.4182 56.1675 52.9295 55.656L80.2015 28.3833C81.2666 27.3182 81.2666 25.5914 80.2015 24.5264C79.1366 23.4613 77.4097 23.4613 76.3446 24.5264L51.0009 49.8705L25.6562 24.5264C24.5913 23.4613 22.8644 23.4613 21.7993 24.5264C20.7342 25.5914 20.7342 27.3182 21.7993 28.3833L49.0728 55.6562Z" fill="#F2F7F2"/>
</g>
</g>
<defs>
<filter id="filter0_d" x="0" y="0" width="102" height="102" filterUnits="userSpaceOnUse" color-interpolation-filters="sRGB">
<feFlood flood-opacity="0" result="BackgroundImageFix"/>
<feColorMatrix in="SourceAlpha" type="matrix" values="0 0 0 0 0 0 0 0 0 0 0 0 0 0 0 0 0 0 127 0"/>
<feOffset dy="4"/>
<feGaussianBlur stdDeviation="2"/>
<feColorMatrix type="matrix" values="0 0 0 0 0 0 0 0 0 0 0 0 0 0 0 0 0 0 0.25 0"/>
<feBlend mode="normal" in2="BackgroundImageFix" result="effect1_dropShadow"/>
<feBlend mode="normal" in="SourceGraphic" in2="effect1_dropShadow" result="shape"/>
</filter>
<clipPath id="clip0">
<rect width="60" height="60" fill="white" transform="translate(21 21)"/>
</clipPath>
</defs>
</svg>
