<svg width="60" height="60" viewBox="0 0 60 60" fill="none" xmlns="http://www.w3.org/2000/svg">
<path d="M57 0H13C11.346 0 9.99996 1.34602 9.99996 3V6H3C1.34602 6 0 7.34602 0 9V57C0 58.654 1.34602 60 3 60H41C42.654 60 44 58.654 44 57V12C44 9.79395 45.7941 8.00004 48 8.00004C50.2061 8.00004 52 9.79406 52 12V47C52 49.2061 53.794 51 55.9999 51C58.2059 51 60 49.206 60 47V3C60 1.34602 58.654 0 57 0ZM16 56H6C5.44699 56 5.00004 55.552 5.00004 55.0001C5.00004 54.4481 5.44699 54.0001 6 54.0001H16C16.553 54.0001 16.9999 54.4481 16.9999 55.0001C16.9999 55.552 16.553 56 16 56ZM20 51H6C5.44699 51 5.00004 50.552 5.00004 50C5.00004 49.4481 5.44699 49.0001 6 49.0001H20C20.553 49.0001 21 49.4481 21 50C21 50.552 20.553 51 20 51ZM20 46H6C5.44699 46 5.00004 45.552 5.00004 45C5.00004 44.448 5.44699 44 6 44H20C20.553 44 21 44.448 21 45C21 45.552 20.553 46 20 46ZM20 41H6C5.44699 41 5.00004 40.552 5.00004 40.0001C5.00004 39.4481 5.44699 39.0001 6 39.0001H20C20.553 39.0001 21 39.4481 21 40.0001C21 40.552 20.553 41 20 41ZM20 36H6C5.44699 36 5.00004 35.552 5.00004 35C5.00004 34.4481 5.44699 34.0001 6 34.0001H20C20.553 34.0001 21 34.4481 21 35C21 35.552 20.553 36 20 36ZM6.99996 30V17C6.99996 16.4481 7.44691 16.0001 7.99992 16.0001H36C36.553 16.0001 37 16.4481 37 17V30C37 30.552 36.553 31 36 31H8.00004C7.44703 31 6.99996 30.552 6.99996 30ZM32 56H26C25.447 56 25.0001 55.552 25.0001 55.0001C25.0001 54.4481 25.447 54.0001 26 54.0001H32C32.553 54.0001 33 54.4481 33 55.0001C33 55.552 32.553 56 32 56ZM38 51H26C25.447 51 25.0001 50.552 25.0001 50C25.0001 49.4481 25.447 49.0001 26 49.0001H38C38.553 49.0001 39 49.4481 39 50C39 50.552 38.553 51 38 51ZM38 46H26C25.447 46 25.0001 45.552 25.0001 45C25.0001 44.448 25.447 44 26 44H38C38.553 44 39 44.448 39 45C39 45.552 38.553 46 38 46ZM38 41H26C25.447 41 25.0001 40.552 25.0001 40.0001C25.0001 39.4481 25.447 39.0001 26 39.0001H38C38.553 39.0001 39 39.4481 39 40.0001C39 40.552 38.553 41 38 41ZM38 36H26C25.447 36 25.0001 35.552 25.0001 35C25.0001 34.4481 25.447 34.0001 26 34.0001H38C38.553 34.0001 39 34.4481 39 35C39 35.552 38.553 36 38 36ZM38 13H6C5.44699 13 5.00004 12.552 5.00004 12C5.00004 11.448 5.44699 11 6 11H38C38.553 11 39 11.448 39 12C39 12.552 38.553 13 38 13ZM58 47C58 48.103 57.103 49.0001 55.9999 49.0001C54.8968 49.0001 53.9999 48.1031 53.9999 47V12C53.9999 8.69098 51.3089 6 47.9999 6H12V3C12 2.44898 12.448 2.00004 13 2.00004H57C57.552 2.00004 58 2.44898 58 3V47Z" fill="#F2F7F2"/>
<path d="M48 11C47.447 11 47 11.448 47 12V56C47 56.552 47.447 57 48 57C48.553 57 48.9999 56.552 48.9999 56V12C48.9999 11.448 48.553 11 48 11Z" fill="#F2F7F2"/>
<path d="M35 18H9V29H35V18Z" fill="#F2F7F2"/>
</svg>
