<svg width="102" height="102" viewBox="0 0 102 102" fill="none" xmlns="http://www.w3.org/2000/svg">
<g filter="url(#filter0_d)">
<circle cx="51" cy="47" r="47" fill="#12BFCE"/>
<path d="M78 17H34C32.346 17 31 18.346 31 20V23H24C22.346 23 21 24.346 21 26V74C21 75.654 22.346 77 24 77H62C63.654 77 65 75.654 65 74V29C65 26.7939 66.7941 25 69 25C71.2061 25 73 26.7941 73 29V64C73 66.2061 74.794 68 76.9999 68C79.2059 68 81 66.206 81 64V20C81 18.346 79.654 17 78 17ZM37 73H27C26.447 73 26 72.552 26 72.0001C26 71.4481 26.447 71.0001 27 71.0001H37C37.553 71.0001 37.9999 71.4481 37.9999 72.0001C37.9999 72.552 37.553 73 37 73ZM41 68H27C26.447 68 26 67.552 26 67C26 66.4481 26.447 66.0001 27 66.0001H41C41.553 66.0001 42 66.4481 42 67C42 67.552 41.553 68 41 68ZM41 63H27C26.447 63 26 62.552 26 62C26 61.448 26.447 61 27 61H41C41.553 61 42 61.448 42 62C42 62.552 41.553 63 41 63ZM41 58H27C26.447 58 26 57.552 26 57.0001C26 56.4481 26.447 56.0001 27 56.0001H41C41.553 56.0001 42 56.4481 42 57.0001C42 57.552 41.553 58 41 58ZM41 53H27C26.447 53 26 52.552 26 52C26 51.4481 26.447 51.0001 27 51.0001H41C41.553 51.0001 42 51.4481 42 52C42 52.552 41.553 53 41 53ZM28 47V34C28 33.4481 28.4469 33.0001 28.9999 33.0001H57C57.553 33.0001 58 33.4481 58 34V47C58 47.552 57.553 48 57 48H29C28.447 48 28 47.552 28 47ZM53 73H47C46.447 73 46.0001 72.552 46.0001 72.0001C46.0001 71.4481 46.447 71.0001 47 71.0001H53C53.553 71.0001 54 71.4481 54 72.0001C54 72.552 53.553 73 53 73ZM59 68H47C46.447 68 46.0001 67.552 46.0001 67C46.0001 66.4481 46.447 66.0001 47 66.0001H59C59.553 66.0001 60 66.4481 60 67C60 67.552 59.553 68 59 68ZM59 63H47C46.447 63 46.0001 62.552 46.0001 62C46.0001 61.448 46.447 61 47 61H59C59.553 61 60 61.448 60 62C60 62.552 59.553 63 59 63ZM59 58H47C46.447 58 46.0001 57.552 46.0001 57.0001C46.0001 56.4481 46.447 56.0001 47 56.0001H59C59.553 56.0001 60 56.4481 60 57.0001C60 57.552 59.553 58 59 58ZM59 53H47C46.447 53 46.0001 52.552 46.0001 52C46.0001 51.4481 46.447 51.0001 47 51.0001H59C59.553 51.0001 60 51.4481 60 52C60 52.552 59.553 53 59 53ZM59 30H27C26.447 30 26 29.552 26 29C26 28.448 26.447 28 27 28H59C59.553 28 60 28.448 60 29C60 29.552 59.553 30 59 30ZM79 64C79 65.103 78.103 66.0001 76.9999 66.0001C75.8968 66.0001 74.9999 65.1031 74.9999 64V29C74.9999 25.691 72.3089 23 68.9999 23H33V20C33 19.449 33.448 19 34 19H78C78.552 19 79 19.449 79 20V64Z" fill="#F2F7F2"/>
<path d="M69 28C68.447 28 68 28.448 68 29V73C68 73.552 68.447 74 69 74C69.553 74 69.9999 73.552 69.9999 73V29C69.9999 28.448 69.553 28 69 28Z" fill="#F2F7F2"/>
<path d="M56 35H30V46H56V35Z" fill="#F2F7F2"/>
</g>
<defs>
<filter id="filter0_d" x="0" y="0" width="102" height="102" filterUnits="userSpaceOnUse" color-interpolation-filters="sRGB">
<feFlood flood-opacity="0" result="BackgroundImageFix"/>
<feColorMatrix in="SourceAlpha" type="matrix" values="0 0 0 0 0 0 0 0 0 0 0 0 0 0 0 0 0 0 127 0"/>
<feOffset dy="4"/>
<feGaussianBlur stdDeviation="2"/>
<feColorMatrix type="matrix" values="0 0 0 0 0 0 0 0 0 0 0 0 0 0 0 0 0 0 0.25 0"/>
<feBlend mode="normal" in2="BackgroundImageFix" result="effect1_dropShadow"/>
<feBlend mode="normal" in="SourceGraphic" in2="effect1_dropShadow" result="shape"/>
</filter>
</defs>
</svg>
