<svg width="54" height="54" viewBox="0 0 54 54" fill="none" xmlns="http://www.w3.org/2000/svg">
<g clip-path="url(#clip0)">
<path d="M45.2696 38.3268L40.4777 31.5467V18.3005C40.4777 11.5398 35.4738 5.92639 28.9753 4.96768V1.97564C28.9753 0.884566 28.0907 0 26.9997 0C25.9087 0 25.0241 0.884566 25.0241 1.97564V4.96758C18.5255 5.92629 13.5216 11.5397 13.5216 18.3004V31.5467L8.7298 38.3268C7.80737 39.6318 8.74151 41.4426 10.343 41.4426H43.6564C45.2545 41.4427 46.1941 39.6345 45.2696 38.3268Z" fill="#F2F7F2"/>
<path d="M27 42.8535C23.9269 42.8535 21.4268 45.3535 21.4268 48.4267C21.4268 51.4998 23.927 54.0002 27 54.0002C30.0732 54.0002 32.5732 51.4999 32.5732 48.4269C32.5732 45.3538 30.0731 42.8535 27 42.8535Z" fill="#F2F7F2"/>
</g>
<defs>
<clipPath id="clip0">
<rect width="54" height="54" fill="white"/>
</clipPath>
</defs>
</svg>
