<svg width="54" height="54" viewBox="0 0 54 54" fill="none" xmlns="http://www.w3.org/2000/svg">
<g clip-path="url(#clip0)">
<path d="M46.91 53.7254L34.2258 40.9445C30.7494 43.2365 26.5944 44.5806 22.1112 44.5806C9.88634 44.5806 0 34.5967 0 22.2786C0 9.98394 9.88518 0 22.1112 0C34.3151 0 44.22 9.98394 44.22 22.2786C44.22 26.5787 43.0183 30.5853 40.9396 33.9796L53.7143 46.8493C54.3906 47.512 53.8233 49.1647 52.4662 50.5287L50.5638 52.4502C49.2067 53.8142 47.5665 54.3858 46.91 53.7254ZM36.8728 22.2786C36.8728 14.0584 30.2669 7.40322 22.11 7.40322C13.952 7.40322 7.32631 14.0584 7.32631 22.2786C7.32631 30.4988 13.952 37.1751 22.11 37.1751C30.2669 37.1751 36.8728 30.5 36.8728 22.2786Z" fill="#F2F7F2"/>
</g>
<defs>
<clipPath id="clip0">
<rect width="54" height="54" fill="white"/>
</clipPath>
</defs>
</svg>
