<svg width="48" height="48" viewBox="0 0 48 48" fill="none" xmlns="http://www.w3.org/2000/svg">
<path d="M24 8C20.8355 8 17.7421 8.93838 15.1109 10.6965C12.4797 12.4546 10.4289 14.9534 9.21793 17.8771C8.00693 20.8007 7.69008 24.0177 8.30744 27.1214C8.92481 30.2251 10.4487 33.0761 12.6863 35.3137C14.9239 37.5513 17.7749 39.0752 20.8786 39.6926C23.9823 40.3099 27.1993 39.9931 30.1229 38.7821C33.0466 37.5711 35.5454 35.5203 37.3035 32.8891C39.0616 30.2579 40 27.1645 40 24C40 19.7565 38.3143 15.6869 35.3137 12.6863C32.3131 9.68571 28.2435 8 24 8V8ZM22.0133 16C22.0133 15.4696 22.2241 14.9609 22.5991 14.5858C22.9742 14.2107 23.4829 14 24.0133 14C24.5438 14 25.0525 14.2107 25.4276 14.5858C25.8026 14.9609 26.0133 15.4696 26.0133 16V25.1867C26.0133 25.4493 25.9616 25.7094 25.8611 25.952C25.7606 26.1947 25.6133 26.4152 25.4276 26.6009C25.2418 26.7866 25.0214 26.9339 24.7787 27.0344C24.5361 27.1349 24.276 27.1867 24.0133 27.1867C23.7507 27.1867 23.4906 27.1349 23.248 27.0344C23.0053 26.9339 22.7848 26.7866 22.5991 26.6009C22.4134 26.4152 22.2661 26.1947 22.1656 25.952C22.0651 25.7094 22.0133 25.4493 22.0133 25.1867V16ZM24 34C23.5464 34 23.103 33.8655 22.7259 33.6135C22.3488 33.3615 22.0548 33.0033 21.8812 32.5843C21.7077 32.1652 21.6623 31.7041 21.7507 31.2593C21.8392 30.8144 22.0576 30.4058 22.3784 30.085C22.6991 29.7643 23.1077 29.5459 23.5526 29.4574C23.9975 29.3689 24.4586 29.4143 24.8776 29.5879C25.2967 29.7615 25.6549 30.0554 25.9068 30.4326C26.1588 30.8097 26.2933 31.2531 26.2933 31.7067C26.2933 32.3149 26.0517 32.8982 25.6216 33.3283C25.1916 33.7584 24.6082 34 24 34Z" fill="#064045"/>
</svg>
