<svg width="493" height="124" viewBox="0 0 493 124" fill="none" xmlns="http://www.w3.org/2000/svg">
<path d="M182.216 98.7C178.549 98.7 176.016 97.9667 174.616 96.5C173.216 95.1 172.483 93.2667 172.416 91C172.416 89.0667 172.783 86.7667 173.516 84.1C174.316 81.3667 175.116 78.7667 175.916 76.3C178.049 69.9667 180.283 63.8 182.616 57.8C185.016 51.8 187.349 46.1333 189.616 40.8C191.949 35.4 194.016 30.5 195.816 26.1C191.283 26.1667 187.349 26.3 184.016 26.5C180.749 26.7 177.749 26.9667 175.016 27.3C172.283 27.5667 169.449 27.9667 166.516 28.5C166.849 25.7 168.149 23.5667 170.416 22.1C172.749 20.5667 175.849 19.5 179.716 18.9C183.583 18.3 188.016 18 193.016 18C196.949 18 200.516 18.1333 203.716 18.4C206.983 18.6 210.116 18.8667 213.116 19.2C217.316 19.6 220.649 19.8667 223.116 20C225.649 20.1333 227.449 20.2 228.516 20.2C226.516 22.0667 223.983 23.4333 220.916 24.3C217.916 25.1 214.749 25.6 211.416 25.8C208.083 26 204.916 26.1 201.916 26.1C198.716 33.9667 195.783 42.1333 193.116 50.6C190.449 59.0667 187.983 67.4333 185.716 75.7C184.849 78.9 184.116 81.6333 183.516 83.9C182.983 86.1 182.583 88.1333 182.316 90C182.049 91.8 181.916 93.7333 181.916 95.8C181.916 96.1333 181.916 96.5 181.916 96.9C181.983 97.3667 182.083 97.9667 182.216 98.7ZM221.752 92.6C219.285 92.6 217.285 91.9333 215.752 90.6C214.219 89.3333 213.452 87.6 213.452 85.4C213.452 83.5333 213.919 81.5333 214.852 79.4C215.785 77.2667 216.719 75.1667 217.652 73.1C218.652 71.0333 219.152 69.2 219.152 67.6C219.152 66.0667 218.652 64.8 217.652 63.8C216.652 62.7333 215.485 61.8667 214.152 61.2C212.685 64.8667 211.019 68.4333 209.152 71.9C207.352 75.3 205.885 77.9667 204.752 79.9L203.252 77C204.185 75.2667 205.419 72.8 206.952 69.6C208.485 66.4 209.952 62.8333 211.352 58.9C210.685 58.2333 210.352 57.3333 210.352 56.2C210.352 54.4667 210.885 52.8333 211.952 51.3C213.019 49.7667 214.052 49 215.052 49C215.852 49 216.419 49.4667 216.752 50.4C217.152 51.2667 217.352 51.8667 217.352 52.2C217.352 52.5333 217.185 53.1333 216.852 54C216.585 54.8667 216.385 55.5 216.252 55.9C216.319 56.6333 216.885 57.3667 217.952 58.1C219.085 58.7667 220.352 59.5667 221.752 60.5C223.152 61.4333 224.385 62.6 225.452 64C226.519 65.4 227.052 67.1667 227.052 69.3C227.052 71.2333 226.619 73.2 225.752 75.2C224.885 77.2 224.019 79.0667 223.152 80.8C222.285 82.5333 221.852 84.0333 221.852 85.3C221.852 86.2333 222.085 86.8667 222.552 87.2C223.085 87.4667 223.685 87.6 224.352 87.6C225.952 87.6 227.619 87.1333 229.352 86.2C231.085 85.2 232.785 83.9333 234.452 82.4C236.119 80.8667 237.585 79.2667 238.852 77.6C240.119 75.8667 241.085 74.3 241.752 72.9L244.152 74.7C242.885 77.5667 241.052 80.4 238.652 83.2C236.252 85.9333 233.585 88.2 230.652 90C227.719 91.7333 224.752 92.6 221.752 92.6ZM245.18 94.7C242.98 94.7 241.08 93.9667 239.48 92.5C237.813 91.0333 236.98 88.8333 236.98 85.9C236.98 83.5667 237.513 81.0333 238.58 78.3C239.647 75.5667 241.113 72.8667 242.98 70.2C244.847 67.5333 246.98 65.1333 249.38 63C251.78 60.8 254.347 59.0333 257.08 57.7C259.813 56.3667 262.547 55.7 265.28 55.7C268.147 55.7 270.58 56.4333 272.58 57.9C274.58 59.3667 275.58 61.3 275.58 63.7C275.58 65.5 274.947 66.8 273.68 67.6C272.413 68.4 270.913 68.6333 269.18 68.3C269.313 67.7 269.413 67.1 269.48 66.5C269.613 65.9 269.68 65.2667 269.68 64.6C269.68 63.2667 269.413 62.0667 268.88 61C268.347 59.9333 267.213 59.4 265.48 59.4C263.613 59.4 261.713 60.0333 259.78 61.3C257.847 62.5667 255.98 64.2333 254.18 66.3C252.447 68.3 250.88 70.5333 249.48 73C248.08 75.4 246.98 77.7667 246.18 80.1C245.38 82.4333 244.98 84.5333 244.98 86.4C244.98 88.5333 245.747 89.6 247.28 89.6C248.813 89.6 250.513 88.8667 252.38 87.4C254.247 85.8667 256.113 83.9667 257.98 81.7C259.913 79.4333 261.747 77.1333 263.48 74.8C265.213 72.4 266.713 70.3667 267.98 68.7C268.18 68.3667 268.447 68.2 268.78 68.2C269.047 68.2667 269.547 68.4333 270.28 68.7C271.08 68.9 271.813 69.2333 272.48 69.7C273.147 70.1667 273.48 70.7667 273.48 71.5C273.48 72.3667 273.013 73.5667 272.08 75.1C271.147 76.5667 270.18 78.1667 269.18 79.9C268.247 81.6333 267.78 83.2333 267.78 84.7C267.78 85.5667 268.013 86.4 268.48 87.2C268.947 87.9333 269.713 88.3 270.78 88.3C272.38 88.3 274.613 87.1333 277.48 84.8C280.413 82.4 283.38 78.3667 286.38 72.7L288.28 74.6C285.813 80.0667 282.747 84.5 279.08 87.9C275.413 91.3 271.713 93 267.98 93C265.247 93 263.213 92.1333 261.88 90.4C260.547 88.6667 259.813 86.8 259.68 84.8V84.3C257.013 87.5 254.547 90.0333 252.28 91.9C250.08 93.7667 247.713 94.7 245.18 94.7ZM291.414 93.9C288.947 93.9 287.214 92.7667 286.214 90.5C285.28 88.3 284.814 85.4333 284.814 81.9C284.814 81.1667 284.847 79.8667 284.914 78C284.98 76.0667 285.08 73.4 285.214 70C285.28 68 285.48 66.6333 285.814 65.9C286.214 65.1667 287.28 64.8 289.014 64.8C290.614 64.8 291.547 65.1333 291.814 65.8C292.147 66.4 292.314 67.6667 292.314 69.6C292.314 71.6 292.214 73.7333 292.014 76C291.88 78.2667 291.814 80.4667 291.814 82.6C291.814 84.6667 291.914 86.2 292.114 87.2C292.314 88.1333 292.814 88.6 293.614 88.6C294.814 88.6 296.114 87.9667 297.514 86.7C298.914 85.3667 300.314 83.7 301.714 81.7C303.18 79.6333 304.547 77.4333 305.814 75.1C307.147 72.7 308.314 70.4 309.314 68.2C309.447 63.6667 309.98 60.6333 310.914 59.1C311.847 57.5667 313.047 56.8 314.514 56.8C316.18 56.8 317.314 57.3333 317.914 58.4C318.514 59.4667 318.814 60.4 318.814 61.2C318.814 62.2 318.547 63.1 318.014 63.9C317.48 64.7 316.947 65.8 316.414 67.2C315.88 68.6 315.614 70.7333 315.614 73.6C315.614 74.5333 315.68 75.5667 315.814 76.7C316.014 77.7667 316.414 78.7 317.014 79.5C317.68 80.2333 318.647 80.6 319.914 80.6C321.247 80.6 322.514 80.0667 323.714 79C324.98 77.8667 326.314 75.9333 327.714 73.2L328.814 74.1C327.28 77.7667 325.547 80.3333 323.614 81.8C321.747 83.2667 319.947 84 318.214 84C316.014 84 314.214 83.1333 312.814 81.4C311.48 79.6 310.447 77.3667 309.714 74.7C308.114 77.7 306.28 80.6667 304.214 83.6C302.214 86.5333 300.114 88.9667 297.914 90.9C295.714 92.9 293.547 93.9 291.414 93.9ZM336.629 94.4C332.363 94.4 329.063 93.2333 326.729 90.9C324.463 88.6333 323.329 85.7667 323.329 82.3C323.329 79.3667 324.063 76.2667 325.529 73C327.063 69.6667 329.096 66.5667 331.629 63.7C334.163 60.7667 336.963 58.4 340.029 56.6C343.096 54.8 346.163 53.9 349.229 53.9C350.963 53.9 352.596 54.3667 354.129 55.3C355.729 56.1667 356.529 57.9333 356.529 60.6C356.529 63.1333 355.796 65.5 354.329 67.7C352.863 69.9 350.896 71.8667 348.429 73.6C345.963 75.3333 343.229 76.7667 340.229 77.9C337.296 78.9667 334.329 79.6667 331.329 80C331.263 80.2667 331.196 80.5667 331.129 80.9C331.129 81.1667 331.129 81.6333 331.129 82.3C331.129 82.6333 331.163 83.2333 331.229 84.1C331.363 84.9 331.663 85.7667 332.129 86.7C332.596 87.6333 333.363 88.4333 334.429 89.1C335.496 89.7667 336.963 90.1 338.829 90.1C341.629 90.1 344.429 89.3333 347.229 87.8C350.096 86.2 352.763 84.1 355.229 81.5C357.763 78.9 359.863 76 361.529 72.8L363.529 74.4C361.729 78.4 359.396 81.9 356.529 84.9C353.729 87.9 350.596 90.2333 347.129 91.9C343.729 93.5667 340.229 94.4 336.629 94.4ZM332.429 76.3C334.163 76.1 336.096 75.5 338.229 74.5C340.363 73.5 342.396 72.2333 344.329 70.7C346.329 69.1667 347.963 67.5 349.229 65.7C350.496 63.8333 351.129 61.9667 351.129 60.1C351.129 59.3667 350.996 58.8667 350.729 58.6C350.463 58.3333 350.029 58.2 349.429 58.2C347.896 58.2 346.296 58.7667 344.629 59.9C342.963 60.9667 341.329 62.4 339.729 64.2C338.129 65.9333 336.696 67.8667 335.429 70C334.163 72.1333 333.163 74.2333 332.429 76.3ZM367.711 93C364.578 93 362.378 91.9667 361.111 89.9C359.911 87.7667 359.311 85.2667 359.311 82.4C359.311 79.1333 359.911 75.3 361.111 70.9C362.311 66.5 363.878 61.9 365.811 57.1C367.811 52.2333 369.978 47.5 372.311 42.9C374.711 38.2333 377.111 34.0333 379.511 30.3C381.911 26.5667 384.111 23.6 386.111 21.4C388.178 19.1333 389.845 18 391.111 18C391.978 18 392.711 18.4667 393.311 19.4C393.911 20.2667 394.378 21.3333 394.711 22.6C395.111 23.8 395.311 24.9333 395.311 26C395.311 27.8 394.845 30.1667 393.911 33.1C393.045 35.9667 391.778 39.1333 390.111 42.6C388.511 46.0667 386.578 49.6333 384.311 53.3C382.111 56.9 379.645 60.3333 376.911 63.6C374.245 66.8667 371.378 69.7 368.311 72.1C368.045 73.7667 367.778 75.4333 367.511 77.1C367.311 78.7 367.211 80.1667 367.211 81.5C367.211 83.9 367.611 85.6667 368.411 86.8C369.211 87.8667 370.245 88.4 371.511 88.4C373.178 88.4 374.878 87.6333 376.611 86.1C378.411 84.5 380.111 82.5 381.711 80.1C383.378 77.6333 384.811 75.1 386.011 72.5L388.411 73.8C385.545 79.7333 382.345 84.4333 378.811 87.9C375.278 91.3 371.578 93 367.711 93ZM370.111 65.9C372.911 62.8333 375.545 59.4333 378.011 55.7C380.478 51.9667 382.645 48.2667 384.511 44.6C386.445 40.8667 387.945 37.5 389.011 34.5C390.078 31.4333 390.645 29.0667 390.711 27.4V27.1C390.178 27.1 389.311 27.8667 388.111 29.4C386.978 30.8667 385.611 32.9 384.011 35.5C382.411 38.1 380.745 41.0667 379.011 44.4C377.345 47.7333 375.711 51.2667 374.111 55C372.578 58.6667 371.245 62.3 370.111 65.9ZM403.423 47.9C402.156 47.9 400.99 47.6 399.923 47C398.923 46.3333 398.423 45.3333 398.423 44C398.423 42.4 399.29 41.0333 401.023 39.9C402.756 38.7667 404.556 38.2 406.423 38.2C407.623 38.2 408.623 38.4667 409.423 39C410.29 39.5333 410.723 40.5 410.723 41.9C410.723 43.3 409.956 44.6667 408.423 46C406.89 47.2667 405.223 47.9 403.423 47.9ZM391.623 93C388.69 93 386.49 92.1333 385.023 90.4C383.556 88.6667 382.823 86.5667 382.823 84.1C382.823 82.5667 383.09 80.6333 383.623 78.3C384.156 75.9667 384.89 73.5333 385.823 71C386.823 68.4 387.956 65.9667 389.223 63.7C390.49 61.4333 391.856 59.6 393.323 58.2C394.79 56.7333 396.256 56 397.723 56C398.523 56 399.223 56.2667 399.823 56.8C400.423 57.2667 400.723 57.9667 400.723 58.9C400.723 59.7667 400.19 61.0667 399.123 62.8C398.123 64.5333 396.923 66.5333 395.523 68.8C394.19 71.0667 392.99 73.4333 391.923 75.9C390.923 78.3 390.423 80.6 390.423 82.8C390.423 84.9333 390.79 86.3667 391.523 87.1C392.323 87.7667 393.456 88.1 394.923 88.1C397.19 88.1 399.656 86.9667 402.323 84.7C404.99 82.4333 407.756 78.4667 410.623 72.8L412.123 74.4C409.79 80.2667 406.823 84.8333 403.223 88.1C399.623 91.3667 395.756 93 391.623 93ZM407.937 118C407.204 118 406.337 117.767 405.337 117.3C404.27 116.833 403.37 115.9 402.637 114.5C401.837 113.167 401.437 111.133 401.437 108.4C401.437 105.533 401.937 101.767 402.937 97.1C403.87 92.5 405.204 87.4 406.937 81.8C408.604 76.1333 410.57 70.3333 412.837 64.4C415.17 58.4667 417.637 52.7667 420.237 47.3C422.904 41.7667 425.637 36.8 428.437 32.4C431.304 28 434.137 24.5 436.937 21.9C439.737 19.3 442.437 18 445.037 18C446.77 18 447.904 18.5333 448.437 19.6C448.97 20.6 449.237 21.7667 449.237 23.1C449.237 25.9667 448.437 29.1 446.837 32.5C445.304 35.9 443.237 39.3333 440.637 42.8C438.037 46.2 435.104 49.4333 431.837 52.5C428.637 55.5667 425.337 58.2 421.937 60.4C421.67 61.0667 421.404 61.7333 421.137 62.4C420.87 63.0667 420.604 63.7333 420.337 64.4C421.07 64.6667 421.637 65.1333 422.037 65.8C422.504 66.4667 422.77 67.1667 422.837 67.9C423.37 70.7667 423.904 73.3333 424.437 75.6C424.97 77.8 425.77 79.5333 426.837 80.8C427.97 82.0667 429.57 82.7 431.637 82.7C433.97 82.7 436.037 81.8333 437.837 80.1C439.637 78.3667 441.47 75.9333 443.337 72.8L445.537 74.4C443.404 78.6667 441.004 81.8 438.337 83.8C435.67 85.7333 433.27 86.7 431.137 86.7C428.87 86.7 426.504 85.8 424.037 84C423.97 88.1333 423.47 92.2 422.537 96.2C421.67 100.267 420.47 103.933 418.937 107.2C417.404 110.467 415.67 113.067 413.737 115C411.87 117 409.937 118 407.937 118ZM424.837 53.4C428.904 49.6 432.37 45.9 435.237 42.3C438.104 38.7 440.27 35.5333 441.737 32.8C443.27 30 444.037 28.0333 444.037 26.9C444.037 26.3667 443.77 26.1 443.237 26.1C441.637 26.1 439.804 27.3333 437.737 29.8C435.67 32.2 433.537 35.4667 431.337 39.6C429.137 43.7333 426.97 48.3333 424.837 53.4ZM410.737 111.8C411.67 111.8 412.67 110.833 413.737 108.9C414.804 106.967 415.804 104.533 416.737 101.6C417.67 98.6667 418.437 95.6 419.037 92.4C419.637 89.2667 419.937 86.4667 419.937 84C419.937 82.0667 419.704 80.3667 419.237 78.9C418.837 77.3667 418.104 75.6667 417.037 73.8C414.704 80.7333 412.804 87.2 411.337 93.2C409.87 99.2 409.137 103.967 409.137 107.5C409.137 110.367 409.67 111.8 410.737 111.8ZM445.845 118C444.178 118 442.612 117.467 441.145 116.4C439.745 115.4 439.045 113.767 439.045 111.5C439.045 109.367 439.678 107.433 440.945 105.7C442.212 104.033 443.845 102.467 445.845 101C447.845 99.6 449.978 98.3 452.245 97.1C454.578 95.9667 456.812 94.9 458.945 93.9C459.678 91.9667 460.478 89.5333 461.345 86.6C462.278 83.6 463.078 80.8333 463.745 78.3C461.678 81.1667 459.478 83.7 457.145 85.9C454.812 88.1 452.212 89.2 449.345 89.2C448.145 89.2 446.878 88.9667 445.545 88.5C444.212 87.9667 443.078 87.1 442.145 85.9C441.278 84.6333 440.845 82.9667 440.845 80.9C440.845 79.1667 441.145 77.0667 441.745 74.6C442.412 72.1333 443.212 69.7333 444.145 67.4C445.145 65 446.178 63.0333 447.245 61.5C448.312 59.9 449.245 59.1 450.045 59.1C450.445 59.1 451.012 59.2667 451.745 59.6C452.545 59.8667 453.312 60.2667 454.045 60.8C454.778 61.2667 455.245 61.8 455.445 62.4C454.845 63.2 454.178 64.3667 453.445 65.9C452.712 67.3667 452.012 69.0333 451.345 70.9C450.678 72.7 450.112 74.4667 449.645 76.2C449.245 77.9333 449.045 79.4333 449.045 80.7C449.045 81.7 449.245 82.5667 449.645 83.3C450.045 84.0333 450.812 84.4 451.945 84.4C453.412 84.4 454.912 83.8 456.445 82.6C458.045 81.4 459.578 79.8667 461.045 78C462.578 76.1333 463.945 74.2333 465.145 72.3C465.278 71.8333 465.412 71.1 465.545 70.1C465.678 69.1 465.912 68.0667 466.245 67C466.578 65.8667 467.145 64.8333 467.945 63.9C468.812 62.9667 470.012 62.5 471.545 62.5C472.078 62.5 472.578 62.5333 473.045 62.6C473.512 62.6667 474.078 62.7667 474.745 62.9C474.745 63.9 474.378 65.8667 473.645 68.8C472.978 71.6667 472.078 75 470.945 78.8C469.812 82.6 468.545 86.4 467.145 90.2C469.945 89.0667 472.845 87.2 475.845 84.6C478.912 81.9333 481.378 78.1667 483.245 73.3L484.945 74.7C483.945 78.0333 482.412 80.9333 480.345 83.4C478.345 85.8667 476.078 87.9667 473.545 89.7C471.012 91.4333 468.445 92.8667 465.845 94C464.045 98.3333 462.078 102.333 459.945 106C457.878 109.667 455.678 112.567 453.345 114.7C451.012 116.9 448.512 118 445.845 118ZM444.845 114.3C446.112 114.3 447.878 112.967 450.145 110.3C452.412 107.633 454.712 103.633 457.045 98.3C454.912 99.3667 452.745 100.6 450.545 102C448.412 103.467 446.612 105 445.145 106.6C443.678 108.2 442.945 109.833 442.945 111.5C442.945 112.167 443.078 112.8 443.345 113.4C443.678 114 444.178 114.3 444.845 114.3Z" fill="black"/>
<circle cx="62" cy="62" r="61" fill="#0FA3B1"/>
<circle cx="62" cy="62" r="61" stroke="#0FA3B1" stroke-width="2"/>
<circle cx="62" cy="62" r="61" stroke="url(#paint0_linear)" stroke-width="2"/>
<path d="M71.2035 29.066C69.8218 29.066 68.7124 30.1511 68.7124 31.5018V39.9456C68.7124 41.2966 69.8218 42.4215 71.2035 42.4215H75.7286V49.2415H29.9753C28.5946 49.2415 27.4849 50.3276 27.4849 51.6773V85.4122C27.4849 86.7632 28.5946 87.8479 29.9759 87.8479H92.2541C93.6344 87.8479 94.7438 86.7632 94.7438 85.4122V51.6773C94.7438 50.3276 93.6344 49.2415 92.2541 49.2415H87.7688V42.4215H92.2541C93.6344 42.4215 94.7438 41.2966 94.7438 39.9456V31.5018C94.7438 30.1511 93.6344 29.066 92.2541 29.066H71.2042H71.2035ZM39.2341 41.772C35.3812 41.772 32.2594 44.8248 32.2594 48.592H46.2094C46.2094 44.8248 43.0872 41.772 39.2344 41.772H39.2341Z" stroke="#0FA3B1" stroke-width="8.125" stroke-linecap="round" stroke-linejoin="round"/>
<path fill-rule="evenodd" clip-rule="evenodd" d="M87.7641 40.8533V51.7108H75.7086V40.8533" fill="#0FA3B1"/>
<path d="M87.7641 40.8533V51.7108H75.7086V40.8533" stroke="#F2F7F2" stroke-width="3.125"/>
<path fill-rule="evenodd" clip-rule="evenodd" d="M71.2215 29.0648C69.8398 29.0648 68.7278 30.1521 68.7278 31.5029V39.9662C68.7278 41.3172 69.8398 42.4045 71.2215 42.4045H92.2501C93.6319 42.4045 94.7439 41.3172 94.7439 39.9662V31.5029C94.7439 30.1521 93.6319 29.0648 92.2501 29.0648H71.2215Z" fill="#0FA3B1" stroke="#F2F7F2" stroke-width="3.125" stroke-linecap="round" stroke-linejoin="round"/>
<path fill-rule="evenodd" clip-rule="evenodd" d="M32.2432 48.6086C32.2432 44.8413 35.3701 41.7834 39.2232 41.7834C43.0761 41.7834 46.2022 44.8413 46.2022 48.6086" fill="#F2F7F2"/>
<path d="M32.2432 48.6086C32.2432 44.8413 35.3701 41.7834 39.2232 41.7834C43.0761 41.7834 46.2022 44.8413 46.2022 48.6086" stroke="#F2F7F2" stroke-width="3.125" stroke-linecap="round" stroke-linejoin="round"/>
<path fill-rule="evenodd" clip-rule="evenodd" d="M29.9782 49.2281C28.5969 49.2281 27.4849 50.3154 27.4849 51.6664V85.4118C27.4849 86.7628 28.5969 87.8501 29.9782 87.8501H92.251C93.6327 87.8501 94.7447 86.7628 94.7447 85.4118V51.6664C94.7447 50.3154 93.6327 49.2281 92.251 49.2281H29.9782Z" fill="#0FA3B1" stroke="#F2F7F2" stroke-width="3.125" stroke-linecap="round" stroke-linejoin="round"/>
<path fill-rule="evenodd" clip-rule="evenodd" d="M75.4716 68.5385C75.4716 76.2873 69.04 82.576 61.1151 82.576C53.1902 82.576 46.7585 76.2873 46.7585 68.5385C46.7585 60.7909 53.1902 54.5023 61.1151 54.5023C69.04 54.5023 75.4716 60.7909 75.4716 68.5385Z" fill="#0FA3B1" stroke="#F2F7F2" stroke-width="1.875" stroke-linejoin="round"/>
<path fill-rule="evenodd" clip-rule="evenodd" d="M67.9463 68.5383C67.9463 72.2263 64.8866 75.2193 61.1148 75.2193C57.343 75.2193 54.2833 72.2263 54.2833 68.5383C54.2833 64.8516 57.343 61.8586 61.1148 61.8586C64.8866 61.8586 67.9463 64.8516 67.9463 68.5383Z" fill="#F2F7F2" stroke="#F2F7F2" stroke-width="1.25" stroke-linejoin="round"/>
<defs>
<linearGradient id="paint0_linear" x1="62" y1="0" x2="62" y2="124" gradientUnits="userSpaceOnUse">
<stop stop-color="white"/>
<stop offset="0.0001" stop-color="white" stop-opacity="0"/>
</linearGradient>
</defs>
</svg>
