<svg width="64" height="64" viewBox="0 0 64 64" fill="none" xmlns="http://www.w3.org/2000/svg">
<g clip-path="url(#clip0)">
<path d="M18.7451 -0.000909316L45.2548 -0.000896326L63.9999 18.7443L63.9999 45.2539L45.2547 63.9991L18.7451 63.9991L-6.72465e-05 45.2539L-5.38612e-05 18.7442L18.7451 -0.000909316Z" fill="#064045"/>
<path d="M19.1592 0.999235L44.8404 0.999244L62.9998 19.1586L62.9998 44.8399L44.8404 62.9992L19.1592 62.9992L0.999788 44.8398L0.999797 19.1586L19.1592 0.999235Z" fill="#064045"/>
<path d="M19.5732 1.99938L44.4261 1.99939L61.9996 19.573L61.9996 44.4258L44.426 61.9994L19.5732 61.9994L1.99964 44.4258L1.99964 31.9994L1.99965 19.573L19.5732 1.99938Z" fill="#064045"/>
<path d="M19.9883 2.99953L44.0127 2.99953L61.0005 19.9873L61.0005 44.0117L44.0127 60.9995L19.9883 60.9995L3.00047 44.0117L3.00047 19.9873L19.9884 2.99946L19.9883 2.99953Z" fill="#064045"/>
<path d="M43.7327 4.13476L60 20.5926L59.8652 43.7327L43.4074 60L20.2673 59.8652L4 43.4074L4.13476 20.2673L20.5926 4L43.7327 4.13476Z" fill="#F2F7F2"/>
<path d="M32.3285 53.8971C24.4568 53.8971 17.0157 53.8971 17.0157 32.8971C16.9998 13.8971 20.4694 17.56 22.1199 19.117L22.2252 15.838C22.3031 13.4104 28.0746 13.5569 28.0801 15.4711L28.0943 12.4643C28.1092 9.28245 34.786 9.6039 34.8413 11.7152L34.9488 15.8171C35.0103 13.5046 40.1989 12.631 40.3535 17.1296C40.3535 24.1296 40.2927 31.6646 40.2001 33.8971C42.906 36.8971 45.8882 22.2546 51.1155 24.9421C53.4524 27.3796 44.3508 44.5671 43.3668 46.3796C42.4274 48.1101 38.2322 53.8971 32.3285 53.8971Z" fill="#075459" stroke="#064045" stroke-width="2" stroke-linejoin="round"/>
<path d="M28.5 12.8984V30.8984Z" fill="white"/>
<path d="M28.5 12.8984V30.8984" stroke="#064045"/>
<path d="M34.375 12.8984L34.5 31.8984Z" fill="white"/>
<path d="M34.375 12.8984L34.5 31.8984" stroke="#064045"/>
<path d="M37.5 37.3984C37.5 37.3984 32.5 38.3984 30.5 48.3984" stroke="#064045"/>
<path d="M22.5 17.8984V33.0234Z" fill="white"/>
<path d="M22.5 17.8984V33.0234" stroke="#064045"/>
<path d="M19.875 35.022C24.125 30.4179 32.25 30.6262 36.625 32.147" stroke="#064045"/>
</g>
<defs>
<clipPath id="clip0">
<rect width="64" height="64" fill="white"/>
</clipPath>
</defs>
</svg>
