<svg width="550" height="430" viewBox="0 0 550 430" fill="none" xmlns="http://www.w3.org/2000/svg">
<rect width="550" height="430" fill="white"/>
<circle cx="275" cy="215" r="99" fill="#0FA3B1"/>
<circle cx="275" cy="215" r="99" stroke="#0FA3B1" stroke-width="2"/>
<circle cx="275" cy="215" r="99" stroke="url(#paint0_linear)" stroke-width="2"/>
<path d="M289.844 161.88C287.615 161.88 285.826 163.63 285.826 165.808V179.428C285.826 181.607 287.615 183.421 289.844 183.421H297.142V194.421H223.346C221.12 194.421 219.33 196.173 219.33 198.35V252.761C219.33 254.94 221.12 256.689 223.347 256.689H323.796C326.022 256.689 327.812 254.94 327.812 252.761V198.35C327.812 196.173 326.022 194.421 323.796 194.421H316.562V183.421H323.796C326.022 183.421 327.812 181.607 327.812 179.428V165.808C327.812 163.63 326.022 161.88 323.796 161.88H289.845H289.844ZM238.28 182.373C232.066 182.373 227.03 187.297 227.03 193.373H249.53C249.53 187.297 244.495 182.373 238.28 182.373H238.28Z" stroke="#0FA3B1" stroke-width="8.125" stroke-linecap="round" stroke-linejoin="round"/>
<path fill-rule="evenodd" clip-rule="evenodd" d="M316.554 180.892V198.404H297.109V180.892" fill="#0FA3B1"/>
<path d="M316.554 180.892V198.404H297.109V180.892" stroke="#F2F7F2" stroke-width="3.125"/>
<path fill-rule="evenodd" clip-rule="evenodd" d="M289.873 161.878C287.644 161.878 285.851 163.632 285.851 165.81V179.461C285.851 181.64 287.644 183.394 289.873 183.394H323.79C326.018 183.394 327.812 181.64 327.812 179.461V165.81C327.812 163.632 326.018 161.878 323.79 161.878H289.873Z" fill="#0FA3B1" stroke="#F2F7F2" stroke-width="3.125" stroke-linecap="round" stroke-linejoin="round"/>
<path fill-rule="evenodd" clip-rule="evenodd" d="M227.005 193.4C227.005 187.324 232.048 182.392 238.263 182.392C244.477 182.392 249.519 187.324 249.519 193.4" fill="#F2F7F2"/>
<path d="M227.005 193.4C227.005 187.324 232.048 182.392 238.263 182.392C244.477 182.392 249.519 187.324 249.519 193.4" stroke="#F2F7F2" stroke-width="3.125" stroke-linecap="round" stroke-linejoin="round"/>
<path fill-rule="evenodd" clip-rule="evenodd" d="M223.351 194.399C221.123 194.399 219.33 196.153 219.33 198.332V252.76C219.33 254.939 221.123 256.693 223.351 256.693H323.791C326.02 256.693 327.813 254.939 327.813 252.76V198.332C327.813 196.153 326.02 194.399 323.791 194.399H223.351V194.399Z" fill="#0FA3B1" stroke="#F2F7F2" stroke-width="3.125" stroke-linecap="round" stroke-linejoin="round"/>
<path fill-rule="evenodd" clip-rule="evenodd" d="M296.727 225.545C296.727 238.043 286.354 248.186 273.572 248.186C260.79 248.186 250.416 238.043 250.416 225.545C250.416 213.049 260.79 202.906 273.572 202.906C286.354 202.906 296.727 213.049 296.727 225.545Z" fill="#0FA3B1" stroke="#F2F7F2" stroke-width="1.875" stroke-linejoin="round"/>
<path fill-rule="evenodd" clip-rule="evenodd" d="M284.59 225.545C284.59 231.494 279.655 236.321 273.572 236.321C267.488 236.321 262.553 231.494 262.553 225.545C262.553 219.599 267.488 214.771 273.572 214.771C279.655 214.771 284.59 219.599 284.59 225.545Z" fill="#F2F7F2" stroke="#F2F7F2" stroke-width="1.25" stroke-linejoin="round"/>
<defs>
<linearGradient id="paint0_linear" x1="275" y1="115" x2="275" y2="315" gradientUnits="userSpaceOnUse">
<stop stop-color="white"/>
<stop offset="0.0001" stop-color="white" stop-opacity="0"/>
</linearGradient>
</defs>
</svg>
