<svg width="94" height="94" viewBox="0 0 94 94" fill="none" xmlns="http://www.w3.org/2000/svg">
<rect width="94" height="94" fill="white"/>
<circle cx="47" cy="47" r="39" fill="#0FA3B1"/>
<circle cx="47" cy="47" r="39" stroke="#0FA3B1" stroke-width="2"/>
<circle cx="47" cy="47" r="39" stroke="url(#paint0_linear)" stroke-width="2"/>
<g clip-path="url(#clip0)">
<path d="M52.937 25.751C52.0456 25.751 51.3299 26.451 51.3299 27.3224V32.77C51.3299 33.6416 52.0456 34.3674 52.937 34.3674H55.8564V38.7674H26.3382C25.4474 38.7674 24.7314 39.4681 24.7314 40.3389V62.1034C24.7314 62.975 25.4474 63.6748 26.3386 63.6748H66.518C67.4086 63.6748 68.1243 62.975 68.1243 62.1034V40.3389C68.1243 39.4681 67.4086 38.7674 66.518 38.7674H63.6243V34.3674H66.518C67.4086 34.3674 68.1243 33.6416 68.1243 32.77V27.3224C68.1243 26.451 67.4086 25.751 66.518 25.751H52.9374H52.937ZM32.3116 33.9484C29.8259 33.9484 27.8118 35.9179 27.8118 38.3484H36.8118C36.8118 35.9179 34.7975 33.9484 32.3118 33.9484H32.3116Z" stroke="#0FA3B1" stroke-width="8.125" stroke-linecap="round" stroke-linejoin="round"/>
<path fill-rule="evenodd" clip-rule="evenodd" d="M63.6224 33.3555V40.3603H55.8447V33.3555" fill="#0FA3B1"/>
<path d="M63.6224 33.3555V40.3603H55.8447V33.3555" stroke="#F2F7F2" stroke-width="1.5"/>
<path fill-rule="evenodd" clip-rule="evenodd" d="M52.9497 25.75C52.0582 25.75 51.3408 26.4515 51.3408 27.3229V32.7831C51.3408 33.6548 52.0582 34.3562 52.9497 34.3562H66.5165C67.408 34.3562 68.1254 33.6548 68.1254 32.7831V27.3229C68.1254 26.4515 67.408 25.75 66.5165 25.75H52.9497Z" fill="#0FA3B1" stroke="#F2F7F2" stroke-width="1.5" stroke-linecap="round" stroke-linejoin="round"/>
<path fill-rule="evenodd" clip-rule="evenodd" d="M27.8018 38.3594C27.8018 35.9289 29.8191 33.9561 32.305 33.9561C34.7907 33.9561 36.8076 35.9289 36.8076 38.3594" fill="#F2F7F2"/>
<path d="M27.8018 38.3594C27.8018 35.9289 29.8191 33.9561 32.305 33.9561C34.7907 33.9561 36.8076 35.9289 36.8076 38.3594" stroke="#F2F7F2" stroke-width="1.5" stroke-linecap="round" stroke-linejoin="round"/>
<path fill-rule="evenodd" clip-rule="evenodd" d="M26.34 38.7578C25.4489 38.7578 24.7314 39.4593 24.7314 40.3309V62.1021C24.7314 62.9738 25.4489 63.6752 26.34 63.6752H66.516C67.4075 63.6752 68.1249 62.9738 68.1249 62.1021V40.3309C68.1249 39.4593 67.4075 38.7578 66.516 38.7578H26.34V38.7578Z" fill="#0FA3B1" stroke="#F2F7F2" stroke-width="1.5" stroke-linecap="round" stroke-linejoin="round"/>
<path fill-rule="evenodd" clip-rule="evenodd" d="M55.6906 51.2168C55.6906 56.216 51.5412 60.2732 46.4283 60.2732C41.3154 60.2732 37.166 56.216 37.166 51.2168C37.166 46.2184 41.3154 42.1611 46.4283 42.1611C51.5412 42.1611 55.6906 46.2184 55.6906 51.2168Z" fill="#0FA3B1" stroke="#F2F7F2" stroke-linejoin="round"/>
<path fill-rule="evenodd" clip-rule="evenodd" d="M50.8353 51.2167C50.8353 53.5961 48.8613 55.527 46.4279 55.527C43.9945 55.527 42.0205 53.5961 42.0205 51.2167C42.0205 48.8382 43.9945 46.9072 46.4279 46.9072C48.8613 46.9072 50.8353 48.8382 50.8353 51.2167Z" fill="#F2F7F2" stroke="#F2F7F2" stroke-linejoin="round"/>
</g>
<defs>
<linearGradient id="paint0_linear" x1="47" y1="7" x2="47" y2="87" gradientUnits="userSpaceOnUse">
<stop stop-color="white"/>
<stop offset="0.0001" stop-color="white" stop-opacity="0"/>
</linearGradient>
<clipPath id="clip0">
<rect width="51.4286" height="50.2857" fill="white" transform="translate(20.7139 19.5703)"/>
</clipPath>
</defs>
</svg>
