<svg width="132" height="151" viewBox="0 0 132 151" fill="none" xmlns="http://www.w3.org/2000/svg">
<g clip-path="url(#clip0)">
<g clip-path="url(#clip1)">
<path d="M49.4889 91.1164C41.9009 92.3607 35.4839 94.1678 30.7069 96.2423C29.0179 96.9767 27.4669 99.169 27.3179 101.003C27.2219 102.211 27.1719 103.436 27.1719 104.668C27.1719 105.899 27.2229 107.124 27.3179 108.332C27.4659 110.165 29.0179 112.358 30.7069 113.092C35.4839 115.169 41.8979 116.974 49.4889 118.22C51.3059 118.517 52.6509 117.229 52.5239 115.397C52.2799 111.837 52.1519 108.239 52.1519 104.67C52.1519 101.1 52.2799 97.4996 52.5239 93.9433C52.6509 92.1083 51.3069 90.8211 49.4889 91.1164Z" fill="#064045"/>
<path d="M56.1195 146.876C57.8395 147.54 58.6795 146.595 58.0575 144.864C56.2085 139.715 54.7835 133.637 53.7955 127.117C53.5225 125.299 51.8595 123.637 50.0355 123.364C43.5025 122.378 37.4105 120.954 32.2495 119.109C30.5155 118.49 29.5665 119.33 30.2325 121.044C34.8355 132.87 44.2725 142.288 56.1195 146.876Z" fill="#064045"/>
<path d="M64.0955 62.9326C62.0135 67.7013 60.2035 74.0984 58.9575 81.6729C58.6575 83.488 59.9455 84.829 61.7835 84.7023C65.3505 84.4569 68.9575 84.3311 72.5355 84.3311C76.1145 84.3311 79.7185 84.4569 83.2845 84.7023C85.1225 84.829 86.4115 83.488 86.1125 81.6729C84.8665 74.1023 83.0545 67.7013 80.9765 62.9326C80.2405 61.2483 78.0435 59.7006 76.2055 59.551C74.9955 59.4522 73.7685 59.4053 72.5345 59.4053C71.2975 59.4053 70.0725 59.4552 68.8605 59.551C67.0265 59.7016 64.8305 61.2493 64.0955 62.9326Z" fill="#064045"/>
<path d="M56.1197 62.4622C44.2727 67.0532 34.8357 76.4698 30.2337 88.2951C29.5697 90.0093 30.5157 90.8475 32.2507 90.2289C37.4117 88.3819 43.5037 86.962 50.0357 85.9761C51.8587 85.7017 53.5227 84.0403 53.7967 82.2223C54.7847 75.7024 56.2097 69.6236 58.0587 64.4748C58.6817 62.7436 57.8397 61.7986 56.1197 62.4622Z" fill="#064045"/>
<path d="M91.2696 82.2212C91.5426 84.0382 93.2076 85.6996 95.0306 85.975C101.563 86.9599 107.656 88.3808 112.816 90.2248C114.551 90.8455 115.501 90.0053 114.832 88.291C110.231 76.4677 100.796 67.0511 88.9436 62.4601C87.2266 61.7966 86.3866 62.7425 87.0056 64.4727C88.8566 69.6226 90.2816 75.7024 91.2696 82.2212Z" fill="#064045"/>
<path d="M117.749 101.006C117.602 99.1719 116.047 96.9787 114.359 96.2453C109.582 94.1688 103.165 92.3647 95.5774 91.1214C93.7614 90.8221 92.4164 92.1083 92.5424 93.9433C92.7874 97.5006 92.9134 101.102 92.9134 104.67C92.9134 108.24 92.7874 111.84 92.5424 115.4C92.4164 117.234 93.7614 118.521 95.5774 118.221C103.165 116.977 109.582 115.169 114.359 113.095C116.05 112.361 117.6 110.164 117.749 108.334C117.85 107.124 117.895 105.901 117.895 104.667C117.894 103.437 117.844 102.211 117.749 101.006Z" fill="#064045"/>
<path d="M87.9103 104.669C87.9103 100.746 87.7643 96.9626 87.4893 93.3435C87.3523 91.5115 85.7183 89.88 83.8833 89.7443C80.2563 89.4729 76.4673 89.3242 72.5323 89.3242C68.6033 89.3242 64.8103 89.4709 61.1843 89.7443C59.3473 89.882 57.7123 91.5115 57.5743 93.3435C57.3023 96.9616 57.1533 100.746 57.1533 104.669C57.1533 108.59 57.3013 112.375 57.5743 115.994C57.7143 117.825 59.3473 119.462 61.1843 119.595C64.8093 119.866 68.6023 120.016 72.5323 120.016C76.4623 120.016 80.2563 119.867 83.8833 119.595C85.7193 119.455 87.3543 117.825 87.4893 115.994C87.7653 112.375 87.9103 108.591 87.9103 104.669Z" fill="#064045"/>
<path d="M112.817 119.111C107.657 120.96 101.565 122.38 95.0311 123.366C93.2091 123.637 91.545 125.3 91.27 127.119C90.282 133.636 88.8571 139.717 87.0091 144.866C86.3871 146.595 87.2281 147.545 88.9451 146.878C100.797 142.287 110.234 132.871 114.834 121.048C115.5 119.331 114.552 118.492 112.817 119.111Z" fill="#064045"/>
<path d="M83.2825 124.634C79.7175 124.879 76.1095 125.006 72.5285 125.006C68.9515 125.006 65.3495 124.879 61.7805 124.634C59.9435 124.508 58.6535 125.85 58.9535 127.664C60.2015 135.237 62.0115 141.637 64.0895 146.405C64.8245 148.09 67.0235 149.638 68.8595 149.786C70.0705 149.886 71.2955 149.933 72.5335 149.933C73.7675 149.933 74.9935 149.88 76.2035 149.786C78.0425 149.64 80.2385 148.091 80.9745 146.405C83.0565 141.637 84.8655 135.237 86.1125 127.664C86.4085 125.85 85.1195 124.508 83.2825 124.634Z" fill="#064045"/>
<path d="M37.5553 50.111C37.9123 50.3834 38.2123 50.2776 38.3783 50.1609C38.2583 50.3135 38.0503 50.6149 37.7343 51.1637C37.7343 51.1637 36.6113 52.848 36.9843 53.4118L36.9913 53.4218C37.3693 53.9936 39.3563 53.6244 39.3563 53.6244C39.9843 53.5495 40.3433 53.4777 40.5373 53.4298C40.3603 53.5365 40.1453 53.769 40.2563 54.2001L41.2673 57.5838C41.2833 57.6346 41.3043 57.6795 41.3243 57.7235L43.9873 55.4404L44.2053 52.5657C44.2213 52.3451 44.2673 52.0727 44.2673 52.0727C44.2673 52.0727 44.7983 51.7115 44.9643 51.6367L54.3603 45.8752L59.2713 60.0723C59.4053 60.4515 59.7593 60.5493 60.0663 60.2879L62.6473 58.0827C62.9543 57.8192 63.1473 57.2854 63.0803 56.8833L60.5263 41.7831L69.5213 35.5017C71.1783 34.3392 72.4993 32.5561 72.4693 31.5094C72.4573 31.1142 72.3233 30.7131 72.1073 30.3479L72.1023 30.3389C71.8523 29.9967 71.5363 29.7143 71.1723 29.5496C70.2263 29.1126 68.0573 29.6145 66.3333 30.6752L57.0003 36.4387L44.1033 28.1267C43.7603 27.9092 43.1953 27.8743 42.8303 28.0529L39.7823 29.5467C39.4183 29.7253 39.3673 30.0875 39.6643 30.3609L50.7953 40.4729L41.7783 46.8082C41.6463 46.9319 41.1023 47.2781 41.1023 47.2781C41.1023 47.2781 40.8313 47.2093 40.6213 47.1364L37.8883 46.2005L34.7363 47.7421C34.7693 47.7781 34.8003 47.815 34.8453 47.8469L37.5553 50.111Z" fill="#064045"/>
<path d="M7.875 96.6806C8.028 95.2886 8.317 93.9485 8.622 92.5396C8.736 92.0127 8.849 91.4879 8.955 90.963C9.072 90.2765 9.277 89.6349 9.495 88.9554C9.604 88.6151 9.712 88.2758 9.811 87.9346L10.742 84.967C11.025 84.3055 11.295 83.6429 11.564 82.9853C12.085 81.7111 12.576 80.5077 13.133 79.3682L14.513 76.7459C14.639 76.5144 14.771 76.2609 14.902 76.0075C15.208 75.4198 15.496 74.864 15.82 74.402C16.225 73.7913 16.586 73.2245 16.942 72.6647C17.594 71.64 18.211 70.6711 18.863 69.789L21.945 65.8326C22.627 65.0702 23.345 64.3009 24.035 63.5605L25.022 62.4988C25.795 61.6108 26.631 60.8614 27.439 60.137L30.442 57.4398C31.478 56.6226 32.367 55.954 33.093 55.4082C33.334 55.2266 33.557 55.059 33.762 54.9033L35.01 56.6156C34.781 56.7753 34.534 56.9459 34.265 57.1305C33.493 57.6623 32.552 58.3109 31.496 59.0743L31.386 59.1601L28.564 61.511C27.793 62.1426 26.92 62.859 26.064 63.7721L23.085 66.7316L22.971 66.8554L19.91 70.4635C19.181 71.3626 18.532 72.2935 17.905 73.1946C17.548 73.7075 17.185 74.2283 16.806 74.7472C16.362 75.319 16 75.9526 15.651 76.5633C15.529 76.7758 15.407 76.9903 15.28 77.2019L13.857 79.6456C13.228 80.8061 12.694 81.9675 12.179 83.0901C11.884 83.7327 11.586 84.3813 11.271 85.0299L11.189 85.2255L10.172 88.0573C10.064 88.3776 9.961 88.655 9.859 88.9304C9.604 89.6199 9.314 90.4022 9.14 91.2484C9.035 91.6744 8.905 92.1704 8.775 92.6693C8.438 93.9585 8.092 95.2836 7.875 96.6806Z" fill="#12BFCE"/>
<path d="M34.1767 52.0791C34.1767 52.0791 33.7207 52.4254 32.8637 53.0749C32.0077 53.7335 30.7507 54.6505 29.1517 55.9128C28.3567 56.6272 27.4757 57.4185 26.5167 58.2786C25.5627 59.1408 24.5017 60.0518 23.5507 61.1454C22.5627 62.2161 21.4947 63.3376 20.4077 64.552C19.4057 65.8392 18.3527 67.1923 17.2527 68.6042C16.1907 70.0401 15.2427 71.6536 14.1817 73.2561C13.6277 74.0444 13.2177 74.9404 12.7437 75.8145C12.2797 76.6936 11.8107 77.5867 11.3357 78.4927C10.4387 80.3287 9.70769 82.3084 8.86269 84.2752C8.54169 85.2999 8.21769 86.3357 7.88869 87.3814C7.58469 88.4321 7.18069 89.4639 6.99369 90.5685C6.55369 92.7547 5.97569 94.949 5.81569 97.245C5.70569 98.3885 5.52869 99.527 5.47569 100.683C5.46369 101.842 5.45369 103.007 5.44169 104.176C5.44969 104.761 5.40569 105.344 5.45669 105.93L5.62269 107.686C5.74769 108.858 5.81869 110.035 5.99169 111.202L6.71069 114.679C6.84669 115.254 6.91469 115.847 7.10669 116.407L7.65669 118.099C8.04269 119.217 8.35269 120.364 8.80269 121.454L10.2807 124.673C10.7237 125.766 11.3557 126.759 11.9717 127.755C12.6007 128.766 13.1417 129.723 13.8397 130.76C14.5217 131.659 15.2007 132.553 15.8767 133.445C16.6287 134.318 17.4177 135.176 18.1807 136.031C19.7817 137.652 21.4097 139.18 23.1647 140.508C26.6347 143.203 30.3517 145.292 34.0267 146.866C37.7237 148.413 41.3847 149.377 44.7877 150.058C46.5077 150.302 48.1397 150.637 49.7197 150.723C50.5067 150.79 51.2737 150.857 52.0177 150.918C52.7647 150.937 53.4897 150.951 54.1927 150.967C54.7477 150.972 55.2867 150.997 55.8107 150.997C55.9517 150.997 56.0927 150.995 56.2317 150.991C56.8857 150.961 57.5177 150.932 58.1257 150.904C58.7317 150.877 59.3137 150.851 59.8677 150.826C60.4207 150.764 60.9487 150.707 61.4487 150.651C62.4477 150.531 63.3447 150.463 64.1137 150.337C64.8847 150.202 65.5377 150.087 66.0687 149.995C67.1287 149.81 67.6937 149.711 67.6937 149.711C67.6937 149.711 67.1247 149.786 66.0577 149.927C65.5257 149.996 64.8687 150.082 64.0957 150.185C63.3227 150.282 62.4247 150.31 61.4267 150.387C60.9267 150.42 60.4017 150.455 59.8497 150.492C59.2947 150.495 58.7167 150.496 58.1137 150.498C57.5107 150.501 56.8847 150.502 56.2327 150.505C55.5827 150.498 54.9097 150.433 54.2147 150.399C53.5217 150.354 52.8047 150.308 52.0677 150.26C51.3357 150.165 50.5827 150.069 49.8087 149.969C48.2547 149.822 46.6617 149.42 44.9857 149.112C41.6737 148.301 38.1367 147.205 34.6137 145.555C31.1107 143.875 27.6147 141.708 24.4037 138.99C22.7827 137.653 21.2827 136.115 19.8417 134.53C19.1677 133.709 18.4887 132.883 17.8067 132.051C17.1687 131.133 16.5287 130.209 15.8847 129.284C13.7337 125.583 11.6287 121.548 10.6367 117.235L10.1867 115.639C10.0297 115.111 9.99269 114.55 9.88769 114.009L9.35569 110.75C9.24169 109.656 9.22569 108.554 9.15469 107.464L9.06569 105.83C9.03969 105.288 9.10969 104.742 9.12569 104.199C9.18069 103.115 9.23569 102.037 9.29169 100.963C9.38669 99.8942 9.60169 98.8385 9.74569 97.7848C9.97469 95.6684 10.6117 93.6488 11.0987 91.6472C11.3067 90.6344 11.7317 89.6894 12.0537 88.7295C12.3977 87.7766 12.7357 86.8306 13.0717 85.8956C13.9407 84.1045 14.6857 82.3064 15.5867 80.6441C16.0637 79.8258 16.5327 79.0186 16.9957 78.2233C17.4687 77.436 17.8737 76.6258 18.4217 75.9183C19.4737 74.4804 20.3997 73.0296 21.4377 71.7474C22.5027 70.4901 23.5257 69.2857 24.4987 68.1402C25.5637 67.0795 26.5737 66.0757 27.5247 65.1317C28.4497 64.1469 29.4167 63.4005 30.2867 62.6771C31.1537 61.9517 31.9517 61.2871 32.6717 60.6864C34.2717 59.5299 35.6037 58.6408 36.4747 58.0252C37.3587 57.4135 37.8297 57.0852 37.8297 57.0852L34.1767 52.0791ZM67.6937 149.715H67.6987H67.6937Z" fill="#064045"/>
</g>
<path d="M87.26 26V19.88H77.9V16.64L86.9 0.799998H91.58V17H93.56V19.88H91.58V26H87.26ZM81.86 17H87.26V7.28H87.116L81.86 17ZM104.013 26.36C101.517 26.36 99.5727 25.352 98.1807 23.336C96.7887 21.32 96.0927 18.008 96.0927 13.4C96.0927 8.792 96.7887 5.48 98.1807 3.464C99.5727 1.448 101.517 0.439999 104.013 0.439999C106.533 0.439999 108.477 1.448 109.845 3.464C111.237 5.48 111.933 8.792 111.933 13.4C111.933 18.008 111.237 21.32 109.845 23.336C108.477 25.352 106.533 26.36 104.013 26.36ZM104.013 23.84C104.997 23.84 105.837 23.06 106.533 21.5C107.253 19.916 107.613 17.216 107.613 13.4C107.613 9.584 107.253 6.896 106.533 5.336C105.837 3.752 104.997 2.96 104.013 2.96C103.029 2.96 102.177 3.752 101.457 5.336C100.761 6.896 100.413 9.584 100.413 13.4C100.413 17.216 100.761 19.916 101.457 21.5C102.177 23.06 103.029 23.84 104.013 23.84ZM123.823 26V19.88H114.463V16.64L123.463 0.799998H128.143V17H130.123V19.88H128.143V26H123.823ZM118.423 17H123.823V7.28H123.679L118.423 17Z" fill="#064045"/>
</g>
<defs>
<clipPath id="clip0">
<rect width="132" height="151" fill="white"/>
</clipPath>
<clipPath id="clip1">
<rect width="123.328" height="123.061" fill="white" transform="translate(0 27.9395)"/>
</clipPath>
</defs>
</svg>
