<svg width="25" height="25" viewBox="0 0 25 25" fill="none" xmlns="http://www.w3.org/2000/svg">
<path d="M0 12.5C0 5.59592 5.59648 0 12.4998 0C19.4035 0 25 5.59597 25 12.5C25 19.4033 19.4035 24.9998 12.4998 24.9998C5.59648 24.9998 0 19.4033 0 12.5Z" fill="#075459"/>
<path d="M21.5772 8.67345C21.0558 8.67461 20.5345 8.67617 20.0131 8.67733C18.8404 6.04827 16.5389 4.14897 13.6316 3.69351C10.3923 3.18606 7.29202 4.69058 5.4434 7.33713C4.62229 8.51246 6.55208 9.61287 7.36619 8.44736C9.90153 4.81761 15.3151 5.14563 17.5398 8.68348C17.0581 8.68459 16.5764 8.68579 16.0947 8.6869C15.96 8.68731 15.8643 8.74722 15.8051 8.83187C15.7083 8.93556 15.6715 9.08743 15.7729 9.24434C16.6901 10.6678 17.6074 12.0912 18.5248 13.5144C18.6791 13.7536 19.0117 13.7516 19.1645 13.5121C20.0746 12.0842 20.9848 10.6564 21.8949 9.22852C22.0455 8.99245 21.8472 8.67274 21.5772 8.67345Z" fill="#F2F7F2"/>
<path d="M17.6529 16.4871C15.1372 20.0893 9.78705 19.794 7.5308 16.3334C7.9924 16.3323 8.454 16.3311 8.91565 16.33C9.04998 16.3296 9.14556 16.27 9.20492 16.1856C9.30187 16.0819 9.33885 15.9301 9.23747 15.7726C8.32042 14.3494 7.40312 12.9258 6.48587 11.5027C6.33188 11.2633 5.99902 11.2653 5.8462 11.5051C4.93605 12.9327 4.0257 14.3606 3.1154 15.7884C2.9649 16.0247 3.16317 16.3443 3.43325 16.3436C3.97083 16.3422 4.50836 16.3408 5.04595 16.3395C6.22995 18.9254 8.51144 20.7903 11.388 21.241C14.6272 21.7485 17.7275 20.2441 19.5757 17.5973C20.3967 16.4218 18.4669 15.3214 17.6529 16.4871Z" fill="#F2F7F2"/>
</svg>
