<svg width="24" height="24" viewBox="0 0 24 24" fill="none" xmlns="http://www.w3.org/2000/svg">
<path d="M11.001 10H13.001V15H11.001V10ZM11 16H13V18H11V16Z" fill="#075459"/>
<path d="M14.2709 1.42694C13.8239 0.546858 12.9529 0 11.9996 0C11.0464 0 10.1754 0.546859 9.72838 1.42828L0.301597 20.0551C0.0924144 20.4641 -0.011205 20.9231 0.000960095 21.3868C0.0131252 21.8505 0.140654 22.3029 0.370968 22.6993C0.597965 23.0976 0.920337 23.427 1.30626 23.6551C1.69218 23.8832 2.12831 24.002 2.57158 24H21.4277C22.3373 24 23.1607 23.5136 23.6296 22.6993C23.8596 22.3028 23.9869 21.8504 23.999 21.3868C24.0112 20.9232 23.9078 20.4642 23.699 20.0551L14.2709 1.42694ZM2.57158 21.3127L11.9996 2.68592L21.4341 21.3127H2.57158Z" fill="#075459"/>
</svg>
