<svg width="59" height="65" viewBox="0 0 59 65" fill="none" xmlns="http://www.w3.org/2000/svg">
<path d="M51.2725 43.6045C50.7662 43.167 50.0263 43.2548 49.6204 43.8011C49.0833 44.5239 48.5023 45.2285 47.894 45.8955C47.4388 46.3944 47.4451 47.1969 47.9078 47.6875C48.1366 47.9302 48.4343 48.0512 48.7318 48.0512C49.036 48.0512 49.3399 47.9247 49.5699 47.6726C50.2338 46.9447 50.868 46.1753 51.4547 45.3859C51.8607 44.8396 51.7791 44.0422 51.2725 43.6045Z" fill="#075459"/>
<path d="M46.6555 48.8729C46.2634 48.3152 45.526 48.2056 45.0087 48.6287C40.5642 52.2608 35.1782 54.3659 29.4332 54.7164C28.7851 54.7559 28.2895 55.3543 28.3261 56.0531C28.3615 56.7274 28.8797 57.2487 29.4985 57.2487C29.5209 57.2487 29.5433 57.2481 29.5659 57.2466C35.7791 56.8676 41.6102 54.5859 46.4288 50.6483C46.946 50.2255 47.0476 49.4307 46.6555 48.8729Z" fill="#075459"/>
<path d="M58.1651 25.2483C58.1651 25.2482 58.1651 25.2482 58.165 25.248C57.4947 22.4983 56.429 19.864 54.9971 17.4181C52.9614 13.9407 50.28 10.9618 47.0277 8.56411C41.9251 4.80265 35.8642 2.81445 29.5 2.81445C27.7199 2.81445 25.9325 2.97485 24.1873 3.29116C19.2411 4.18767 14.5721 6.35849 10.6856 9.56908C4.97271 14.2883 1.27564 20.903 0.27541 28.1949C0.0926485 29.5268 0 30.8783 0 32.2121C0 37.4459 1.39768 42.5848 4.04185 47.0732C6.59878 51.4136 10.2545 55.0523 14.6138 57.596C14.6141 57.5963 14.6145 57.5965 14.6148 57.5966C17.0882 59.0398 19.7523 60.1116 22.5332 60.7827C24.807 61.3315 27.1511 61.6097 29.5 61.6097C35.2051 61.6097 40.7409 59.9839 45.5088 56.9082C50.1665 53.9038 53.8708 49.675 56.2214 44.6798C58.0652 40.7611 59 36.5665 59 32.2121C59 29.8638 58.7191 27.5209 58.1651 25.2483ZM47.4941 12.0968C48.9674 13.3856 50.2864 14.8199 51.4417 16.3887L49.1183 15.8135C48.3732 15.629 47.6076 15.8243 47.0179 16.3487C46.4282 16.8732 46.105 17.6467 46.1317 18.4707C46.1328 18.5047 46.117 18.5376 46.0903 18.5563L44.3837 19.758C44.355 19.7782 44.3185 19.7794 44.2887 19.761L41.8847 18.2849C41.6708 18.1535 41.5605 17.8813 41.6168 17.6227L42.1577 15.1334C42.2157 14.8668 42.4334 14.6754 42.6873 14.6678L44.724 14.6067C46.0901 14.5657 47.2272 13.4902 47.4941 12.0968ZM14.6019 51.8567L14.2583 54.4417C6.87258 49.4668 2.35055 41.1009 2.35055 32.2121C2.35055 31.4257 2.38604 30.6324 2.45645 29.8413L4.0294 30.1153C4.42546 30.1844 4.83016 30.2195 5.23199 30.2195H6.02872C7.13312 30.2195 8.23004 30.6101 9.11723 31.3192L10.3244 32.2841C10.4277 32.3666 10.495 32.493 10.5087 32.6309L10.6723 34.2631C10.6987 34.5271 10.529 34.7669 10.2857 34.8088C8.91315 35.0455 7.89517 36.354 7.91764 37.8523L8.0036 43.5976C8.0134 44.2504 8.21264 44.8697 8.58001 45.3885L10.4955 48.0945C11.3993 49.3714 12.6215 50.3229 14.0299 50.8466C14.4199 50.9916 14.6605 51.4164 14.6019 51.8567ZM22.1737 58.0839C20.1855 57.5339 18.2683 56.7596 16.4556 55.7747L16.9286 52.2166C17.147 50.575 16.25 48.9913 14.7961 48.4508C13.827 48.0905 12.986 47.4355 12.3641 46.5569L10.4486 43.8511C10.3883 43.7659 10.3555 43.664 10.3539 43.5568L10.268 37.8116C10.2643 37.5652 10.4317 37.3502 10.6572 37.3113C12.1373 37.056 13.1705 35.5974 13.0094 33.9906L12.8458 32.3584C12.7617 31.5197 12.353 30.7506 11.7244 30.2482L10.5172 29.2833C9.22774 28.2528 7.6337 27.6851 6.02872 27.6851H5.23199C4.95542 27.6851 4.67713 27.661 4.40449 27.6135L2.79904 27.3338C3.9386 21.1849 7.21517 15.6283 12.1151 11.5806C15.5687 8.72761 19.6967 6.76451 24.0823 5.88477C24.7475 6.48149 25.2624 7.2468 25.5838 8.12244L25.6504 8.3042C25.8172 8.75879 25.9283 9.23562 25.9803 9.72139L26.0395 10.2743C26.1447 11.2576 26.0052 12.2565 25.6362 13.1628L24.9971 14.7326C24.5787 15.7598 23.8922 16.6189 23.0117 17.2165L22.2155 17.757C21.4087 18.3046 20.937 19.2826 20.9845 20.3092L21.0922 22.6283C21.0976 22.7467 21.0465 22.8254 21.0027 22.8706C20.9589 22.9157 20.8839 22.9668 20.7742 22.9559C20.6773 22.946 20.5919 22.8849 20.5457 22.7924L19.5677 20.8343C19.2292 20.1561 18.6402 19.6485 17.952 19.4414L14.4954 18.4012C13.5871 18.1279 12.6138 18.2092 11.7553 18.6298L10.9322 19.0332C9.20043 19.8819 8.25401 21.9484 8.68176 23.9465C8.85104 24.7378 9.22221 25.4597 9.75471 26.0338L12.0005 28.4553C12.1272 28.5916 12.2485 28.737 12.3615 28.8874L13.9012 30.9347C14.5811 31.8388 15.589 32.3567 16.6683 32.3566C16.672 32.3566 16.6756 32.3566 16.6793 32.3566L20.8739 32.3428C20.8752 32.3428 20.8763 32.3428 20.8777 32.3428C21.3071 32.3428 21.708 32.5909 21.9244 32.9911C22.428 33.922 23.2775 34.5856 24.2551 34.8115L25.8268 35.1745C26.1724 35.2544 26.4676 35.4919 26.6368 35.8265L27.3958 37.3268C27.7002 37.9284 28.1605 38.4104 28.7271 38.7209L32.2944 40.6753C32.5878 40.836 32.7573 41.1804 32.7167 41.5325C32.693 41.7365 32.6014 41.9239 32.4585 42.0601L31.1035 43.3524C30.7215 43.7167 30.4249 44.1814 30.2457 44.6964L29.9502 45.5457C29.8603 45.8045 29.673 46.0136 29.436 46.1194L27.9927 46.7646C26.7634 47.3141 25.9689 48.5965 25.9689 50.0315C25.9689 50.1927 25.9321 50.3537 25.8626 50.4967L22.1737 58.0839ZM29.5 59.0754C27.8421 59.0754 26.1874 58.926 24.5621 58.6302L27.9445 51.6733C28.1898 51.1689 28.3195 50.601 28.3195 50.0313C28.3195 49.6247 28.5447 49.2612 28.8931 49.1054L30.3365 48.4602C31.1724 48.0864 31.8338 47.3483 32.1513 46.4352L32.4467 45.5864C32.4915 45.4577 32.5656 45.3416 32.661 45.2505L34.016 43.9582C34.5876 43.413 34.9544 42.6631 35.0491 41.847C35.2126 40.4382 34.5337 39.0594 33.3595 38.416L29.7921 36.4616C29.6506 36.3841 29.5355 36.2636 29.4596 36.1132L28.7005 34.6129C28.2032 33.6296 27.3352 32.9312 26.3194 32.6964L24.7479 32.3334C24.4153 32.2566 24.1263 32.0307 23.9549 31.7142C23.3185 30.538 22.1401 29.8086 20.8777 29.8086C20.874 29.8086 20.8704 29.8086 20.8668 29.8086L16.6722 29.8224C16.671 29.8224 16.6698 29.8224 16.6684 29.8224C16.3013 29.8224 15.9583 29.6462 15.7271 29.3387L14.1873 27.2914C14.023 27.0729 13.8463 26.8614 13.6624 26.6632L11.4167 24.2421C11.1961 24.0043 11.0423 23.7051 10.9722 23.3771C10.7949 22.5488 11.1872 21.6923 11.9049 21.3406L12.728 20.9372C13.0839 20.7629 13.4873 20.7291 13.8638 20.8424L17.3204 21.8825C17.3961 21.9054 17.4609 21.9612 17.4982 22.0358L18.4763 23.9941C18.8956 24.8334 19.6713 25.3884 20.5516 25.4789C21.3155 25.5575 22.0723 25.2744 22.6273 24.7025C23.1823 24.1306 23.4784 23.3284 23.4402 22.5017L23.3325 20.1826C23.3274 20.0695 23.3792 19.9619 23.4681 19.9017L24.2643 19.3611C25.544 18.4924 26.5417 17.2442 27.1497 15.7513L27.7888 14.1816C28.3251 12.8644 28.5278 11.4129 28.3749 9.98366L28.3156 9.4308C28.2401 8.72512 28.0788 8.03224 27.8362 7.37154L27.7695 7.18965C27.5442 6.57616 27.2526 6.00056 26.9035 5.47093H26.905C27.7673 5.38968 28.6347 5.3488 29.5001 5.3488C35.1789 5.3488 40.5914 7.0556 45.1942 10.2913L45.203 11.4652C45.2054 11.7915 44.9612 12.0643 44.6587 12.0735L42.6222 12.1346C41.3023 12.1741 40.1702 13.1698 39.8693 14.5557L39.3283 17.0448C39.0363 18.3886 39.6093 19.8043 40.7215 20.4872L43.1254 21.9633C43.5027 22.1949 43.919 22.3102 44.3345 22.3102C44.799 22.3102 45.2624 22.166 45.669 21.8799L47.3756 20.6782C48.0868 20.1775 48.5102 19.2979 48.4807 18.3828C48.4803 18.3697 48.4791 18.3343 48.5138 18.3036C48.5488 18.2726 48.5804 18.2808 48.5921 18.2836L51.228 18.9362C51.2935 18.9525 51.3604 18.9659 51.4277 18.9762L53.2911 19.2646C54.1014 20.7189 54.7715 22.2415 55.2943 23.8151L53.4737 23.3406C53.4011 23.3217 53.3269 23.3054 53.253 23.2926L51.265 22.947C49.1063 22.5717 46.9111 23.3621 45.3949 25.0623L45.0957 25.3977C44.2089 26.3921 43.6088 27.633 43.3604 28.9863L42.6024 33.1166C42.338 34.5564 42.4848 36.0291 43.0268 37.3756C43.973 39.7263 46.0276 41.3672 48.3888 41.6576L48.757 41.703C49.7667 41.8275 50.8064 41.6976 51.7629 41.3282L53.0166 40.844C53.2399 40.7577 53.4908 40.8333 53.6407 41.0328L53.8052 41.2519C53.8821 41.3542 53.9262 41.483 53.9299 41.6143L53.9894 43.8169C49.488 53.0964 39.9106 59.0754 29.5 59.0754ZM55.605 39.6207L55.468 39.4381C54.9048 38.6881 54.0654 38.2747 53.2034 38.2747C52.8756 38.2747 52.5446 38.3345 52.2242 38.4582L50.9706 38.9423C50.351 39.1817 49.6774 39.2657 49.0239 39.185L48.6558 39.1397C47.1266 38.9515 45.796 37.8889 45.1833 36.3667C44.8322 35.4948 44.7371 34.541 44.9082 33.6086L45.6662 29.4782C45.8271 28.6019 46.2157 27.7983 46.7901 27.1544L47.0893 26.8189C48.0712 25.718 49.4926 25.2059 50.8908 25.4492L52.8786 25.7948C52.8927 25.7973 52.9069 25.8003 52.921 25.804L56.0583 26.6214C56.4508 28.4539 56.6493 30.331 56.6493 32.212C56.6495 34.75 56.2993 37.2289 55.605 39.6207Z" fill="#075459"/>
</svg>
