<svg width="50" height="50" viewBox="0 0 50 50" fill="none" xmlns="http://www.w3.org/2000/svg">
<path d="M25.0004 50C34.6081 50 42.4247 42.1835 42.4247 32.5758C42.4247 28.065 40.7015 23.9491 37.8792 20.8517V12.8788C37.8792 5.77742 32.1018 0 25.0004 0C17.8991 0 12.1218 5.77742 12.1218 12.8788V20.8514C9.29935 23.9491 7.57617 28.065 7.57617 32.5758C7.57617 42.1835 15.3927 50 25.0004 50ZM27.2731 33.3312V36.3636C27.2731 37.6188 26.2556 38.6364 25.0004 38.6364C23.7453 38.6364 22.7277 37.6188 22.7277 36.3636V33.3312C21.8083 32.6395 21.2125 31.5397 21.2125 30.303C21.2125 28.2144 22.9118 26.5152 25.0004 26.5152C27.0891 26.5152 28.7883 28.2144 28.7883 30.303C28.7883 31.5397 28.1925 32.6395 27.2731 33.3312ZM16.6672 12.8788C16.6672 8.28379 20.4056 4.54545 25.0004 4.54545C29.5954 4.54545 33.3338 8.28379 33.3338 12.8788V17.2771C30.8568 15.9224 28.0171 15.1515 25.0004 15.1515C21.9839 15.1515 19.1442 15.9224 16.6672 17.277V12.8788Z" fill="black"/>
</svg>
