<svg width="33" height="33" viewBox="0 0 33 33" fill="none" xmlns="http://www.w3.org/2000/svg">
<path d="M17.2901 16.6294C18.8142 15.3537 19.7857 13.4407 19.7857 11.3029C19.7857 7.47288 16.6703 4.35645 12.8392 4.35645C9.00912 4.35645 5.89268 7.47288 5.89268 11.3029C5.89268 13.4407 6.86412 15.3537 8.3883 16.6294C4.57784 18.3371 1.91309 22.1589 1.91309 26.5984C1.91309 26.8882 1.93371 27.1739 1.95537 27.4575L2.04818 28.6455H22.4391L23.6426 28.5805L23.7292 27.3853C23.7488 27.1254 23.7663 26.8635 23.7663 26.5984C23.7653 22.1589 21.1005 18.3371 17.2901 16.6294ZM12.8381 6.93457C15.2471 6.93457 17.2065 8.89395 17.2065 11.3029C17.2065 13.7119 15.2471 15.6713 12.8381 15.6713C10.4291 15.6713 8.46977 13.7119 8.46977 11.3029C8.46977 8.89395 10.4291 6.93457 12.8381 6.93457ZM4.50668 26.0674C4.78099 21.7093 8.41408 18.2494 12.8392 18.2494C17.2643 18.2494 20.8963 21.7093 21.1706 26.0674H4.50668ZM22.14 12.1599H29.8001C30.5117 12.1599 31.0892 11.5824 31.0892 10.8709C31.0892 10.1593 30.5117 9.58179 29.8001 9.58179H22.14C21.4285 9.58179 20.851 10.1593 20.851 10.8709C20.851 11.5824 21.4274 12.1599 22.14 12.1599ZM29.7991 14.5854H22.139C21.4274 14.5854 20.8499 15.1629 20.8499 15.8745C20.8499 16.586 21.4274 17.1635 22.139 17.1635H29.7991C30.5107 17.1635 31.0882 16.586 31.0882 15.8745C31.0882 15.1629 30.5117 14.5854 29.7991 14.5854ZM29.7991 19.588H24.8079C24.0963 19.588 23.5188 20.1655 23.5188 20.8771C23.5188 21.5886 24.0963 22.1661 24.8079 22.1661H29.7991C30.5107 22.1661 31.0882 21.5886 31.0882 20.8771C31.0882 20.1655 30.5117 19.588 29.7991 19.588Z" fill="#064045"/>
</svg>
