<svg width="24" height="24" viewBox="0 0 24 24" fill="none" xmlns="http://www.w3.org/2000/svg">
<g clip-path="url(#clip0)">
<path d="M22.5678 13.95C21.7501 13.1249 20.6693 12.6224 19.5222 12.5163C20.5125 11.6253 21.1373 10.3391 21.1373 8.90233C21.1373 6.21434 18.9591 4.03613 16.2706 4.03613C13.7028 4.03613 11.6004 6.02507 11.418 8.54574C13.7023 9.53393 15.3054 11.8104 15.3054 14.4535C15.3054 15.4186 15.0858 16.3619 14.6774 17.2178C15.2656 17.5252 15.8078 17.9226 16.2805 18.3994C17.4925 19.6198 18.1811 21.307 18.168 23.0272L18.167 23.0622L18.1659 23.092L18.123 23.9061H23.9523L24.0004 17.4593C24.0104 16.1444 23.4954 14.8832 22.5678 13.95Z" fill="#F2F7F2"/>
<path d="M12.1217 18.0691C13.1115 17.1787 13.7384 15.8919 13.7384 14.4551C13.7384 11.7666 11.5591 9.58789 8.87115 9.58789C6.18264 9.58789 4.00391 11.7666 4.00391 14.4551C4.00391 15.8893 4.62819 17.175 5.61639 18.066C3.08578 18.262 1.08691 20.3576 1.06861 22.9379L1.02051 23.9067H8.42045H16.5524L16.6005 23.0106C16.6099 21.6961 16.0944 20.435 15.1673 19.5017C14.3486 18.6761 13.2683 18.1752 12.1217 18.0691Z" fill="#F2F7F2"/>
<path d="M3.13921 5.94709V7.75512C3.13921 8.50384 3.74781 9.11192 4.49706 9.11192C5.24735 9.11192 5.85491 8.50384 5.85491 7.75512V5.94709H7.66084C8.41009 5.94709 9.01817 5.33849 9.01817 4.58924C9.01817 3.84051 8.41009 3.23191 7.66084 3.23191H5.85491V1.45055C5.85491 0.701305 5.24735 0.09375 4.49706 0.09375C3.74781 0.09375 3.13921 0.701305 3.13921 1.45055V3.23139H1.35733C0.607032 3.23139 0 3.83999 0 4.58872C0 5.33797 0.607032 5.94657 1.35733 5.94657H3.13921V5.94709Z" fill="#F2F7F2"/>
</g>
<defs>
<clipPath id="clip0">
<rect width="24" height="24" fill="white"/>
</clipPath>
</defs>
</svg>
