<svg width="485" height="479" viewBox="0 0 485 479" fill="none" xmlns="http://www.w3.org/2000/svg">
<path d="M485 378.969H443.892V223.469C443.892 193.142 419.219 168.469 388.892 168.469H258.179V124.019C276.951 117.729 290.521 99.9892 290.521 79.1272C290.521 68.8582 287.285 59.0872 281.149 50.8492L243.179 0.0322266L205.195 50.8682C199.073 59.0882 195.837 68.8592 195.837 79.1282C195.837 99.9902 209.407 117.731 228.179 124.02V168.47H94.225C63.898 168.47 39.225 193.143 39.225 223.47V378.97H0V408.97H42.927L63.034 478.97H422.443L442.137 408.97H485V378.969ZM229.241 68.8062L243.179 50.1532L257.103 68.7882C259.339 71.7902 260.52 75.3652 260.52 79.1282C260.52 88.6912 252.741 96.4702 243.178 96.4702C233.615 96.4702 225.836 88.6912 225.836 79.1282C225.837 75.3642 227.019 71.7892 229.241 68.8062ZM94.225 198.469H388.892C402.677 198.469 413.892 209.684 413.892 223.469V240.329C401.907 243.467 394.121 249.988 388.008 255.133C380.883 261.129 376.582 264.749 366.441 264.749C356.3 264.749 352 261.13 344.875 255.133C336.52 248.1 325.076 238.469 303.991 238.469C282.908 238.469 271.465 248.101 263.11 255.134C255.986 261.13 251.687 264.749 241.549 264.749C231.41 264.749 227.111 261.13 219.986 255.133C211.631 248.101 200.188 238.469 179.105 238.469C158.022 238.469 146.58 248.101 138.225 255.133C131.101 261.13 126.802 264.749 116.664 264.749C106.527 264.749 102.227 261.13 95.104 255.134C88.992 249.988 81.208 243.467 69.225 240.329V223.469C69.225 209.684 80.439 198.469 94.225 198.469ZM69.225 272.896C71.312 274.328 73.389 276.068 75.785 278.085C84.139 285.117 95.582 294.749 116.664 294.749C137.747 294.749 149.189 285.117 157.544 278.085C164.668 272.088 168.967 268.469 179.105 268.469C189.243 268.469 193.543 272.088 200.667 278.085C209.022 285.117 220.465 294.749 241.549 294.749C262.632 294.749 274.074 285.117 282.429 278.085C289.553 272.088 293.853 268.469 303.991 268.469C314.131 268.469 318.432 272.089 325.557 278.085C333.912 285.117 345.356 294.749 366.441 294.749C387.526 294.749 398.97 285.117 407.325 278.085C409.724 276.066 411.802 274.325 413.891 272.893V378.969H69.225V272.896ZM399.719 448.969H85.63L74.14 408.969H410.973L399.719 448.969Z" fill="#064045"/>
</svg>
