<svg width="31" height="30" viewBox="0 0 31 30" fill="none" xmlns="http://www.w3.org/2000/svg">
<path fill-rule="evenodd" clip-rule="evenodd" d="M29.5085 2.57886C30.1044 2.0033 30.1208 1.0537 29.5453 0.457858C28.9697 -0.137979 28.0201 -0.154418 27.4243 0.421142L15.0127 12.4103L2.60845 0.428126C2.01261 -0.147434 1.06301 -0.130995 0.487448 0.464843C-0.0881116 1.06068 -0.071673 2.01029 0.524165 2.58584L12.8537 14.4958L0.457858 26.4698C-0.137979 27.0454 -0.154418 27.995 0.421142 28.5908C0.996702 29.1866 1.94631 29.2031 2.54214 28.6275L15.0127 16.5813L27.4906 28.6345C28.0864 29.2101 29.036 29.1936 29.6116 28.5978C30.1871 28.002 30.1707 27.0523 29.5749 26.4768L17.1718 14.4958L29.5085 2.57886Z" fill="#5B5B5B"/>
</svg>
