<svg width="24" height="24" viewBox="0 0 24 24" fill="none" xmlns="http://www.w3.org/2000/svg">
<path fill-rule="evenodd" clip-rule="evenodd" d="M11.7219 1.33594C5.26024 1.33594 0 6.42168 0 12.6675C0 18.9143 5.26024 23.9997 11.7219 23.9997C18.1835 23.9997 23.4438 18.9143 23.4438 12.6675C23.4438 9.96791 22.4979 7.55217 20.8927 5.57426L19.7901 6.83891C21.1892 8.50482 21.7369 10.3542 21.7369 12.6675C21.7369 18.0204 17.2588 22.3469 11.7219 22.3469C6.18494 22.3469 1.70682 18.0204 1.70682 12.6675C1.70682 7.31469 6.18494 2.98628 11.7219 2.98628C13.4767 2.98628 14.7882 3.23004 16.2212 3.99503L17.2701 2.66378C15.5929 1.76818 13.7689 1.33594 11.7219 1.33594Z" fill="#F2F7F2"/>
<path d="M7.38361 11.1775C7.85655 11.1775 8.21373 11.5528 8.45655 12.3035C8.94079 13.7093 9.28667 14.4121 9.49279 14.4121C9.64949 14.4121 9.81326 14.2948 9.98267 14.06C13.3893 8.78769 16.5403 4.52276 19.4373 1.26547C20.1883 0.421867 21.3827 0 23.0189 0C23.4057 0 23.6669 0.0352123 23.7996 0.105501C23.9337 0.175789 24.0001 0.263684 24.0001 0.369048C24.0001 0.5331 23.7996 0.855335 23.4001 1.33575C18.7215 6.77253 14.3831 12.5137 10.3836 18.5598C10.1041 18.9816 9.53514 19.1931 8.67396 19.1931C7.80149 19.1931 7.2862 19.1576 7.12949 19.0867C6.71726 18.912 6.23161 18.0153 5.67396 16.398C5.04432 14.6059 4.72949 13.48 4.72949 13.0241C4.72949 12.5314 5.15302 12.0564 6.00149 11.5992C6.52243 11.3181 6.98408 11.1775 7.38361 11.1775Z" fill="#F2F7F2"/>
</svg>
