<svg width="33" height="33" viewBox="0 0 33 33" fill="none" xmlns="http://www.w3.org/2000/svg">
<g clip-path="url(#clip0_117:2462)">
<path d="M32.5533 14.8966L24.76 7.3935V1.42202C24.76 0.652814 24.1258 0.0185555 23.3566 0.0185555C22.5874 0.0185555 21.9531 0.652814 21.9531 1.42202V4.69453L17.4593 0.369422C16.9667 -0.123141 16.1233 -0.123141 15.5633 0.369422L0.476027 14.8966C-0.0840097 15.4567 -0.158231 16.3001 0.408553 16.8601C0.975337 17.4202 1.81202 17.4944 2.37206 16.9276L2.58123 16.7252V31.5965C2.58123 32.3657 3.21548 33 3.98469 33H29.1121C29.8813 33 30.4481 32.3657 30.5156 31.664V16.8669L30.6573 17.0018C31.6829 17.7103 32.4116 17.211 32.6208 16.8601C33.1134 16.3001 33.1134 15.3892 32.5533 14.8966ZM19.0045 30.2673H14.0923V22.7574H19.0045V30.2673ZM27.7087 30.2673H21.7439V21.3539C21.7439 20.5847 21.1097 19.9505 20.3405 19.9505H12.6889C11.9197 19.9505 11.2854 20.5847 11.2854 21.3539V30.2673H5.38816V16.5093H27.7087V30.2673ZM5.65805 13.7766L16.5484 3.31805L27.3308 13.7766H5.65805Z" fill="#064045"/>
</g>
<defs>
<clipPath id="clip0_117:2462">
<rect width="33" height="33" fill="white"/>
</clipPath>
</defs>
</svg>
