<svg width="33" height="33" viewBox="0 0 33 33" fill="none" xmlns="http://www.w3.org/2000/svg">
<g clip-path="url(#clip0)">
<path d="M32.4987 7.96915C31.9722 6.39291 31.0473 4.97099 29.8241 3.85711C28.5997 2.7422 27.1271 1.98209 25.5654 1.65903C24.977 1.5373 24.372 1.47559 23.7673 1.47559C22.0029 1.47559 20.2868 1.99902 18.8048 2.98933C17.9126 3.58551 17.1288 4.33325 16.4832 5.19787C15.8377 4.33491 15.0545 3.58859 14.1633 2.99358C12.6819 2.00471 10.967 1.48202 9.20397 1.48202C9.20387 1.48202 9.20401 1.48202 9.20394 1.48202C7.73488 1.48202 6.26047 1.86269 4.9405 2.58279C3.6215 3.30236 2.47756 4.34929 1.63246 5.61043C0.766534 6.90256 0.23907 8.34943 0.0646865 9.91083C-0.0880005 11.2782 0.0299175 12.7462 0.41524 14.2738C1.17854 17.2999 2.86804 20.0601 4.15095 21.8428C6.94038 25.7187 10.7758 29.2369 15.8763 32.5985L16.4856 33L17.0949 32.5985C23.3688 28.4637 27.7479 24.0982 30.4823 19.2526C32.0549 16.4658 32.8741 13.9831 32.987 11.6627C33.0498 10.3695 32.8855 9.12679 32.4987 7.96915ZM16.4857 30.1567C11.9289 27.0782 8.48754 23.8798 5.97932 20.3945C4.82012 18.7837 3.2981 16.3077 2.62998 13.6589C2.3185 12.424 2.22097 11.2571 2.3401 10.1905C2.46968 9.03033 2.86211 7.95448 3.50658 6.9928C4.14145 6.04543 5.00279 5.25786 5.99741 4.71526C6.9924 4.17246 8.1012 3.88556 9.20397 3.88556C10.5306 3.88556 11.8202 4.27836 12.9333 5.02143C14.0183 5.74573 14.8905 6.76747 15.4556 7.97619L16.4852 10.1779L17.5129 7.97527C18.0776 6.7651 18.9498 5.74202 20.0354 5.01666C21.1492 4.27249 22.4396 3.87916 23.7673 3.87916C24.2236 3.87916 24.6794 3.92561 25.1222 4.01719C26.2926 4.2593 27.3992 4.83162 28.3224 5.67228C29.2452 6.51259 29.9417 7.58176 30.3367 8.76418C30.6247 9.62608 30.7465 10.5601 30.6989 11.5403C30.6055 13.4624 29.8898 15.5846 28.5109 18.0281C26.0544 22.3811 22.1166 26.3538 16.4857 30.1567Z" fill="#064045"/>
</g>
<defs>
<clipPath id="clip0">
<rect width="33" height="33" fill="#white"/>
</clipPath>
</defs>
</svg>
