<svg width="24" height="24" viewBox="0 0 24 24" fill="none" xmlns="http://www.w3.org/2000/svg">
<path fill-rule="evenodd" clip-rule="evenodd" d="M2.96247 8.93654C5.30947 14.0501 9.48594 18.1156 14.6779 20.3186L14.6942 20.3255L15.6973 20.7728C16.9744 21.3422 18.4756 20.9378 19.2945 19.8038L20.968 17.4864C21.0702 17.3448 21.0439 17.148 20.908 17.0384L17.9866 14.6802C17.8414 14.5628 17.6279 14.5902 17.5166 14.7402L16.3797 16.2754C16.1036 16.6481 15.6048 16.7777 15.1824 16.5864C11.3002 14.8285 8.1805 11.707 6.4236 7.82256C6.23239 7.39979 6.36186 6.90082 6.73447 6.62453L8.26872 5.48687C8.41864 5.37571 8.44593 5.16203 8.32877 5.01671L5.97161 2.09321C5.86206 1.95732 5.66541 1.93094 5.52395 2.03312L3.19535 3.71514C2.0545 4.53921 1.65273 6.05394 2.23506 7.3356L2.96168 8.93484C2.96194 8.93541 2.9622 8.93598 2.96247 8.93654ZM13.9005 22.1295C8.25923 19.7335 3.72182 15.3148 1.17162 9.7572L1.17008 9.75392L0.441942 8.15126C-0.528607 6.01517 0.141007 3.4906 2.04242 2.11716L4.37102 0.435142C5.36129 -0.280164 6.73777 -0.0954154 7.50465 0.855712L9.86177 3.77923C10.682 4.79642 10.4909 6.29217 9.44156 7.07032L8.5624 7.72223C10.0474 10.6055 12.4011 12.9605 15.2826 14.4464L15.9342 13.5668C16.7118 12.5167 18.2067 12.3256 19.2233 13.1462L22.1448 15.5044C23.0957 16.272 23.28 17.6497 22.5645 18.6406L20.8912 20.958C19.5263 22.8481 17.0242 23.522 14.8956 22.5731L13.9005 22.1295Z" fill="#064045"/>
</svg>
