<svg width="33" height="33" viewBox="0 0 33 33" fill="none" xmlns="http://www.w3.org/2000/svg">
<g clip-path="url(#clip0)">
<mask id="path-1-outside-1" maskUnits="userSpaceOnUse" x="4.07715" y="0.222656" width="25" height="34" fill="black">
<rect fill="white" x="4.07715" y="0.222656" width="25" height="34"/>
<path fill-rule="evenodd" clip-rule="evenodd" d="M16.5002 14.4634C14.9238 14.4634 13.6445 13.277 13.6445 11.8152C13.6445 10.3535 14.9238 9.1671 16.5002 9.1671C18.0766 9.1671 19.356 10.3535 19.356 11.8152C19.356 13.277 18.0766 14.4634 16.5002 14.4634ZM16.5002 7.84303C14.1342 7.84303 12.2166 9.62126 12.2166 11.8152C12.2166 14.0092 14.1342 15.7875 16.5002 15.7875C18.8662 15.7875 20.7839 14.0092 20.7839 11.8152C20.7839 9.62126 18.8662 7.84303 16.5002 7.84303ZM6.50503 11.2883C6.50503 6.6315 11.1756 2.54673 16.5002 2.54673C21.8248 2.54673 26.4954 6.6315 26.4954 11.2883C26.4954 15.8629 22.8357 21.2758 16.5002 30.5231C10.0905 21.1579 6.50503 15.8629 6.50503 11.2883ZM16.5002 1.22266C10.506 1.22266 5.07715 5.72848 5.07715 11.2883C5.07715 16.8467 10.0305 23.483 16.5002 33.0004C22.97 23.483 27.9233 16.8467 27.9233 11.2883C27.9233 5.72848 22.4959 1.22266 16.5002 1.22266"/>
</mask>
<path fill-rule="evenodd" clip-rule="evenodd" d="M16.5002 14.4634C14.9238 14.4634 13.6445 13.277 13.6445 11.8152C13.6445 10.3535 14.9238 9.1671 16.5002 9.1671C18.0766 9.1671 19.356 10.3535 19.356 11.8152C19.356 13.277 18.0766 14.4634 16.5002 14.4634ZM16.5002 7.84303C14.1342 7.84303 12.2166 9.62126 12.2166 11.8152C12.2166 14.0092 14.1342 15.7875 16.5002 15.7875C18.8662 15.7875 20.7839 14.0092 20.7839 11.8152C20.7839 9.62126 18.8662 7.84303 16.5002 7.84303ZM6.50503 11.2883C6.50503 6.6315 11.1756 2.54673 16.5002 2.54673C21.8248 2.54673 26.4954 6.6315 26.4954 11.2883C26.4954 15.8629 22.8357 21.2758 16.5002 30.5231C10.0905 21.1579 6.50503 15.8629 6.50503 11.2883ZM16.5002 1.22266C10.506 1.22266 5.07715 5.72848 5.07715 11.2883C5.07715 16.8467 10.0305 23.483 16.5002 33.0004C22.97 23.483 27.9233 16.8467 27.9233 11.2883C27.9233 5.72848 22.4959 1.22266 16.5002 1.22266" fill="#064045"/>
<path d="M16.5002 30.5231L16.0876 30.8055L16.5 31.408L16.9127 30.8057L16.5002 30.5231ZM16.5002 33.0004L16.0867 33.2815L16.5002 33.8898L16.9137 33.2815L16.5002 33.0004ZM16.5002 13.9634C15.1638 13.9634 14.1445 12.966 14.1445 11.8152H13.1445C13.1445 13.588 14.6839 14.9634 16.5002 14.9634V13.9634ZM14.1445 11.8152C14.1445 10.6645 15.1638 9.6671 16.5002 9.6671V8.6671C14.6839 8.6671 13.1445 10.0425 13.1445 11.8152H14.1445ZM16.5002 9.6671C17.8367 9.6671 18.856 10.6645 18.856 11.8152H19.856C19.856 10.0425 18.3165 8.6671 16.5002 8.6671V9.6671ZM18.856 11.8152C18.856 12.966 17.8367 13.9634 16.5002 13.9634V14.9634C18.3165 14.9634 19.856 13.588 19.856 11.8152H18.856ZM16.5002 7.34303C13.8943 7.34303 11.7166 9.31025 11.7166 11.8152H12.7166C12.7166 9.93227 14.3742 8.34303 16.5002 8.34303V7.34303ZM11.7166 11.8152C11.7166 14.3203 13.8943 16.2875 16.5002 16.2875V15.2875C14.3742 15.2875 12.7166 13.6982 12.7166 11.8152H11.7166ZM16.5002 16.2875C19.1062 16.2875 21.2839 14.3203 21.2839 11.8152H20.2839C20.2839 13.6982 18.6263 15.2875 16.5002 15.2875V16.2875ZM21.2839 11.8152C21.2839 9.31025 19.1062 7.34303 16.5002 7.34303V8.34303C18.6263 8.34303 20.2839 9.93227 20.2839 11.8152H21.2839ZM7.00503 11.2883C7.00503 6.96848 11.3867 3.04673 16.5002 3.04673V2.04673C10.9645 2.04673 6.00503 6.29452 6.00503 11.2883H7.00503ZM16.5002 3.04673C21.6137 3.04673 25.9954 6.96848 25.9954 11.2883H26.9954C26.9954 6.29452 22.0359 2.04673 16.5002 2.04673V3.04673ZM25.9954 11.2883C25.9954 13.4463 25.1311 15.8519 23.4363 18.9111C21.7434 21.9668 19.2601 25.6101 16.0877 30.2405L16.9127 30.8057C20.0759 26.1887 22.5902 22.502 24.311 19.3957C26.0299 16.2931 26.9954 13.7049 26.9954 11.2883H25.9954ZM16.9128 30.2407C13.7031 25.5511 11.22 21.908 9.5364 18.8671C7.85156 15.8239 7.00503 13.4472 7.00503 11.2883H6.00503C6.00503 13.7041 6.95121 16.2622 8.66153 19.3514C10.3731 22.443 12.8875 26.1299 16.0876 30.8055L16.9128 30.2407ZM16.5002 0.722656C10.3005 0.722656 4.57715 5.38657 4.57715 11.2883H5.57715C5.57715 6.07039 10.7114 1.72266 16.5002 1.72266V0.722656ZM4.57715 11.2883C4.57715 14.2057 5.87364 17.3509 7.92958 20.9098C9.98868 24.4743 12.8613 28.5367 16.0867 33.2815L16.9137 32.7193C13.6694 27.9467 10.8305 23.9323 8.79548 20.4096C6.75732 16.8815 5.57715 13.9293 5.57715 11.2883H4.57715ZM16.9137 33.2815C20.1391 28.5367 23.0118 24.4743 25.0709 20.9098C27.1268 17.3509 28.4233 14.2057 28.4233 11.2883H27.4233C27.4233 13.9293 26.2431 16.8815 24.205 20.4096C22.17 23.9323 19.3311 27.9467 16.0867 32.7193L16.9137 33.2815ZM28.4233 11.2883C28.4233 5.38661 22.7014 0.722656 16.5002 0.722656V1.72266C22.2904 1.72266 27.4233 6.07036 27.4233 11.2883H28.4233Z" fill="#064045" mask="url(#path-1-outside-1)"/>
</g>
<defs>
<clipPath id="clip0">
<rect width="33" height="33" fill="white"/>
</clipPath>
</defs>
</svg>
