<svg width="50" height="50" viewBox="0 0 50 50" fill="none" xmlns="http://www.w3.org/2000/svg">
<path d="M18.5507 34.3769H31.4496C30.1581 41.1922 27.5718 45.8315 25.0001 45.8315C22.5064 45.8315 19.9989 41.4691 18.6716 34.9904L18.5507 34.3769H31.4496H18.5507ZM6.38723 34.3772L15.3573 34.3768C16.1173 38.7148 17.4053 42.4054 19.091 44.9881C13.7518 43.4113 9.30667 39.7555 6.69213 34.9583L6.38723 34.3772ZM34.643 34.3768L43.6131 34.3772C41.0478 39.4597 36.4621 43.3482 30.9114 44.9874C32.4834 42.5757 33.7098 39.2007 34.484 35.2354L34.643 34.3768L43.6131 34.3772L34.643 34.3768ZM35.274 20.8352L45.4199 20.8339C45.6932 22.1804 45.8367 23.574 45.8367 25.0012C45.8367 27.179 45.5026 29.2787 44.8829 31.252H35.0857C35.3051 29.257 35.42 27.161 35.42 25.0012C35.42 24.0547 35.398 23.1204 35.3547 22.2016L35.274 20.8352L45.4199 20.8339L35.274 20.8352ZM4.58037 20.8339L14.7263 20.8352C14.6299 22.1892 14.5802 23.5814 14.5802 25.0012C14.5802 26.729 14.6538 28.4161 14.7955 30.0432L14.9145 31.252H5.1174C4.49767 29.2787 4.16357 27.179 4.16357 25.0012C4.16357 23.574 4.30705 22.1804 4.58037 20.8339ZM17.8657 20.834H32.1345C32.2392 22.1791 32.295 23.5725 32.295 25.0012C32.295 26.7463 32.2118 28.4388 32.0579 30.0548L31.9294 31.2521H18.0709C17.8354 29.2817 17.7052 27.1826 17.7052 25.0012C17.7052 23.9297 17.7366 22.878 17.7965 21.8517L17.8657 20.834H32.1345H17.8657ZM31.134 5.36905L30.9093 5.01441C37.1974 6.87061 42.2475 11.6135 44.525 17.7088L34.9606 17.7094C34.3033 12.6742 32.968 8.34984 31.134 5.36905L30.9093 5.01441L31.134 5.36905ZM18.8372 5.09111L19.0909 5.01449C17.256 7.82597 15.8922 11.9502 15.1679 16.7931L15.0396 17.7094L5.4753 17.7088C7.7221 11.6958 12.6671 6.99883 18.8372 5.09111L19.0909 5.01449L18.8372 5.09111ZM25.0001 4.1709C27.7476 4.1709 30.5118 9.46621 31.6959 17.0531L31.7935 17.7089H18.2068C19.3305 9.77313 22.1742 4.1709 25.0001 4.1709Z" fill="#075459"/>
</svg>
