<svg width="50" height="50" viewBox="0 0 50 50" fill="none" xmlns="http://www.w3.org/2000/svg">
<path d="M32.8938 10.7768C34.5319 11.5287 36.2703 12.3496 36.2977 12.3625C36.5602 12.4867 36.8388 12.5455 37.1117 12.5455C37.8249 12.5455 38.5083 12.1424 38.8337 11.4546C39.2828 10.5035 38.8768 9.36776 37.9257 8.91863C37.8544 8.88517 37.165 8.55941 36.2611 8.1377C35.5188 9.39598 34.3214 10.3527 32.8938 10.7768Z" fill="#075459"/>
<path d="M12.7892 12.5461C13.0622 12.5461 13.3392 12.4873 13.602 12.3623C13.629 12.3498 15.328 11.5471 16.9503 10.8016C15.5013 10.3993 14.2802 9.45262 13.5174 8.19434C12.6747 8.58823 12.0418 8.88657 11.9748 8.91842C11.0234 9.36796 10.617 10.5037 11.0657 11.4543C11.3907 12.1426 12.0756 12.5461 12.7892 12.5461Z" fill="#075459"/>
<path d="M31.3391 10.5565C34.2542 10.5565 36.6173 8.19337 36.6173 5.27827C36.6173 2.36316 34.2542 0 31.3391 0C28.424 0 26.0608 2.36316 26.0608 5.27827C26.0608 8.19337 28.424 10.5565 31.3391 10.5565Z" fill="#075459"/>
<path d="M18.6093 10.5565C21.5244 10.5565 23.8876 8.19337 23.8876 5.27827C23.8876 2.36316 21.5244 0 18.6093 0C15.6942 0 13.3311 2.36316 13.3311 5.27827C13.3311 8.19337 15.6942 10.5565 18.6093 10.5565Z" fill="#075459"/>
<path d="M39.0507 14.0233C39.0462 14.0184 39.0418 14.0152 39.037 14.0108L38.5419 13.4185L38.0923 12.9686C37.7694 13.1383 37.4086 13.2367 37.0324 13.2367C36.6938 13.2367 36.3648 13.1629 36.0563 13.0174C36.0281 13.0037 33.9079 12.0022 32.1444 11.1987L31.3377 11.9365L30.2729 10.9338C30.0524 10.8967 29.8355 10.8495 29.6238 10.7883C29.184 10.9878 28.6598 11.26 28.1184 11.5797C28.1583 11.3467 28.1567 11.1108 28.1099 10.8814C28.351 10.7411 28.5881 10.6121 28.8203 10.4891C27.5777 9.92146 26.571 8.93128 25.9796 7.70202C25.6522 7.90119 25.3309 8.10438 25.0245 8.31202C24.5766 8.0552 24.1444 7.81047 23.8049 7.61816C23.232 8.85831 22.239 9.86179 21.0073 10.4488C22.0152 10.9737 24.4685 12.3328 25.1495 12.813C25.2982 12.9178 25.4595 12.99 25.6236 13.0472V22.9825C25.6236 23.8364 25.7607 24.6488 26.0171 25.3906C26.0094 25.4696 26.0054 25.5494 26.0054 25.6297V27.8612H26.0195C26.0187 27.8938 26.0106 27.9237 26.0106 27.9567L26.0118 47.5785C26.0118 48.9154 27.0956 49.9999 28.4337 49.9999C29.7706 49.9999 30.8555 48.9158 30.8555 47.5781L30.8539 27.9559C30.8539 27.9233 30.8454 27.8934 30.8446 27.8612H31.2087C31.2071 27.893 31.199 27.9233 31.199 27.9555L31.1978 47.5777C31.1978 48.9146 32.2815 49.9991 33.6192 49.9995C34.9565 49.9995 36.0406 48.9158 36.0406 47.5781L36.043 27.9563C36.043 27.9233 36.0346 27.8934 36.033 27.8612H36.0918C36.2729 28.2164 36.5583 28.5236 36.9357 28.7276C37.2469 28.8969 37.5823 28.9772 37.9133 28.9772C38.6407 28.9772 39.3442 28.5901 39.7155 27.9072C43.4258 21.0819 41.4028 16.5898 39.0507 14.0233ZM36.9163 24.2581L37.0348 18.1884C37.7448 19.5265 38.0601 21.4331 36.9163 24.2581Z" fill="#075459"/>
<path d="M20.2208 10.7617C20.0369 10.8182 19.8491 10.8657 19.658 10.9044L18.5626 11.9361L17.7554 11.1979C15.9912 12.0019 13.8717 13.0033 13.8423 13.0166C13.5339 13.1622 13.2065 13.236 12.8666 13.236C12.4913 13.236 12.1304 13.138 11.8083 12.9678L11.0217 13.8238C10.9979 13.8468 10.9709 13.8645 10.9487 13.8887C8.59707 16.4548 6.57357 20.9473 10.2863 27.7726C10.6577 28.4555 11.3612 28.843 12.0881 28.843C12.4187 28.843 12.7549 28.7627 13.0654 28.5934C13.3923 28.4152 13.6443 28.1568 13.8257 27.8608H13.8608C13.8604 27.8806 13.8552 27.8987 13.8552 27.9193L13.856 47.5411C13.856 48.8784 14.9397 49.9625 16.277 49.9625C17.6147 49.9625 18.6992 48.8788 18.6992 47.5407L18.6984 27.9189C18.6984 27.8987 18.6932 27.8806 18.6928 27.8608H19.0496C19.0492 27.8806 19.0431 27.8987 19.0431 27.9189L19.0415 47.5407C19.0415 48.8784 20.1252 49.9625 21.4633 49.9625C22.8015 49.9625 23.8852 48.8788 23.8852 47.5411L23.8868 27.9193C23.8868 27.8996 23.8815 27.8806 23.8811 27.8608H23.8952V25.6301C23.8952 25.5491 23.8904 25.4697 23.8828 25.3902C24.14 24.6484 24.277 23.8364 24.277 22.9821V12.7638C23.8098 12.7606 23.3602 12.6175 22.9768 12.3474C22.0471 11.6918 20.9888 11.1048 20.2208 10.7617ZM12.8485 18.2909V19.2875L12.9585 23.7961C12.028 21.309 12.2506 19.5592 12.8485 18.2909Z" fill="#075459"/>
</svg>
